SplineFontDB: 3.0
FontName: Podkova
FullName: Podkova
FamilyName: Podkova
Weight: Book
Copyright: Copyright (c) 2011 by Ilya Yudin | Cyreal. All rights reserved.
Version: 1.000
ItalicAngle: 0
UnderlinePosition: -103
UnderlineWidth: 102
Ascent: 1638
Descent: 410
LayerCount: 2
Layer: 0 1 "Back"  1
Layer: 1 1 "Fore"  0
XUID: [1021 230 1610532706 3484290]
FSType: 0
OS2Version: 3
OS2_WeightWidthSlopeOnly: 0
OS2_UseTypoMetrics: 1
CreationTime: 1305098760
ModificationTime: 1305225925
PfmFamily: 17
TTFWeight: 400
TTFWidth: 5
LineGap: 0
VLineGap: 0
Panose: 2 0 5 3 0 0 0 2 0 4
OS2TypoAscent: 1648
OS2TypoAOffset: 0
OS2TypoDescent: -459
OS2TypoDOffset: 0
OS2TypoLinegap: 0
OS2WinAscent: 1648
OS2WinAOffset: 0
OS2WinDescent: 459
OS2WinDOffset: 0
HheadAscent: 1648
HheadAOffset: 0
HheadDescent: -459
HheadDOffset: 0
OS2SubXSize: 1434
OS2SubYSize: 1331
OS2SubXOff: 0
OS2SubYOff: 287
OS2SupXSize: 1434
OS2SupYSize: 1331
OS2SupXOff: 0
OS2SupYOff: 977
OS2StrikeYSize: 102
OS2StrikeYPos: 512
OS2Vendor: 'pyrs'
OS2CodePages: 00000003.00000000
OS2UnicodeRanges: 80000027.10000043.00000000.00000000
Lookup: 258 0 0 "'kern' Horizontal Kerning in Latin lookup 0"  {"'kern' Horizontal Kerning in Latin lookup 0 per glyph data 0"  "'kern' Horizontal Kerning in Latin lookup 0 kerning class 1"  } ['kern' ('latn' <'dflt' > ) ]
DEI: 91125
KernClass2: 68+ 55 "'kern' Horizontal Kerning in Latin lookup 0 kerning class 1" 
 20 quotedbl quotesingle
 8 asterisk
 28 hyphen uni00AD endash emdash
 40 comma period quotesinglbase quotedblbase
 5 slash
 4 zero
 3 one
 4 four
 5 seven
 4 nine
 9 backslash
 10 exclamdown
 10 registered
 12 questiondown
 22 quoteleft quotedblleft
 24 quoteright quotedblright
 27 guillemotleft guilsinglleft
 29 guillemotright guilsinglright
 9 ampersand
 50 A Agrave Aacute Acircumflex Atilde Adieresis Aring
 1 B
 10 C Ccedilla
 5 D Eth
 43 E AE Egrave Eacute Ecircumflex Edieresis OE
 1 F
 1 G
 50 H I M N Igrave Iacute Icircumflex Idieresis Ntilde
 1 J
 1 K
 1 L

StartChar: .notdef
Encoding: 65536 -1 0
Width: 1079
Flags: W
LayerCount: 2
Fore
SplineSet
80 612 m 256,0,1
 80 709 80 709 116.5 794 c 128,-1,2
 153 879 153 879 216 942.5 c 128,-1,3
 279 1006 279 1006 363.5 1042.5 c 128,-1,4
 448 1079 448 1079 545 1079 c 256,5,6
 642 1079 642 1079 727 1042.5 c 128,-1,7
 812 1006 812 1006 875.5 942.5 c 128,-1,8
 939 879 939 879 975.5 794 c 128,-1,9
 1012 709 1012 709 1012 612 c 256,10,11
 1012 515 1012 515 975.5 430.5 c 128,-1,12
 939 346 939 346 875.5 283 c 128,-1,13
 812 220 812 220 727 183.5 c 128,-1,14
 642 147 642 147 545 147 c 256,15,16
 448 147 448 147 363.5 183.5 c 128,-1,17
 279 220 279 220 216 283 c 128,-1,18
 153 346 153 346 116.5 430.5 c 128,-1,19
 80 515 80 515 80 612 c 256,0,1
850 739 m 1,20,-1
 737 895 l 1,21,-1
 543 700 l 1,22,-1
 344 895 l 1,23,-1
 229 737 l 1,24,-1
 422 606 l 1,25,-1
 233 479 l 1,26,-1
 346 319 l 1,27,-1
 547 522 l 1,28,-1
 745 324 l 1,29,-1
 856 481 l 1,30,-1
 664 612 l 1,31,-1
 850 739 l 1,20,-1
EndSplineSet
EndChar

StartChar: exclam
Encoding: 33 33 4
Width: 506
GlyphClass: 2
Flags: W
HStem: -31 254<155.871 346.816> 1186 20G<174 336>
VStem: 125 254<0.705933 190.652> 174 162<732.912 1206> 192 119<381 854.088>
LayerCount: 2
Fore
SplineSet
311 381 m 1,0,-1
 192 381 l 1,1,-1
 174 1206 l 1,2,-1
 336 1206 l 1,3,-1
 311 381 l 1,0,-1
379 96 m 0,4,5
 379 70 379 70 368.5 47 c 128,-1,6
 358 24 358 24 340.5 6.5 c 128,-1,7
 323 -11 323 -11 300 -21 c 128,-1,8
 277 -31 277 -31 252 -31 c 0,9,10
 226 -31 226 -31 202.5 -21 c 128,-1,11
 179 -11 179 -11 162 6.5 c 128,-1,12
 145 24 145 24 135 47 c 128,-1,13
 125 70 125 70 125 96 c 0,14,15
 125 121 125 121 135 144.5 c 128,-1,16
 145 168 145 168 162 185 c 128,-1,17
 179 202 179 202 202.5 212.5 c 128,-1,18
 226 223 226 223 252 223 c 0,19,20
 277 223 277 223 300 212.5 c 128,-1,21
 323 202 323 202 340.5 185 c 128,-1,22
 358 168 358 168 368.5 144.5 c 128,-1,23
 379 121 379 121 379 96 c 0,4,5
EndSplineSet
EndChar

StartChar: quotedbl
Encoding: 34 34 5
Width: 705
GlyphClass: 2
Flags: W
HStem: 825 381<164 250 455 541>
VStem: 164 86<825 965.052> 455 86<825 965.052>
LayerCount: 2
Fore
SplineSet
125 1206 m 1,0,-1
 289 1206 l 1,1,-1
 250 825 l 1,2,-1
 164 825 l 1,3,-1
 125 1206 l 1,0,-1
416 1206 m 1,4,-1
 580 1206 l 1,5,-1
 541 825 l 1,6,-1
 455 825 l 1,7,-1
 416 1206 l 1,4,-1
EndSplineSet
EndChar

StartChar: numbersign
Encoding: 35 35 6
Width: 1347
GlyphClass: 2
Flags: W
HStem: 252 110<77 327 489 732 894 1199> 694 111<147 450 612 855 1017 1269> 1186 20G<587.414 722 993.364 1128>
LayerCount: 2
Fore
SplineSet
147 805 m 1,0,-1
 481 805 l 1,1,-1
 593 1206 l 1,2,-1
 722 1206 l 1,3,-1
 612 805 l 1,4,-1
 886 805 l 1,5,-1
 999 1206 l 1,6,-1
 1128 1206 l 1,7,-1
 1017 805 l 1,8,-1
 1269 805 l 1,9,-1
 1269 694 l 1,10,-1
 986 694 l 1,11,-1
 894 362 l 1,12,-1
 1199 362 l 1,13,-1
 1199 252 l 1,14,-1
 864 252 l 1,15,-1
 757 -137 l 1,16,-1
 626 -137 l 1,17,-1
 732 252 l 1,18,-1
 458 252 l 1,19,-1
 352 -137 l 1,20,-1
 220 -137 l 1,21,-1
 327 252 l 1,22,-1
 77 252 l 1,23,-1
 77 362 l 1,24,-1
 358 362 l 1,25,-1
 450 694 l 1,26,-1
 147 694 l 1,27,-1
 147 805 l 1,0,-1
489 362 m 1,28,-1
 763 362 l 1,29,-1
 855 694 l 1,30,-1
 581 694 l 1,31,-1
 489 362 l 1,28,-1
EndSplineSet
EndChar

StartChar: dollar
Encoding: 36 36 7
Width: 978
GlyphClass: 2
Flags: W
HStem: 2 119<240.221 418 549 662.835> 82 213<125 217> 854 229<733 825> 1030 121<299.628 418 551 707.184> 1315 20G<418 551>
VStem: 119 129<739.405 976.374> 418 131<-170 3.82593 121 508 680 1030 1149.15 1335> 737 143<191.441 452.299>
LayerCount: 2
Fore
SplineSet
551 1335 m 1,0,-1
 551 1153 l 1,1,2
 618 1148 618 1148 668 1137 c 128,-1,3
 718 1126 718 1126 751 1114 c 128,-1,4
 784 1102 784 1102 801.5 1093 c 128,-1,5
 819 1084 819 1084 823 1083 c 1,6,-1
 825 1083 l 1,7,-1
 856 854 l 1,8,-1
 733 842 l 1,9,-1
 708 993 l 1,10,11
 682 1004 682 1004 642.5 1014.5 c 128,-1,12
 603 1025 603 1025 551 1030 c 1,13,-1
 551 659 l 1,14,-1
 598 653 l 1,15,16
 676 642 676 642 729.5 614 c 128,-1,17
 783 586 783 586 816.5 546 c 128,-1,18
 850 506 850 506 865 455.5 c 128,-1,19
 880 405 880 405 880 348 c 0,20,21
 880 260 880 260 857.5 196 c 128,-1,22
 835 132 835 132 792.5 90 c 128,-1,23
 750 48 750 48 688.5 26 c 128,-1,24
 627 4 627 4 549 0 c 1,25,-1
 549 -170 l 1,26,-1
 418 -170 l 1,27,-1
 418 2 l 1,28,29
 356 8 356 8 302.5 21 c 128,-1,30
 249 34 249 34 210 47.5 c 128,-1,31
 171 61 171 61 148.5 71.5 c 128,-1,32
 126 82 126 82 125 82 c 2,33,-1
 90 295 l 1,34,-1
 217 309 l 1,35,-1
 239 166 l 1,36,37
 278 152 278 152 324.5 139.5 c 128,-1,38
 371 127 371 127 418 121 c 1,39,-1
 418 526 l 1,40,41
 339 536 339 536 282.5 566 c 128,-1,42
 226 596 226 596 189.5 638.5 c 128,-1,43
 153 681 153 681 136 733 c 128,-1,44
 119 785 119 785 119 840 c 0,45,46
 119 900 119 900 133.5 952.5 c 128,-1,47
 148 1005 148 1005 183 1046.5 c 128,-1,48
 218 1088 218 1088 275 1115 c 128,-1,49
 332 1142 332 1142 418 1151 c 1,50,-1
 418 1335 l 1,51,-1
 551 1335 l 1,0,-1
737 328 m 0,52,53
 737 358 737 358 728.5 388.5 c 128,-1,54
 720 419 720 419 699 444.5 c 128,-1,55
 678 470 678 470 641.5 487 c 128,-1,56
 605 504 605 504 549 508 c 1,57,-1
 549 121 l 1,58,59
 635 135 635 135 686 184.5 c 128,-1,60
 737 234 737 234 737 328 c 0,52,53
248 862 m 0,61,62
 248 828 248 828 258.5 797.5 c 128,-1,63
 269 767 269 767 289.5 743 c 128,-1,64
 310 719 310 719 338.5 703 c 128,-1,65
 367 687 367 687 403 682 c 2,66,-1
 418 680 l 1,67,-1
 418 1030 l 1,68,69
 327 1018 327 1018 287.5 974.5 c 128,-1,70
 248 931 248 931 248 862 c 0,61,62
EndSplineSet
EndChar

StartChar: percent
Encoding: 37 37 8
Width: 1497
GlyphClass: 2
Flags: W
HStem: -33 135<1047.94 1245.75> 518 135<248.939 446.754> 551 135<1047.94 1245.75> 1102 135<248.939 446.754>
VStem: 76 133<691.91 1062.9> 487 134<691.91 1062.9> 875 133<140.91 511.899> 1286 133<140.91 511.899>
LayerCount: 2
Fore
SplineSet
512 -43 m 1,0,-1
 360 -43 l 1,1,-1
 959 1237 l 1,2,-1
 1108 1237 l 1,3,-1
 512 -43 l 1,0,-1
209 877 m 256,4,5
 209 808 209 808 220 764.5 c 128,-1,6
 231 721 231 721 250 696.5 c 128,-1,7
 269 672 269 672 294 662.5 c 128,-1,8
 319 653 319 653 348 653 c 0,9,10
 376 653 376 653 401.5 662.5 c 128,-1,11
 427 672 427 672 446 696.5 c 128,-1,12
 465 721 465 721 476 764.5 c 128,-1,13
 487 808 487 808 487 877 c 256,14,15
 487 946 487 946 476 990 c 128,-1,16
 465 1034 465 1034 446 1058.5 c 128,-1,17
 427 1083 427 1083 401.5 1092.5 c 128,-1,18
 376 1102 376 1102 348 1102 c 0,19,20
 319 1102 319 1102 294 1092.5 c 128,-1,21
 269 1083 269 1083 250 1058.5 c 128,-1,22
 231 1034 231 1034 220 990 c 128,-1,23
 209 946 209 946 209 877 c 256,4,5
621 877 m 256,24,25
 621 777 621 777 601 708.5 c 128,-1,26
 581 640 581 640 545 597.5 c 128,-1,27
 509 555 509 555 459 536.5 c 128,-1,28
 409 518 409 518 348 518 c 0,29,30
 288 518 288 518 238 536.5 c 128,-1,31
 188 555 188 555 152 597.5 c 128,-1,32
 116 640 116 640 96 708.5 c 128,-1,33
 76 777 76 777 76 877 c 256,34,35
 76 977 76 977 96 1046 c 128,-1,36
 116 1115 116 1115 152 1157.5 c 128,-1,37
 188 1200 188 1200 238 1218.5 c 128,-1,38
 288 1237 288 1237 348 1237 c 0,39,40
 409 1237 409 1237 459 1218.5 c 128,-1,41
 509 1200 509 1200 545 1157.5 c 128,-1,42
 581 1115 581 1115 601 1046 c 128,-1,43
 621 977 621 977 621 877 c 256,24,25
1008 326 m 256,44,45
 1008 257 1008 257 1019 213.5 c 128,-1,46
 1030 170 1030 170 1049 145.5 c 128,-1,47
 1068 121 1068 121 1093 111.5 c 128,-1,48
 1118 102 1118 102 1147 102 c 0,49,50
 1175 102 1175 102 1200.5 111.5 c 128,-1,51
 1226 121 1226 121 1245 145.5 c 128,-1,52
 1264 170 1264 170 1275 213.5 c 128,-1,53
 1286 257 1286 257 1286 326 c 256,54,55
 1286 395 1286 395 1275 439 c 128,-1,56
 1264 483 1264 483 1245 507.5 c 128,-1,57
 1226 532 1226 532 1200.5 541.5 c 128,-1,58
 1175 551 1175 551 1147 551 c 0,59,60
 1118 551 1118 551 1093 541.5 c 128,-1,61
 1068 532 1068 532 1049 507.5 c 128,-1,62
 1030 483 1030 483 1019 439 c 128,-1,63
 1008 395 1008 395 1008 326 c 256,44,45
1419 326 m 256,64,65
 1419 226 1419 226 1399.5 157.5 c 128,-1,66
 1380 89 1380 89 1344 46.5 c 128,-1,67
 1308 4 1308 4 1258 -14.5 c 128,-1,68
 1208 -33 1208 -33 1147 -33 c 0,69,70
 1087 -33 1087 -33 1037 -14.5 c 128,-1,71
 987 4 987 4 951 46.5 c 128,-1,72
 915 89 915 89 895 157.5 c 128,-1,73
 875 226 875 226 875 326 c 256,74,75
 875 426 875 426 895 495 c 128,-1,76
 915 564 915 564 951 606.5 c 128,-1,77
 987 649 987 649 1037 667.5 c 128,-1,78
 1087 686 1087 686 1147 686 c 0,79,80
 1208 686 1208 686 1258 667.5 c 128,-1,81
 1308 649 1308 649 1344 606.5 c 128,-1,82
 1380 564 1380 564 1399.5 495 c 128,-1,83
 1419 426 1419 426 1419 326 c 256,64,65
EndSplineSet
EndChar

StartChar: ampersand
Encoding: 38 38 9
Width: 1408
GlyphClass: 2
Flags: W
HStem: -31 121<364.625 709.6> 1124 113<451.017 636.834>
VStem: 94 159<194.232 477.581> 278 150<852.633 1097.04> 659 143<878.728 1100.56>
LayerCount: 2
Fore
SplineSet
1306 723 m 1,0,-1
 1161 674 l 1,1,2
 1138 593 1138 593 1107.5 495 c 128,-1,3
 1077 397 1077 397 1028 301 c 1,4,5
 1128 224 1128 224 1206 168.5 c 128,-1,6
 1284 113 1284 113 1331 84 c 1,7,-1
 1263 -31 l 2,8,9
 1263 -30 1263 -30 1240 -14.5 c 128,-1,10
 1217 1 1217 1 1176.5 29.5 c 128,-1,11
 1136 58 1136 58 1080.5 98 c 128,-1,12
 1025 138 1025 138 960 188 c 1,13,14
 925 141 925 141 880.5 101 c 128,-1,15
 836 61 836 61 781 31.5 c 128,-1,16
 726 2 726 2 659.5 -14.5 c 128,-1,17
 593 -31 593 -31 512 -31 c 0,18,19
 477 -31 477 -31 432.5 -24.5 c 128,-1,20
 388 -18 388 -18 341.5 -2.5 c 128,-1,21
 295 13 295 13 250.5 39.5 c 128,-1,22
 206 66 206 66 171 106.5 c 128,-1,23
 136 147 136 147 115 203 c 128,-1,24
 94 259 94 259 94 334 c 0,25,26
 94 410 94 410 120 468.5 c 128,-1,27
 146 527 146 527 189 572.5 c 128,-1,28
 232 618 232 618 285.5 654.5 c 128,-1,29
 339 691 339 691 395 723 c 1,30,31
 341 795 341 795 309.5 862 c 128,-1,32
 278 929 278 929 278 991 c 0,33,34
 278 1042 278 1042 290 1080.5 c 128,-1,35
 302 1119 302 1119 322 1146 c 128,-1,36
 342 1173 342 1173 368.5 1191 c 128,-1,37
 395 1209 395 1209 424 1219 c 128,-1,38
 453 1229 453 1229 483 1233 c 128,-1,39
 513 1237 513 1237 540 1237 c 0,40,41
 594 1237 594 1237 641.5 1223.5 c 128,-1,42
 689 1210 689 1210 725 1182 c 128,-1,43
 761 1154 761 1154 781.5 1112.5 c 128,-1,44
 802 1071 802 1071 802 1014 c 0,45,46
 802 961 802 961 783.5 918 c 128,-1,47
 765 875 765 875 734.5 838 c 128,-1,48
 704 801 704 801 663.5 769 c 128,-1,49
 623 737 623 737 579 707 c 1,50,51
 650 623 650 623 740.5 540.5 c 128,-1,52
 831 458 831 458 927 381 c 1,53,54
 971 474 971 474 997.5 575 c 128,-1,55
 1024 676 1024 676 1044 772 c 1,56,-1
 1267 844 l 1,57,-1
 1306 723 l 1,0,-1
466 631 m 1,58,59
 423 602 423 602 384.5 570.5 c 128,-1,60
 346 539 346 539 316.5 503 c 128,-1,61
 287 467 287 467 270 425.5 c 128,-1,62
 253 384 253 384 253 334 c 0,63,64
 253 282 253 282 269 244 c 128,-1,65
 285 206 285 206 310 179 c 128,-1,66
 335 152 335 152 365.5 134.5 c 128,-1,67
 396 117 396 117 425.5 107 c 128,-1,68
 455 97 455 97 479.5 93.5 c 128,-1,69
 504 90 504 90 518 90 c 0,70,71
 634 90 634 90 717.5 139 c 128,-1,72
 801 188 801 188 860 268 c 1,73,74
 756 350 756 350 653.5 442.5 c 128,-1,75
 551 535 551 535 466 631 c 1,58,59
659 997 m 0,76,77
 659 1063 659 1063 633 1093.5 c 128,-1,78
 607 1124 607 1124 542 1124 c 0,79,80
 479 1124 479 1124 453.5 1088.5 c 128,-1,81
 428 1053 428 1053 428 993 c 0,82,83
 428 948 428 948 449.5 898 c 128,-1,84
 471 848 471 848 512 793 c 1,85,86
 543 814 543 814 570 835.5 c 128,-1,87
 597 857 597 857 616.5 881.5 c 128,-1,88
 636 906 636 906 647.5 934 c 128,-1,89
 659 962 659 962 659 997 c 0,76,77
EndSplineSet
EndChar

StartChar: quotesingle
Encoding: 39 39 10
Width: 416
GlyphClass: 2
Flags: W
HStem: 825 381<165 251>
VStem: 165 86<825 965.052>
LayerCount: 2
Fore
SplineSet
126 1206 m 1,0,-1
 290 1206 l 1,1,-1
 251 825 l 1,2,-1
 165 825 l 1,3,-1
 126 1206 l 1,0,-1
EndSplineSet
EndChar

StartChar: parenleft
Encoding: 40 40 11
Width: 582
GlyphClass: 2
Flags: W
HStem: 1315 20G<412.5 461.6>
VStem: 92 164<228.561 852.371>
LayerCount: 2
Fore
SplineSet
256 539 m 0,0,1
 256 483 256 483 265 399.5 c 128,-1,2
 274 316 274 316 302.5 221.5 c 128,-1,3
 331 127 331 127 384 28.5 c 128,-1,4
 437 -70 437 -70 524 -156 c 1,5,-1
 446 -256 l 1,6,7
 379 -213 379 -213 315.5 -134 c 128,-1,8
 252 -55 252 -55 202.5 50 c 128,-1,9
 153 155 153 155 122.5 279.5 c 128,-1,10
 92 404 92 404 92 539 c 256,11,12
 92 674 92 674 122.5 799 c 128,-1,13
 153 924 153 924 202.5 1029 c 128,-1,14
 252 1134 252 1134 315.5 1213 c 128,-1,15
 379 1292 379 1292 446 1335 c 1,16,-1
 524 1235 l 1,17,18
 466 1178 466 1178 423.5 1114.5 c 128,-1,19
 381 1051 381 1051 351 986.5 c 128,-1,20
 321 922 321 922 302.5 858 c 128,-1,21
 284 794 284 794 273.5 735.5 c 128,-1,22
 263 677 263 677 259.5 627 c 128,-1,23
 256 577 256 577 256 539 c 0,0,1
EndSplineSet
EndChar

StartChar: parenright
Encoding: 41 41 12
Width: 582
GlyphClass: 2
Flags: W
HStem: 1315 20G<120.4 169.5>
VStem: 326 164<228.561 852.371>
LayerCount: 2
Fore
SplineSet
326 539 m 0,0,1
 326 577 326 577 322.5 627 c 128,-1,2
 319 677 319 677 308.5 735.5 c 128,-1,3
 298 794 298 794 279.5 858 c 128,-1,4
 261 922 261 922 231 986.5 c 128,-1,5
 201 1051 201 1051 158.5 1114.5 c 128,-1,6
 116 1178 116 1178 58 1235 c 1,7,-1
 136 1335 l 1,8,9
 203 1292 203 1292 266.5 1213 c 128,-1,10
 330 1134 330 1134 379.5 1029 c 128,-1,11
 429 924 429 924 459.5 799 c 128,-1,12
 490 674 490 674 490 539 c 256,13,14
 490 404 490 404 459.5 279.5 c 128,-1,15
 429 155 429 155 379.5 50 c 128,-1,16
 330 -55 330 -55 266.5 -134 c 128,-1,17
 203 -213 203 -213 136 -256 c 1,18,-1
 58 -156 l 1,19,20
 145 -70 145 -70 198 28.5 c 128,-1,21
 251 127 251 127 279.5 221.5 c 128,-1,22
 308 316 308 316 317 399.5 c 128,-1,23
 326 483 326 483 326 539 c 0,0,1
EndSplineSet
EndChar

StartChar: asterisk
Encoding: 42 42 13
Width: 965
GlyphClass: 2
Flags: W
HStem: 1315 20G<401 556>
LayerCount: 2
Fore
SplineSet
540 1036 m 1,0,-1
 825 1147 l 1,1,-1
 876 999 l 1,2,-1
 579 920 l 1,3,-1
 767 688 l 1,4,-1
 642 594 l 1,5,-1
 481 844 l 1,6,-1
 319 594 l 1,7,-1
 190 684 l 1,8,-1
 384 922 l 1,9,-1
 96 997 l 1,10,-1
 143 1147 l 1,11,-1
 417 1038 l 1,12,-1
 401 1335 l 1,13,-1
 556 1335 l 1,14,-1
 540 1036 l 1,0,-1
EndSplineSet
EndChar

StartChar: plus
Encoding: 43 43 14
Width: 952
GlyphClass: 2
Flags: W
HStem: 551 141<95 398 552 857>
VStem: 398 154<240 551 692 1001>
LayerCount: 2
Fore
SplineSet
95 692 m 1,0,-1
 398 692 l 1,1,-1
 398 1001 l 1,2,-1
 552 1001 l 1,3,-1
 552 692 l 1,4,-1
 857 692 l 1,5,-1
 857 551 l 1,6,-1
 552 551 l 1,7,-1
 552 240 l 1,8,-1
 398 240 l 1,9,-1
 398 551 l 1,10,-1
 95 551 l 1,11,-1
 95 692 l 1,0,-1
EndSplineSet
EndChar

StartChar: comma
Encoding: 44 44 15
Width: 527
GlyphClass: 2
Flags: W
HStem: -248 471
VStem: 129 272<2.63123 184.755>
LayerCount: 2
Fore
SplineSet
401 84 m 0,0,1
 401 54 401 54 393.5 24 c 128,-1,2
 386 -6 386 -6 373.5 -34.5 c 128,-1,3
 361 -63 361 -63 345 -90 c 128,-1,4
 329 -117 329 -117 312 -141 c 0,5,6
 272 -196 272 -196 221 -248 c 1,7,-1
 149 -186 l 1,8,9
 166 -160 166 -160 184 -132 c 1,10,11
 198 -108 198 -108 214.5 -79.5 c 128,-1,12
 231 -51 231 -51 243 -23 c 1,13,14
 225 -21 225 -21 206 -14.5 c 128,-1,15
 187 -8 187 -8 172 4 c 0,16,17
 152 21 152 21 140.5 44.5 c 128,-1,18
 129 68 129 68 129 96 c 256,19,20
 129 124 129 124 139 147.5 c 128,-1,21
 149 171 149 171 167 188 c 128,-1,22
 185 205 185 205 209 214 c 128,-1,23
 233 223 233 223 262 223 c 0,24,25
 289 223 289 223 314.5 212 c 128,-1,26
 340 201 340 201 359 182 c 128,-1,27
 378 163 378 163 389.5 137.5 c 128,-1,28
 401 112 401 112 401 84 c 0,0,1
EndSplineSet
EndChar

StartChar: hyphen
Encoding: 45 45 16
Width: 903
GlyphClass: 2
Flags: W
HStem: 403 142<138 765>
VStem: 138 627<403 545>
LayerCount: 2
Fore
SplineSet
138 545 m 1,0,-1
 765 545 l 1,1,-1
 765 403 l 1,2,-1
 138 403 l 1,3,-1
 138 545 l 1,0,-1
EndSplineSet
EndChar

StartChar: period
Encoding: 46 46 17
Width: 507
GlyphClass: 2
Flags: W
HStem: -31 254<157.871 348.816>
VStem: 127 254<0.705933 190.652>
LayerCount: 2
Fore
SplineSet
381 96 m 0,0,1
 381 70 381 70 370.5 47 c 128,-1,2
 360 24 360 24 342.5 6.5 c 128,-1,3
 325 -11 325 -11 302 -21 c 128,-1,4
 279 -31 279 -31 254 -31 c 0,5,6
 228 -31 228 -31 204.5 -21 c 128,-1,7
 181 -11 181 -11 164 6.5 c 128,-1,8
 147 24 147 24 137 47 c 128,-1,9
 127 70 127 70 127 96 c 0,10,11
 127 121 127 121 137 144.5 c 128,-1,12
 147 168 147 168 164 185 c 128,-1,13
 181 202 181 202 204.5 212.5 c 128,-1,14
 228 223 228 223 254 223 c 0,15,16
 279 223 279 223 302 212.5 c 128,-1,17
 325 202 325 202 342.5 185 c 128,-1,18
 360 168 360 168 370.5 144.5 c 128,-1,19
 381 121 381 121 381 96 c 0,0,1
EndSplineSet
EndChar

StartChar: slash
Encoding: 47 47 18
Width: 923
GlyphClass: 2
Flags: W
HStem: 1186 20G<712.896 872>
LayerCount: 2
Fore
SplineSet
202 -268 m 1,0,-1
 51 -268 l 1,1,-1
 722 1206 l 1,2,-1
 872 1206 l 1,3,-1
 202 -268 l 1,0,-1
EndSplineSet
EndChar

StartChar: zero
Encoding: 48 48 19
Width: 1202
GlyphClass: 2
Flags: W
HStem: -31 140<436.17 767.081> 1098 139<436.17 767.081>
VStem: 119 177<289.411 916.771> 908 176<289.411 916.771>
LayerCount: 2
Fore
SplineSet
296 602 m 0,0,1
 296 452 296 452 320 356 c 128,-1,2
 344 260 344 260 385 205 c 128,-1,3
 426 150 426 150 482 129.5 c 128,-1,4
 538 109 538 109 603 109 c 0,5,6
 667 109 667 109 722.5 129.5 c 128,-1,7
 778 150 778 150 819 205 c 128,-1,8
 860 260 860 260 884 356 c 128,-1,9
 908 452 908 452 908 602 c 0,10,11
 908 754 908 754 884 850.5 c 128,-1,12
 860 947 860 947 819 1002 c 128,-1,13
 778 1057 778 1057 722.5 1077.5 c 128,-1,14
 667 1098 667 1098 603 1098 c 0,15,16
 538 1098 538 1098 482 1077.5 c 128,-1,17
 426 1057 426 1057 385 1002 c 128,-1,18
 344 947 344 947 320 850.5 c 128,-1,19
 296 754 296 754 296 602 c 0,0,1
1084 602 m 0,20,21
 1084 425 1084 425 1048.5 304 c 128,-1,22
 1013 183 1013 183 949.5 108.5 c 128,-1,23
 886 34 886 34 797 1.5 c 128,-1,24
 708 -31 708 -31 601 -31 c 256,25,26
 494 -31 494 -31 405.5 1.5 c 128,-1,27
 317 34 317 34 253 108.5 c 128,-1,28
 189 183 189 183 154 304 c 128,-1,29
 119 425 119 425 119 602 c 0,30,31
 119 780 119 780 154 901.5 c 128,-1,32
 189 1023 189 1023 253 1097.5 c 128,-1,33
 317 1172 317 1172 405.5 1204.5 c 128,-1,34
 494 1237 494 1237 601 1237 c 256,35,36
 708 1237 708 1237 797 1204.5 c 128,-1,37
 886 1172 886 1172 949.5 1097.5 c 128,-1,38
 1013 1023 1013 1023 1048.5 901.5 c 128,-1,39
 1084 780 1084 780 1084 602 c 0,20,21
EndSplineSet
EndChar

StartChar: one
Encoding: 49 49 20
Width: 968
GlyphClass: 2
Flags: W
HStem: 0 141<121 461 620 940> 1186 20G<498.108 624>
VStem: 461 159<141 967>
LayerCount: 2
Fore
SplineSet
80 836 m 1,0,-1
 522 1206 l 1,1,-1
 624 1206 l 1,2,-1
 620 141 l 1,3,-1
 940 141 l 1,4,-1
 940 0 l 1,5,-1
 121 0 l 1,6,-1
 121 141 l 1,7,-1
 461 141 l 1,8,-1
 463 967 l 1,9,-1
 170 725 l 1,10,-1
 80 836 l 1,0,-1
EndSplineSet
EndChar

StartChar: two
Encoding: 50 50 21
Width: 1089
GlyphClass: 2
Flags: W
HStem: 0 141<284 805> 1098 139<320.212 654.216>
VStem: 743 174<735.355 1012.77>
LayerCount: 2
Fore
SplineSet
805 141 m 1,0,-1
 911 311 l 1,1,-1
 1028 250 l 1,2,-1
 876 0 l 1,3,-1
 118 0 l 1,4,-1
 84 90 l 1,5,6
 102 168 102 168 139.5 230.5 c 128,-1,7
 177 293 177 293 226.5 344 c 128,-1,8
 276 395 276 395 333.5 437.5 c 128,-1,9
 391 480 391 480 448 519 c 128,-1,10
 505 558 505 558 558 596.5 c 128,-1,11
 611 635 611 635 652 677 c 128,-1,12
 693 719 693 719 717.5 768.5 c 128,-1,13
 742 818 742 818 743 879 c 0,14,15
 744 916 744 916 731 954.5 c 128,-1,16
 718 993 718 993 688 1025 c 128,-1,17
 658 1057 658 1057 609 1077.5 c 128,-1,18
 560 1098 560 1098 489 1098 c 0,19,20
 426 1098 426 1098 376 1078.5 c 128,-1,21
 326 1059 326 1059 291 1036 c 0,22,23
 250 1009 250 1009 219 975 c 1,24,-1
 102 1085 l 1,25,26
 112 1096 l 2,27,28
 122 1108 122 1108 143 1124.5 c 128,-1,29
 164 1141 164 1141 196 1161 c 128,-1,30
 228 1181 228 1181 271 1197.5 c 128,-1,31
 314 1214 314 1214 368 1225.5 c 128,-1,32
 422 1237 422 1237 487 1237 c 0,33,34
 587 1237 587 1237 666.5 1210 c 128,-1,35
 746 1183 746 1183 801.5 1135 c 128,-1,36
 857 1087 857 1087 887 1021.5 c 128,-1,37
 917 956 917 956 917 879 c 0,38,39
 917 811 917 811 893 754 c 128,-1,40
 869 697 869 697 829.5 648.5 c 128,-1,41
 790 600 790 600 738 557.5 c 128,-1,42
 686 515 686 515 630.5 475.5 c 128,-1,43
 575 436 575 436 519.5 398 c 128,-1,44
 464 360 464 360 416.5 319.5 c 128,-1,45
 369 279 369 279 334 235.5 c 128,-1,46
 299 192 299 192 284 141 c 1,47,-1
 805 141 l 1,0,-1
EndSplineSet
EndChar

StartChar: three
Encoding: 51 51 22
Width: 1059
GlyphClass: 2
Flags: W
HStem: -31 142<295.395 676.717> 551 141<362 676.494> 1096 141<312.179 658.641>
VStem: 741 174<170.538 328.595 334.028 501.189 754.147 1019.34> 770 174<198.71 474.708>
LayerCount: 2
Fore
SplineSet
176 227 m 2,0,1
 177 227 177 227 200.5 209 c 128,-1,2
 224 191 224 191 266.5 169 c 128,-1,3
 309 147 309 147 369 129 c 128,-1,4
 429 111 429 111 503 111 c 0,5,6
 569 111 569 111 619 128 c 128,-1,7
 669 145 669 145 702.5 175 c 128,-1,8
 736 205 736 205 753 245 c 128,-1,9
 770 285 770 285 770 330 c 0,10,11
 770 387 770 387 754 426 c 128,-1,12
 738 465 738 465 711.5 489.5 c 128,-1,13
 685 514 685 514 651.5 526.5 c 128,-1,14
 618 539 618 539 583 544.5 c 128,-1,15
 548 550 548 550 515 550.5 c 128,-1,16
 482 551 482 551 456 551 c 2,17,-1
 362 551 l 1,18,-1
 362 692 l 1,19,-1
 501 692 l 2,20,21
 556 692 556 692 600.5 702.5 c 128,-1,22
 645 713 645 713 676.5 736.5 c 128,-1,23
 708 760 708 760 724.5 798 c 128,-1,24
 741 836 741 836 741 891 c 0,25,26
 741 952 741 952 717 991.5 c 128,-1,27
 693 1031 693 1031 656 1054 c 128,-1,28
 619 1077 619 1077 574.5 1086 c 128,-1,29
 530 1095 530 1095 489 1096 c 0,30,31
 427 1097 427 1097 378.5 1080 c 128,-1,32
 330 1063 330 1063 297 1042.5 c 128,-1,33
 264 1022 264 1022 246 1004 c 128,-1,34
 228 986 228 986 227 985 c 1,35,-1
 106 1096 l 1,36,37
 116 1107 l 2,38,39
 127 1118 127 1118 148 1133.5 c 128,-1,40
 169 1149 169 1149 200.5 1167 c 128,-1,41
 232 1185 232 1185 275 1200.5 c 128,-1,42
 318 1216 318 1216 372 1226.5 c 128,-1,43
 426 1237 426 1237 493 1237 c 0,44,45
 586 1237 586 1237 663.5 1212.5 c 128,-1,46
 741 1188 741 1188 797 1142.5 c 128,-1,47
 853 1097 853 1097 884 1033 c 128,-1,48
 915 969 915 969 915 891 c 0,49,50
 915 836 915 836 896.5 793 c 128,-1,51
 878 750 878 750 849 718 c 128,-1,52
 820 686 820 686 785 665 c 128,-1,53
 750 644 750 644 716 633 c 1,54,55
 756 625 756 625 796.5 601.5 c 128,-1,56
 837 578 837 578 870 540 c 128,-1,57
 903 502 903 502 923.5 449.5 c 128,-1,58
 944 397 944 397 944 332 c 0,59,60
 944 264 944 264 919.5 198.5 c 128,-1,61
 895 133 895 133 842 82 c 128,-1,62
 789 31 789 31 703.5 0 c 128,-1,63
 618 -31 618 -31 497 -31 c 0,64,65
 392 -31 392 -31 313 -9 c 128,-1,66
 234 13 234 13 180 40 c 0,67,68
 117 71 117 71 71 111 c 1,69,-1
 176 227 l 2,0,1
EndSplineSet
EndChar

StartChar: four
Encoding: 52 52 23
Width: 1083
GlyphClass: 2
Flags: W
HStem: 0 141<429 644 806 992> 338 139<228 644 806 1000>
VStem: 644 162<141 338 477 1028>
LayerCount: 2
Fore
SplineSet
806 338 m 1,0,-1
 806 141 l 1,1,-1
 992 141 l 1,2,-1
 992 0 l 1,3,-1
 429 0 l 1,4,-1
 429 141 l 1,5,-1
 644 141 l 1,6,-1
 644 338 l 1,7,-1
 52 338 l 1,8,-1
 50 414 l 1,9,-1
 439 1274 l 1,10,-1
 574 1198 l 1,11,12
 545 1138 545 1138 508.5 1061.5 c 128,-1,13
 472 985 472 985 433.5 905.5 c 128,-1,14
 395 826 395 826 358 749 c 128,-1,15
 321 672 321 672 292 612 c 128,-1,16
 263 552 263 552 245.5 515 c 128,-1,17
 228 478 228 478 228 477 c 1,18,-1
 644 477 l 1,19,-1
 644 1028 l 1,20,-1
 808 1028 l 1,21,-1
 806 477 l 1,22,-1
 1000 479 l 1,23,-1
 1000 338 l 1,24,-1
 806 338 l 1,0,-1
EndSplineSet
EndChar

StartChar: five
Encoding: 53 53 24
Width: 1027
GlyphClass: 2
Flags: W
HStem: -31 140<288.53 643.467> 31 176<203 270.258> 657 140<342.916 668.27> 1063 143<319 862>
VStem: 154 165<737 1063> 754 174<224.948 570.655>
LayerCount: 2
Fore
SplineSet
862 1206 m 1,0,-1
 862 1063 l 1,1,-1
 319 1063 l 1,2,-1
 319 737 l 1,3,4
 353 762 353 762 402.5 779.5 c 128,-1,5
 452 797 452 797 518 797 c 0,6,7
 594 797 594 797 653.5 780 c 128,-1,8
 713 763 713 763 759 734 c 128,-1,9
 805 705 805 705 837 667 c 128,-1,10
 869 629 869 629 889 586.5 c 128,-1,11
 909 544 909 544 918.5 500 c 128,-1,12
 928 456 928 456 928 416 c 0,13,14
 928 324 928 324 900 242.5 c 128,-1,15
 872 161 872 161 815.5 100 c 128,-1,16
 759 39 759 39 675 4 c 128,-1,17
 591 -31 591 -31 479 -31 c 0,18,19
 389 -31 389 -31 320 -11.5 c 128,-1,20
 251 8 251 8 203 31 c 0,21,22
 147 58 147 58 104 94 c 1,23,-1
 203 207 l 2,24,25
 204 207 204 207 223.5 191.5 c 128,-1,26
 243 176 243 176 279 158 c 128,-1,27
 315 140 315 140 367 124.5 c 128,-1,28
 419 109 419 109 485 109 c 0,29,30
 537 109 537 109 585.5 124.5 c 128,-1,31
 634 140 634 140 671.5 176 c 128,-1,32
 709 212 709 212 731.5 270 c 128,-1,33
 754 328 754 328 754 414 c 0,34,35
 754 481 754 481 733.5 527.5 c 128,-1,36
 713 574 713 574 680 603 c 128,-1,37
 647 632 647 632 604.5 644.5 c 128,-1,38
 562 657 562 657 518 657 c 0,39,40
 449 657 449 657 399.5 643 c 128,-1,41
 350 629 350 629 317 611 c 128,-1,42
 284 593 284 593 267.5 577.5 c 128,-1,43
 251 562 251 562 248 559 c 1,44,-1
 248 557 l 1,45,-1
 154 602 l 1,46,-1
 154 1206 l 1,47,-1
 862 1206 l 1,0,-1
EndSplineSet
EndChar

StartChar: six
Encoding: 54 54 25
Width: 1126
GlyphClass: 2
Flags: W
HStem: -31 140<428.303 752.96> 616 140<422.956 776.955> 1098 139<485.438 831.713>
VStem: 113 179<608 858.81> 861 168<216.616 529.191>
LayerCount: 2
Fore
SplineSet
660 1098 m 0,0,1
 589 1098 589 1098 534.5 1077 c 128,-1,2
 480 1056 480 1056 439.5 1019.5 c 128,-1,3
 399 983 399 983 371.5 935 c 128,-1,4
 344 887 344 887 327 832.5 c 128,-1,5
 310 778 310 778 301.5 720.5 c 128,-1,6
 293 663 293 663 292 608 c 1,7,8
 312 635 312 635 344 661.5 c 128,-1,9
 376 688 376 688 418 709 c 128,-1,10
 460 730 460 730 511 743 c 128,-1,11
 562 756 562 756 619 756 c 0,12,13
 697 756 697 756 770.5 738 c 128,-1,14
 844 720 844 720 901.5 675 c 128,-1,15
 959 630 959 630 994 554 c 128,-1,16
 1029 478 1029 478 1029 362 c 0,17,18
 1029 326 1029 326 1021 283 c 128,-1,19
 1013 240 1013 240 993.5 196.5 c 128,-1,20
 974 153 974 153 941.5 112 c 128,-1,21
 909 71 909 71 859.5 39 c 128,-1,22
 810 7 810 7 742 -12 c 128,-1,23
 674 -31 674 -31 584 -31 c 0,24,25
 465 -31 465 -31 376.5 11 c 128,-1,26
 288 53 288 53 229.5 134 c 128,-1,27
 171 215 171 215 142 332.5 c 128,-1,28
 113 450 113 450 113 600 c 0,29,30
 113 732 113 732 151 848 c 128,-1,31
 189 964 189 964 260 1050.5 c 128,-1,32
 331 1137 331 1137 431 1187 c 128,-1,33
 531 1237 531 1237 656 1237 c 0,34,35
 725 1237 725 1237 782.5 1222 c 128,-1,36
 840 1207 840 1207 882 1190 c 0,37,38
 931 1169 931 1169 971 1143 c 1,39,-1
 896 1024 l 2,40,41
 895 1023 895 1023 872.5 1034.5 c 128,-1,42
 850 1046 850 1046 815.5 1060 c 128,-1,43
 781 1074 781 1074 740 1086 c 128,-1,44
 699 1098 699 1098 660 1098 c 0,0,1
619 616 m 0,45,46
 562 616 562 616 511.5 606.5 c 128,-1,47
 461 597 461 597 419 578 c 128,-1,48
 377 559 377 559 345.5 532 c 128,-1,49
 314 505 314 505 296 471 c 1,50,51
 305 353 305 353 334 281.5 c 128,-1,52
 363 210 363 210 405 172 c 128,-1,53
 447 134 447 134 497.5 121.5 c 128,-1,54
 548 109 548 109 599 109 c 0,55,56
 666 109 666 109 715 132 c 128,-1,57
 764 155 764 155 796.5 191.5 c 128,-1,58
 829 228 829 228 845 273 c 128,-1,59
 861 318 861 318 861 362 c 0,60,61
 861 482 861 482 801.5 549 c 128,-1,62
 742 616 742 616 619 616 c 0,45,46
EndSplineSet
EndChar

StartChar: seven
Encoding: 55 55 26
Width: 937
GlyphClass: 2
Flags: W
HStem: 0 21G<309 504.5> 1065 141<210 739>
VStem: 309 192<0 234.649>
LayerCount: 2
Fore
SplineSet
40 969 m 1,0,-1
 85 1206 l 1,1,-1
 919 1206 l 1,2,-1
 919 1118 l 1,3,4
 806 973 806 973 729 821 c 128,-1,5
 652 669 652 669 603.5 523 c 128,-1,6
 555 377 555 377 531.5 243 c 128,-1,7
 508 109 508 109 501 0 c 1,8,-1
 309 0 l 1,9,10
 323 115 323 115 355 241.5 c 128,-1,11
 387 368 387 368 439 503 c 128,-1,12
 491 638 491 638 565.5 779.5 c 128,-1,13
 640 921 640 921 739 1065 c 1,14,-1
 210 1065 l 1,15,-1
 182 938 l 1,16,-1
 40 969 l 1,0,-1
EndSplineSet
EndChar

StartChar: eight
Encoding: 56 56 27
Width: 1088
GlyphClass: 2
Flags: W
HStem: -31 140<387.438 700.562> 553 131<392.223 695.777> 1098 139<393.142 695.622>
VStem: 118 176<199.852 470.596> 141 174<335.686 492.082 759.544 1021.59> 774 174<335.686 492.082 759.544 1021.59> 794 176<199.852 470.596>
LayerCount: 2
Fore
SplineSet
542 1237 m 0,0,1
 626 1237 626 1237 700 1214.5 c 128,-1,2
 774 1192 774 1192 829 1148 c 128,-1,3
 884 1104 884 1104 916 1039.5 c 128,-1,4
 948 975 948 975 948 891 c 0,5,6
 948 848 948 848 934.5 805.5 c 128,-1,7
 921 763 921 763 894.5 726.5 c 128,-1,8
 868 690 868 690 830 663 c 128,-1,9
 792 636 792 636 743 623 c 1,10,11
 792 615 792 615 833.5 589 c 128,-1,12
 875 563 875 563 905.5 524 c 128,-1,13
 936 485 936 485 953 436.5 c 128,-1,14
 970 388 970 388 970 334 c 0,15,16
 970 242 970 242 935 174 c 128,-1,17
 900 106 900 106 841 60 c 128,-1,18
 782 14 782 14 705 -8.5 c 128,-1,19
 628 -31 628 -31 544 -31 c 256,20,21
 460 -31 460 -31 383 -8.5 c 128,-1,22
 306 14 306 14 247 60 c 128,-1,23
 188 106 188 106 153 174 c 128,-1,24
 118 242 118 242 118 334 c 0,25,26
 118 388 118 388 135 436.5 c 128,-1,27
 152 485 152 485 182.5 524 c 128,-1,28
 213 563 213 563 255 589 c 128,-1,29
 297 615 297 615 346 623 c 1,30,31
 297 636 297 636 259 663 c 128,-1,32
 221 690 221 690 194.5 726.5 c 128,-1,33
 168 763 168 763 154.5 805.5 c 128,-1,34
 141 848 141 848 141 891 c 0,35,36
 141 975 141 975 173 1039.5 c 128,-1,37
 205 1104 205 1104 259.5 1148 c 128,-1,38
 314 1192 314 1192 387 1214.5 c 128,-1,39
 460 1237 460 1237 542 1237 c 0,0,1
544 109 m 256,40,41
 599 109 599 109 645 125.5 c 128,-1,42
 691 142 691 142 724 172 c 128,-1,43
 757 202 757 202 775.5 243.5 c 128,-1,44
 794 285 794 285 794 334 c 0,45,46
 794 380 794 380 778.5 420 c 128,-1,47
 763 460 763 460 732 489.5 c 128,-1,48
 701 519 701 519 654 536 c 128,-1,49
 607 553 607 553 544 553 c 256,50,51
 481 553 481 553 434 536 c 128,-1,52
 387 519 387 519 356 489.5 c 128,-1,53
 325 460 325 460 309.5 420 c 128,-1,54
 294 380 294 380 294 334 c 0,55,56
 294 285 294 285 312.5 243.5 c 128,-1,57
 331 202 331 202 364 172 c 128,-1,58
 397 142 397 142 443 125.5 c 128,-1,59
 489 109 489 109 544 109 c 256,40,41
544 684 m 0,60,61
 599 684 599 684 641.5 699.5 c 128,-1,62
 684 715 684 715 713.5 743 c 128,-1,63
 743 771 743 771 758.5 808.5 c 128,-1,64
 774 846 774 846 774 891 c 0,65,66
 774 935 774 935 758.5 973 c 128,-1,67
 743 1011 743 1011 713.5 1038.5 c 128,-1,68
 684 1066 684 1066 641.5 1082 c 128,-1,69
 599 1098 599 1098 544 1098 c 0,70,71
 490 1098 490 1098 447 1082 c 128,-1,72
 404 1066 404 1066 375 1038.5 c 128,-1,73
 346 1011 346 1011 330.5 973 c 128,-1,74
 315 935 315 935 315 891 c 0,75,76
 315 846 315 846 330.5 808.5 c 128,-1,77
 346 771 346 771 375 743 c 128,-1,78
 404 715 404 715 447 699.5 c 128,-1,79
 490 684 490 684 544 684 c 0,60,61
EndSplineSet
EndChar

StartChar: nine
Encoding: 57 57 28
Width: 1132
GlyphClass: 2
Flags: W
HStem: -31 140<298.724 674.657> 393 139<365.35 697.812> 1098 139<378.905 701.064>
VStem: 101 168<632.504 984.054>
LayerCount: 2
Fore
SplineSet
504 109 m 0,0,1
 571 109 571 109 621 127.5 c 128,-1,2
 671 146 671 146 707 177.5 c 128,-1,3
 743 209 743 209 766.5 252 c 128,-1,4
 790 295 790 295 805 344 c 128,-1,5
 820 393 820 393 826.5 445.5 c 128,-1,6
 833 498 833 498 836 549 c 1,7,8
 815 521 815 521 783 493.5 c 128,-1,9
 751 466 751 466 709.5 443.5 c 128,-1,10
 668 421 668 421 617.5 407 c 128,-1,11
 567 393 567 393 510 393 c 0,12,13
 432 393 432 393 358.5 413 c 128,-1,14
 285 433 285 433 228 482.5 c 128,-1,15
 171 532 171 532 136 616.5 c 128,-1,16
 101 701 101 701 101 829 c 0,17,18
 101 867 101 867 109 912 c 128,-1,19
 117 957 117 957 136 1002.5 c 128,-1,20
 155 1048 155 1048 188 1090 c 128,-1,21
 221 1132 221 1132 270 1165 c 128,-1,22
 319 1198 319 1198 387 1217.5 c 128,-1,23
 455 1237 455 1237 545 1237 c 0,24,25
 664 1237 664 1237 752.5 1195.5 c 128,-1,26
 841 1154 841 1154 899.5 1074 c 128,-1,27
 958 994 958 994 987 877.5 c 128,-1,28
 1016 761 1016 761 1016 610 c 0,29,30
 1016 479 1016 479 992 380 c 128,-1,31
 968 281 968 281 928 210 c 128,-1,32
 888 139 888 139 835 92.5 c 128,-1,33
 782 46 782 46 723.5 18.5 c 128,-1,34
 665 -9 665 -9 605 -20 c 128,-1,35
 545 -31 545 -31 490 -31 c 0,36,37
 415 -31 415 -31 354 -16.5 c 128,-1,38
 293 -2 293 -2 249 16 c 0,39,40
 198 36 198 36 158 63 c 1,41,-1
 234 182 l 2,42,43
 235 183 235 183 258 171.5 c 128,-1,44
 281 160 281 160 318.5 146 c 128,-1,45
 356 132 356 132 404.5 120.5 c 128,-1,46
 453 109 453 109 504 109 c 0,0,1
510 532 m 0,47,48
 639 532 639 532 720.5 580.5 c 128,-1,49
 802 629 802 629 836 705 c 1,50,51
 829 834 829 834 800 911.5 c 128,-1,52
 771 989 771 989 729 1030.5 c 128,-1,53
 687 1072 687 1072 635.5 1085 c 128,-1,54
 584 1098 584 1098 531 1098 c 0,55,56
 464 1098 464 1098 415 1074.5 c 128,-1,57
 366 1051 366 1051 333.5 1011.5 c 128,-1,58
 301 972 301 972 285 918.5 c 128,-1,59
 269 865 269 865 269 805 c 0,60,61
 269 749 269 749 283.5 699.5 c 128,-1,62
 298 650 298 650 328 613 c 128,-1,63
 358 576 358 576 403 554 c 128,-1,64
 448 532 448 532 510 532 c 0,47,48
EndSplineSet
EndChar

StartChar: colon
Encoding: 58 58 29
Width: 531
GlyphClass: 2
Flags: W
HStem: -31 254<169.871 360.816> 655 254<169.871 360.816>
VStem: 139 254<0.705933 190.652 686.706 876.652>
LayerCount: 2
Fore
SplineSet
393 96 m 0,0,1
 393 70 393 70 382.5 47 c 128,-1,2
 372 24 372 24 354.5 6.5 c 128,-1,3
 337 -11 337 -11 314 -21 c 128,-1,4
 291 -31 291 -31 266 -31 c 0,5,6
 240 -31 240 -31 216.5 -21 c 128,-1,7
 193 -11 193 -11 176 6.5 c 128,-1,8
 159 24 159 24 149 47 c 128,-1,9
 139 70 139 70 139 96 c 0,10,11
 139 121 139 121 149 144.5 c 128,-1,12
 159 168 159 168 176 185 c 128,-1,13
 193 202 193 202 216.5 212.5 c 128,-1,14
 240 223 240 223 266 223 c 0,15,16
 291 223 291 223 314 212.5 c 128,-1,17
 337 202 337 202 354.5 185 c 128,-1,18
 372 168 372 168 382.5 144.5 c 128,-1,19
 393 121 393 121 393 96 c 0,0,1
393 782 m 0,20,21
 393 756 393 756 382.5 733 c 128,-1,22
 372 710 372 710 354.5 692.5 c 128,-1,23
 337 675 337 675 314 665 c 128,-1,24
 291 655 291 655 266 655 c 0,25,26
 240 655 240 655 216.5 665 c 128,-1,27
 193 675 193 675 176 692.5 c 128,-1,28
 159 710 159 710 149 733 c 128,-1,29
 139 756 139 756 139 782 c 0,30,31
 139 807 139 807 149 830.5 c 128,-1,32
 159 854 159 854 176 871 c 128,-1,33
 193 888 193 888 216.5 898.5 c 128,-1,34
 240 909 240 909 266 909 c 0,35,36
 291 909 291 909 314 898.5 c 128,-1,37
 337 888 337 888 354.5 871 c 128,-1,38
 372 854 372 854 382.5 830.5 c 128,-1,39
 393 807 393 807 393 782 c 0,20,21
EndSplineSet
EndChar

StartChar: semicolon
Encoding: 59 59 30
Width: 554
GlyphClass: 2
Flags: W
HStem: 655 254<174.871 365.816>
VStem: 144 272<2.63123 184.755> 144 254<24 147.5 686.706 876.652>
LayerCount: 2
Fore
SplineSet
398 782 m 0,0,1
 398 756 398 756 387.5 733 c 128,-1,2
 377 710 377 710 359.5 692.5 c 128,-1,3
 342 675 342 675 319 665 c 128,-1,4
 296 655 296 655 271 655 c 0,5,6
 245 655 245 655 221.5 665 c 128,-1,7
 198 675 198 675 181 692.5 c 128,-1,8
 164 710 164 710 154 733 c 128,-1,9
 144 756 144 756 144 782 c 0,10,11
 144 807 144 807 154 830.5 c 128,-1,12
 164 854 164 854 181 871 c 128,-1,13
 198 888 198 888 221.5 898.5 c 128,-1,14
 245 909 245 909 271 909 c 0,15,16
 296 909 296 909 319 898.5 c 128,-1,17
 342 888 342 888 359.5 871 c 128,-1,18
 377 854 377 854 387.5 830.5 c 128,-1,19
 398 807 398 807 398 782 c 0,0,1
416 84 m 0,20,21
 416 54 416 54 408.5 24 c 128,-1,22
 401 -6 401 -6 388.5 -34.5 c 128,-1,23
 376 -63 376 -63 360 -90 c 128,-1,24
 344 -117 344 -117 327 -141 c 0,25,26
 287 -196 287 -196 236 -248 c 1,27,-1
 164 -186 l 1,28,29
 181 -160 181 -160 199 -132 c 1,30,31
 213 -108 213 -108 229.5 -79.5 c 128,-1,32
 246 -51 246 -51 258 -23 c 1,33,34
 240 -21 240 -21 221 -14.5 c 128,-1,35
 202 -8 202 -8 187 4 c 0,36,37
 167 21 167 21 155.5 44.5 c 128,-1,38
 144 68 144 68 144 96 c 256,39,40
 144 124 144 124 154 147.5 c 128,-1,41
 164 171 164 171 182 188 c 128,-1,42
 200 205 200 205 224 214 c 128,-1,43
 248 223 248 223 277 223 c 0,44,45
 304 223 304 223 329.5 212 c 128,-1,46
 355 201 355 201 374 182 c 128,-1,47
 393 163 393 163 404.5 137.5 c 128,-1,48
 416 112 416 112 416 84 c 0,20,21
EndSplineSet
EndChar

StartChar: less
Encoding: 60 60 31
Width: 1066
GlyphClass: 2
Flags: W
LayerCount: 2
Fore
SplineSet
887 143 m 1,0,-1
 68 582 l 1,1,-1
 68 707 l 1,2,-1
 866 1102 l 1,3,-1
 932 971 l 1,4,-1
 268 643 l 1,5,-1
 268 631 l 1,6,-1
 952 274 l 1,7,-1
 887 143 l 1,0,-1
EndSplineSet
EndChar

StartChar: equal
Encoding: 61 61 32
Width: 1054
GlyphClass: 2
Flags: W
HStem: 387 141<147 907> 711 141<147 907>
LayerCount: 2
Fore
SplineSet
147 852 m 1,0,-1
 907 852 l 1,1,-1
 907 711 l 1,2,-1
 147 711 l 1,3,-1
 147 852 l 1,0,-1
147 528 m 1,4,-1
 907 528 l 1,5,-1
 907 387 l 1,6,-1
 147 387 l 1,7,-1
 147 528 l 1,4,-1
EndSplineSet
EndChar

StartChar: greater
Encoding: 62 62 33
Width: 1060
GlyphClass: 2
Flags: W
LayerCount: 2
Fore
SplineSet
134 274 m 1,0,-1
 792 631 l 1,1,-1
 792 643 l 1,2,-1
 114 971 l 1,3,-1
 179 1102 l 1,4,-1
 992 707 l 1,5,-1
 992 582 l 1,6,-1
 200 143 l 1,7,-1
 134 274 l 1,0,-1
EndSplineSet
EndChar

StartChar: question
Encoding: 63 63 34
Width: 881
GlyphClass: 2
Flags: W
HStem: -31 254<327.871 519.146> 891 21G<68 206.023> 1098 137<230.005 584.91>
VStem: 266 156<453.413 593.083> 297 254<0.201172 191.146> 641 174<849.98 1044.94>
LayerCount: 2
Fore
SplineSet
68 905 m 1,0,-1
 102 1157 l 1,1,2
 133 1178 133 1178 181 1196 c 1,3,4
 222 1210 222 1210 285 1222.5 c 128,-1,5
 348 1235 348 1235 438 1235 c 0,6,7
 541 1235 541 1235 613 1206 c 128,-1,8
 685 1177 685 1177 730 1134.5 c 128,-1,9
 775 1092 775 1092 795 1043 c 128,-1,10
 815 994 815 994 815 954 c 0,11,12
 815 904 815 904 800.5 863 c 128,-1,13
 786 822 786 822 756.5 786 c 128,-1,14
 727 750 727 750 683.5 718 c 128,-1,15
 640 686 640 686 582 655 c 0,16,17
 551 638 551 638 522.5 624.5 c 128,-1,18
 494 611 494 611 471.5 596.5 c 128,-1,19
 449 582 449 582 435.5 566 c 128,-1,20
 422 550 422 550 422 528 c 0,21,22
 422 508 422 508 431.5 492 c 128,-1,23
 441 476 441 476 454.5 463.5 c 128,-1,24
 468 451 468 451 484 442 c 128,-1,25
 500 433 500 433 512 426 c 1,26,-1
 432 317 l 1,27,28
 431 318 431 318 418.5 324 c 128,-1,29
 406 330 406 330 387.5 342 c 128,-1,30
 369 354 369 354 347.5 372 c 128,-1,31
 326 390 326 390 308 414.5 c 128,-1,32
 290 439 290 439 278 471 c 128,-1,33
 266 503 266 503 266 543 c 0,34,35
 266 592 266 592 288.5 628.5 c 128,-1,36
 311 665 311 665 342 691 c 128,-1,37
 373 717 373 717 405.5 734.5 c 128,-1,38
 438 752 438 752 459 764 c 0,39,40
 493 783 493 783 525.5 800 c 128,-1,41
 558 817 558 817 583.5 838 c 128,-1,42
 609 859 609 859 625 887 c 128,-1,43
 641 915 641 915 641 956 c 0,44,45
 641 977 641 977 629.5 1002 c 128,-1,46
 618 1027 618 1027 593 1048 c 128,-1,47
 568 1069 568 1069 529.5 1083.5 c 128,-1,48
 491 1098 491 1098 436 1098 c 0,49,50
 362 1098 362 1098 311.5 1087.5 c 128,-1,51
 261 1077 261 1077 229 1063 c 1,52,-1
 203 891 l 1,53,-1
 68 905 l 1,0,-1
551 96 m 0,54,55
 551 70 551 70 540.5 47 c 128,-1,56
 530 24 530 24 513 6.5 c 128,-1,57
 496 -11 496 -11 472.5 -21 c 128,-1,58
 449 -31 449 -31 424 -31 c 0,59,60
 398 -31 398 -31 374.5 -21 c 128,-1,61
 351 -11 351 -11 334 6.5 c 128,-1,62
 317 24 317 24 307 47 c 128,-1,63
 297 70 297 70 297 96 c 0,64,65
 297 121 297 121 307 144.5 c 128,-1,66
 317 168 317 168 334 185 c 128,-1,67
 351 202 351 202 374.5 212.5 c 128,-1,68
 398 223 398 223 424 223 c 0,69,70
 449 223 449 223 472.5 212.5 c 128,-1,71
 496 202 496 202 513 185 c 128,-1,72
 530 168 530 168 540.5 144.5 c 128,-1,73
 551 121 551 121 551 96 c 0,54,55
EndSplineSet
EndChar

StartChar: at
Encoding: 64 64 35
Width: 1467
GlyphClass: 2
Flags: W
HStem: -217 127<510.193 954.557> 74 121<654.5 869.322 1010.4 1191.92> 627 121<653.262 878.562> 967 127<543.088 977.834>
VStem: 105 158<171.841 674.109> 449 156<245.667 576.332> 879 131<212.567 618.326> 1240 147<245.291 693.343>
LayerCount: 2
Fore
SplineSet
1010 231 m 1,0,1
 1020 213 1020 213 1043.5 198.5 c 128,-1,2
 1067 184 1067 184 1098 184 c 0,3,4
 1123 184 1123 184 1148 197 c 128,-1,5
 1173 210 1173 210 1193.5 241.5 c 128,-1,6
 1214 273 1214 273 1227 326.5 c 128,-1,7
 1240 380 1240 380 1240 461 c 0,8,9
 1240 519 1240 519 1229 579 c 128,-1,10
 1218 639 1218 639 1194.5 695 c 128,-1,11
 1171 751 1171 751 1133.5 800.5 c 128,-1,12
 1096 850 1096 850 1042 887 c 128,-1,13
 988 924 988 924 917 945.5 c 128,-1,14
 846 967 846 967 756 967 c 0,15,16
 652 967 652 967 562 930.5 c 128,-1,17
 472 894 472 894 405.5 825.5 c 128,-1,18
 339 757 339 757 301 658.5 c 128,-1,19
 263 560 263 560 263 436 c 0,20,21
 263 283 263 283 303 182 c 128,-1,22
 343 81 343 81 409.5 20.5 c 128,-1,23
 476 -40 476 -40 563 -65 c 128,-1,24
 650 -90 650 -90 744 -90 c 0,25,26
 792 -90 792 -90 838 -80 c 128,-1,27
 884 -70 884 -70 920 -58 c 0,28,29
 962 -44 962 -44 1000 -25 c 1,30,-1
 1068 -123 l 1,31,32
 1030 -150 1030 -150 981 -170 c 0,33,34
 939 -188 939 -188 878 -202.5 c 128,-1,35
 817 -217 817 -217 740 -217 c 0,36,37
 579 -217 579 -217 459.5 -166.5 c 128,-1,38
 340 -116 340 -116 261 -28.5 c 128,-1,39
 182 59 182 59 143.5 178.5 c 128,-1,40
 105 298 105 298 105 436 c 0,41,42
 105 507 105 507 121 583 c 128,-1,43
 137 659 137 659 170.5 732 c 128,-1,44
 204 805 204 805 256 871 c 128,-1,45
 308 937 308 937 380.5 986.5 c 128,-1,46
 453 1036 453 1036 546.5 1065 c 128,-1,47
 640 1094 640 1094 756 1094 c 0,48,49
 913 1094 913 1094 1031.5 1040.5 c 128,-1,50
 1150 987 1150 987 1229 899 c 128,-1,51
 1308 811 1308 811 1347.5 697 c 128,-1,52
 1387 583 1387 583 1387 463 c 0,53,54
 1387 368 1387 368 1361.5 293.5 c 128,-1,55
 1336 219 1336 219 1295 168 c 128,-1,56
 1254 117 1254 117 1201.5 90 c 128,-1,57
 1149 63 1149 63 1094 63 c 0,58,59
 1046 63 1046 63 1000.5 85.5 c 128,-1,60
 955 108 955 108 918 156 c 1,61,62
 900 133 900 133 874 115 c 0,63,64
 852 99 852 99 818.5 86.5 c 128,-1,65
 785 74 785 74 740 74 c 0,66,67
 686 74 686 74 633.5 92.5 c 128,-1,68
 581 111 581 111 540 151.5 c 128,-1,69
 499 192 499 192 474 256 c 128,-1,70
 449 320 449 320 449 412 c 0,71,72
 449 503 449 503 475 567 c 128,-1,73
 501 631 501 631 546 671 c 128,-1,74
 591 711 591 711 651 729.5 c 128,-1,75
 711 748 711 748 779 748 c 0,76,77
 825 748 825 748 867 736.5 c 128,-1,78
 909 725 909 725 941 711 c 0,79,80
 978 694 978 694 1010 674 c 1,81,-1
 1010 231 l 1,0,1
752 195 m 0,82,83
 789 195 789 195 814 204 c 128,-1,84
 839 213 839 213 853 224 c 0,85,86
 870 237 870 237 879 254 c 1,87,-1
 879 602 l 1,88,89
 865 609 865 609 848 614 c 0,90,91
 834 619 834 619 815 623 c 128,-1,92
 796 627 796 627 775 627 c 0,93,94
 688 627 688 627 646.5 575.5 c 128,-1,95
 605 524 605 524 605 410 c 0,96,97
 605 354 605 354 617 313 c 128,-1,98
 629 272 629 272 649 246 c 128,-1,99
 669 220 669 220 696 207.5 c 128,-1,100
 723 195 723 195 752 195 c 0,82,83
EndSplineSet
EndChar

StartChar: A
Encoding: 65 65 36
Width: 1326
GlyphClass: 2
Flags: W
HStem: 0 141<13 208 359 489 806 935 1109 1304> 328 141<480 822> 1065 141<341 548>
LayerCount: 2
Fore
SplineSet
1304 0 m 1,0,-1
 806 0 l 1,1,-1
 806 141 l 1,2,-1
 935 141 l 1,3,-1
 871 328 l 1,4,-1
 429 328 l 1,5,-1
 359 141 l 1,6,-1
 489 141 l 1,7,-1
 489 0 l 1,8,-1
 13 0 l 1,9,-1
 13 141 l 1,10,-1
 208 141 l 1,11,-1
 548 1065 l 1,12,-1
 341 1065 l 1,13,-1
 341 1206 l 1,14,-1
 740 1206 l 1,15,-1
 1109 141 l 1,16,-1
 1304 141 l 1,17,-1
 1304 0 l 1,0,-1
480 469 m 1,18,-1
 822 469 l 1,19,-1
 659 999 l 1,20,-1
 480 469 l 1,18,-1
EndSplineSet
EndChar

StartChar: B
Encoding: 66 66 37
Width: 1231
GlyphClass: 2
Flags: W
HStem: 0 143<98 293 455 863.426> 549 123<457 831.054> 1065 141<98 293 457 851.838>
VStem: 293 164<143 549 672 1065> 897 174<739.083 1021.51> 936 174<213.307 488.754>
LayerCount: 2
Fore
SplineSet
457 1065 m 1,0,-1
 457 672 l 1,1,-1
 713 672 l 2,2,3
 734 672 734 672 765.5 680.5 c 128,-1,4
 797 689 797 689 826.5 712.5 c 128,-1,5
 856 736 856 736 876.5 778.5 c 128,-1,6
 897 821 897 821 897 889 c 0,7,8
 897 956 897 956 876 991.5 c 128,-1,9
 855 1027 855 1027 820 1043.5 c 128,-1,10
 785 1060 785 1060 739 1062.5 c 128,-1,11
 693 1065 693 1065 643 1065 c 2,12,-1
 457 1065 l 1,0,-1
457 549 m 1,13,-1
 455 143 l 1,14,-1
 698 143 l 2,15,16
 811 143 811 143 873.5 195 c 128,-1,17
 936 247 936 247 936 356 c 0,18,19
 936 453 936 453 879 501 c 128,-1,20
 822 549 822 549 711 549 c 2,21,-1
 457 549 l 1,13,-1
620 1206 m 2,22,23
 736 1206 736 1206 821 1189 c 128,-1,24
 906 1172 906 1172 961.5 1134.5 c 128,-1,25
 1017 1097 1017 1097 1044 1037 c 128,-1,26
 1071 977 1071 977 1071 891 c 0,27,28
 1071 848 1071 848 1058 807 c 128,-1,29
 1045 766 1045 766 1024 730.5 c 128,-1,30
 1003 695 1003 695 977 667.5 c 128,-1,31
 951 640 951 640 926 623 c 1,32,33
 967 607 967 607 1001 579 c 128,-1,34
 1035 551 1035 551 1059 515.5 c 128,-1,35
 1083 480 1083 480 1096.5 439 c 128,-1,36
 1110 398 1110 398 1110 356 c 0,37,38
 1110 281 1110 281 1089.5 216 c 128,-1,39
 1069 151 1069 151 1024.5 103 c 128,-1,40
 980 55 980 55 911.5 27.5 c 128,-1,41
 843 0 843 0 747 0 c 2,42,-1
 98 0 l 1,43,-1
 98 141 l 1,44,-1
 293 141 l 1,45,-1
 293 1065 l 1,46,-1
 98 1065 l 1,47,-1
 98 1206 l 1,48,-1
 620 1206 l 2,22,23
EndSplineSet
EndChar

StartChar: C
Encoding: 67 67 38
Width: 1216
GlyphClass: 2
Flags: W
HStem: -31 140<496.825 930.465> 1098 139<498.704 921.958>
VStem: 110 174<347.872 858.13> 970 139<263.442 285.38 900.661 927.986>
LayerCount: 2
Fore
SplineSet
1109 283 m 1,0,-1
 1058 45 l 1,1,2
 1014 24 1014 24 958 7 c 0,3,4
 910 -7 910 -7 842.5 -19 c 128,-1,5
 775 -31 775 -31 692 -31 c 0,6,7
 560 -31 560 -31 452.5 13.5 c 128,-1,8
 345 58 345 58 269.5 140.5 c 128,-1,9
 194 223 194 223 152.5 340.5 c 128,-1,10
 111 458 111 458 110 604 c 0,11,12
 109 748 109 748 150 865.5 c 128,-1,13
 191 983 191 983 267 1065.5 c 128,-1,14
 343 1148 343 1148 450.5 1193 c 128,-1,15
 558 1238 558 1238 690 1237 c 0,16,17
 791 1236 791 1236 862.5 1221.5 c 128,-1,18
 934 1207 934 1207 979.5 1189 c 128,-1,19
 1025 1171 1025 1171 1046 1156.5 c 128,-1,20
 1067 1142 1067 1142 1068 1141 c 2,21,-1
 1113 903 l 1,22,-1
 972 872 l 1,23,-1
 931 1049 l 1,24,25
 900 1066 900 1066 841.5 1082 c 128,-1,26
 783 1098 783 1098 692 1098 c 0,27,28
 593 1098 593 1098 517 1063.5 c 128,-1,29
 441 1029 441 1029 389.5 965 c 128,-1,30
 338 901 338 901 311 809.5 c 128,-1,31
 284 718 284 718 284 604 c 0,32,33
 284 487 284 487 311.5 395.5 c 128,-1,34
 339 304 339 304 391.5 240 c 128,-1,35
 444 176 444 176 519.5 142.5 c 128,-1,36
 595 109 595 109 692 109 c 0,37,38
 768 109 768 109 830.5 123.5 c 128,-1,39
 893 138 893 138 931 152 c 1,40,-1
 970 315 l 1,41,-1
 1109 283 l 1,0,-1
EndSplineSet
EndChar

StartChar: D
Encoding: 68 68 39
Width: 1377
GlyphClass: 2
Flags: W
HStem: 0 141<98 293 457 867.273> 1065 141<98 293 457 902.624>
VStem: 293 164<141 1065> 1089 174<357.552 866.732>
LayerCount: 2
Fore
SplineSet
643 1206 m 2,0,1
 781 1206 781 1206 895.5 1175.5 c 128,-1,2
 1010 1145 1010 1145 1091.5 1073 c 128,-1,3
 1173 1001 1173 1001 1218 881.5 c 128,-1,4
 1263 762 1263 762 1263 584 c 0,5,6
 1263 449 1263 449 1216.5 340.5 c 128,-1,7
 1170 232 1170 232 1088.5 156.5 c 128,-1,8
 1007 81 1007 81 896.5 40.5 c 128,-1,9
 786 0 786 0 659 0 c 2,10,-1
 98 0 l 1,11,-1
 98 141 l 1,12,-1
 293 141 l 1,13,-1
 293 1065 l 1,14,-1
 98 1065 l 1,15,-1
 98 1206 l 1,16,-1
 643 1206 l 2,0,1
457 141 m 1,17,-1
 622 141 l 2,18,19
 854 141 854 141 971.5 253.5 c 128,-1,20
 1089 366 1089 366 1089 584 c 0,21,22
 1089 732 1089 732 1059.5 825.5 c 128,-1,23
 1030 919 1030 919 973.5 972.5 c 128,-1,24
 917 1026 917 1026 834 1045.5 c 128,-1,25
 751 1065 751 1065 643 1065 c 2,26,-1
 457 1065 l 1,27,-1
 457 141 l 1,17,-1
EndSplineSet
EndChar

StartChar: E
Encoding: 69 69 40
Width: 1240
GlyphClass: 2
Flags: W
HStem: 0 141<97 292 456 937> 553 141<458 841> 1065 141<99 294 458 896>
VStem: 294 164<141 553 694 1065>
LayerCount: 2
Fore
SplineSet
1154 315 m 1,0,-1
 1048 0 l 1,1,-1
 97 0 l 1,2,-1
 97 141 l 1,3,-1
 292 141 l 1,4,-1
 294 1065 l 1,5,-1
 99 1065 l 1,6,-1
 99 1206 l 1,7,-1
 1007 1206 l 1,8,-1
 1113 891 l 1,9,-1
 978 846 l 1,10,-1
 896 1065 l 1,11,-1
 458 1065 l 1,12,-1
 458 694 l 1,13,-1
 841 694 l 1,14,-1
 841 553 l 1,15,-1
 458 553 l 1,16,-1
 456 141 l 1,17,-1
 937 141 l 1,18,-1
 1019 360 l 1,19,-1
 1154 315 l 1,0,-1
EndSplineSet
EndChar

StartChar: F
Encoding: 70 70 41
Width: 1143
GlyphClass: 2
Flags: W
HStem: 0 141<97 292 454 704> 541 141<456 794> 1065 141<99 294 456 894>
VStem: 292 162<141 541 682 1065>
LayerCount: 2
Fore
SplineSet
976 846 m 1,0,-1
 894 1065 l 1,1,-1
 456 1065 l 1,2,-1
 456 682 l 1,3,-1
 794 682 l 1,4,-1
 794 541 l 1,5,-1
 454 541 l 1,6,-1
 454 141 l 1,7,-1
 704 141 l 1,8,-1
 704 0 l 1,9,-1
 97 0 l 1,10,-1
 97 141 l 1,11,-1
 292 141 l 1,12,-1
 294 1065 l 1,13,-1
 99 1065 l 1,14,-1
 99 1206 l 1,15,-1
 1005 1206 l 1,16,-1
 1111 891 l 1,17,-1
 976 846 l 1,0,-1
EndSplineSet
EndChar

StartChar: G
Encoding: 71 71 42
Width: 1249
GlyphClass: 2
Flags: W
HStem: -31 140<475.123 886.859> 453 141<694 956> 1098 139<476 921.047>
VStem: 110 174<330.739 874.551> 956 153<164.508 453>
LayerCount: 2
Fore
SplineSet
694 594 m 1,0,-1
 1109 594 l 1,1,-1
 1109 129 l 2,2,3
 1109 128 1109 128 1081.5 103 c 128,-1,4
 1054 78 1054 78 997.5 48 c 128,-1,5
 941 18 941 18 856 -6.5 c 128,-1,6
 771 -31 771 -31 657 -31 c 0,7,8
 553 -31 553 -31 454.5 7.5 c 128,-1,9
 356 46 356 46 279.5 125 c 128,-1,10
 203 204 203 204 156.5 323.5 c 128,-1,11
 110 443 110 443 110 604 c 0,12,13
 110 750 110 750 151.5 867 c 128,-1,14
 193 984 193 984 265.5 1066.5 c 128,-1,15
 338 1149 338 1149 438 1193 c 128,-1,16
 538 1237 538 1237 655 1237 c 0,17,18
 757 1237 757 1237 834.5 1222 c 128,-1,19
 912 1207 912 1207 966 1189 c 0,20,21
 1028 1168 1028 1168 1074 1141 c 1,22,-1
 1120 903 l 1,23,-1
 978 872 l 1,24,-1
 937 1047 l 1,25,26
 920 1054 920 1054 895 1063 c 128,-1,27
 870 1072 870 1072 835.5 1080 c 128,-1,28
 801 1088 801 1088 756.5 1093 c 128,-1,29
 712 1098 712 1098 657 1098 c 0,30,31
 568 1098 568 1098 499 1065.5 c 128,-1,32
 430 1033 430 1033 382 970 c 128,-1,33
 334 907 334 907 309 815 c 128,-1,34
 284 723 284 723 284 604 c 0,35,36
 284 470 284 470 313 375.5 c 128,-1,37
 342 281 342 281 392.5 222 c 128,-1,38
 443 163 443 163 511 136 c 128,-1,39
 579 109 579 109 657 109 c 0,40,41
 722 109 722 109 777 121 c 128,-1,42
 832 133 832 133 871.5 148 c 128,-1,43
 911 163 911 163 933.5 175.5 c 128,-1,44
 956 188 956 188 956 190 c 2,45,-1
 956 453 l 1,46,-1
 694 453 l 1,47,-1
 694 594 l 1,0,-1
EndSplineSet
EndChar

StartChar: H
Encoding: 72 72 43
Width: 1502
GlyphClass: 2
Flags: W
HStem: 0 141<97 292 454 585 915 1046 1207 1402> 547 141<456 1046> 1065 141<99 294 458 589 917 1048 1212 1406>
VStem: 292 164<141 547 688 1065> 1046 161<141 547 688 1065>
LayerCount: 2
Fore
SplineSet
915 141 m 1,0,-1
 1046 141 l 1,1,-1
 1046 547 l 1,2,-1
 456 547 l 1,3,-1
 454 141 l 1,4,-1
 585 141 l 1,5,-1
 585 0 l 1,6,-1
 97 0 l 1,7,-1
 97 141 l 1,8,-1
 292 141 l 1,9,-1
 294 1065 l 1,10,-1
 99 1065 l 1,11,-1
 99 1206 l 1,12,-1
 589 1206 l 1,13,-1
 589 1065 l 1,14,-1
 458 1065 l 1,15,-1
 456 688 l 1,16,-1
 1046 688 l 1,17,-1
 1048 1065 l 1,18,-1
 917 1065 l 1,19,-1
 917 1206 l 1,20,-1
 1406 1206 l 1,21,-1
 1406 1065 l 1,22,-1
 1212 1065 l 1,23,-1
 1207 141 l 1,24,-1
 1402 141 l 1,25,-1
 1402 0 l 1,26,-1
 915 0 l 1,27,-1
 915 141 l 1,0,-1
EndSplineSet
EndChar

StartChar: I
Encoding: 73 73 44
Width: 750
GlyphClass: 2
Flags: W
HStem: 0 141<97 294 456 652> 1065 141<99 294 460 652>
VStem: 294 162<141 1065>
LayerCount: 2
Fore
SplineSet
99 1206 m 1,0,-1
 652 1206 l 1,1,-1
 652 1065 l 1,2,-1
 460 1065 l 1,3,-1
 456 141 l 1,4,-1
 652 141 l 1,5,-1
 652 0 l 1,6,-1
 97 0 l 1,7,-1
 97 141 l 1,8,-1
 294 141 l 1,9,-1
 294 1065 l 1,10,-1
 99 1065 l 1,11,-1
 99 1206 l 1,0,-1
EndSplineSet
EndChar

StartChar: J
Encoding: 74 74 45
Width: 985
GlyphClass: 2
Flags: W
HStem: -31 140<222.971 495.124> 1065 141<339 569 733 925>
VStem: 567 162<181.059 1065>
LayerCount: 2
Fore
SplineSet
339 1206 m 1,0,-1
 925 1206 l 1,1,-1
 925 1065 l 1,2,-1
 733 1065 l 1,3,-1
 729 504 l 1,4,5
 727 404 727 404 724 326 c 128,-1,6
 721 248 721 248 704 188 c 0,7,8
 688 132 688 132 653.5 91 c 128,-1,9
 619 50 619 50 573 23 c 128,-1,10
 527 -4 527 -4 471.5 -17.5 c 128,-1,11
 416 -31 416 -31 358 -31 c 0,12,13
 297 -31 297 -31 248 -18.5 c 128,-1,14
 199 -6 199 -6 164.5 9 c 128,-1,15
 130 24 130 24 111.5 37 c 128,-1,16
 93 50 93 50 92 51 c 2,17,-1
 40 289 l 1,18,-1
 180 322 l 1,19,-1
 223 139 l 2,20,21
 222 140 222 140 232 135.5 c 128,-1,22
 242 131 242 131 259.5 125.5 c 128,-1,23
 277 120 277 120 300.5 115 c 128,-1,24
 324 110 324 110 350 109 c 0,25,26
 377 108 377 108 407.5 114 c 128,-1,27
 438 120 438 120 465 134 c 128,-1,28
 492 148 492 148 513.5 170.5 c 128,-1,29
 535 193 535 193 546 225 c 0,30,31
 563 273 563 273 565 342.5 c 128,-1,32
 567 412 567 412 567 508 c 2,33,-1
 569 1065 l 1,34,-1
 339 1065 l 1,35,-1
 339 1206 l 1,0,-1
EndSplineSet
EndChar

StartChar: K
Encoding: 75 75 46
Width: 1369
GlyphClass: 2
Flags: W
HStem: 0 141<98 291 455 584 774 922 1120 1325> 539 141<453 633> 1065 141<98 291 453 584 774 916 1092 1278>
VStem: 291 162<141 539 680 1065>
LayerCount: 2
Fore
SplineSet
774 141 m 1,0,-1
 922 141 l 1,1,-1
 658 539 l 1,2,-1
 453 539 l 1,3,-1
 455 141 l 1,4,-1
 584 141 l 1,5,-1
 584 0 l 1,6,-1
 98 0 l 1,7,-1
 98 141 l 1,8,-1
 291 141 l 1,9,-1
 291 1065 l 1,10,-1
 98 1065 l 1,11,-1
 98 1206 l 1,12,-1
 584 1206 l 1,13,-1
 584 1065 l 1,14,-1
 453 1065 l 1,15,-1
 453 680 l 1,16,-1
 633 680 l 1,17,-1
 916 1065 l 1,18,-1
 774 1065 l 1,19,-1
 774 1206 l 1,20,-1
 1278 1206 l 1,21,-1
 1278 1065 l 1,22,-1
 1092 1065 l 1,23,-1
 782 645 l 1,24,-1
 1120 141 l 1,25,-1
 1325 141 l 1,26,-1
 1325 0 l 1,27,-1
 774 0 l 1,28,-1
 774 141 l 1,0,-1
EndSplineSet
EndChar

StartChar: L
Encoding: 76 76 47
Width: 1128
GlyphClass: 2
Flags: W
HStem: 0 141<97 329 491 878> 1065 141<97 331 495 728>
VStem: 329 162<141 1065>
LayerCount: 2
Fore
SplineSet
1093 313 m 1,0,-1
 986 0 l 1,1,-1
 97 0 l 1,2,-1
 97 141 l 1,3,-1
 329 141 l 1,4,-1
 331 1065 l 1,5,-1
 97 1065 l 1,6,-1
 97 1206 l 1,7,-1
 728 1206 l 1,8,-1
 728 1065 l 1,9,-1
 495 1065 l 1,10,-1
 491 141 l 1,11,-1
 878 141 l 1,12,-1
 958 358 l 1,13,-1
 1093 313 l 1,0,-1
EndSplineSet
EndChar

StartChar: M
Encoding: 77 77 48
Width: 1774
GlyphClass: 2
Flags: W
HStem: 0 141<95 290 439 573 1187 1318 1482 1676> 1065 141<102 292 1482 1676>
VStem: 290 149<141 1065> 1318 164<141 1065>
LayerCount: 2
Fore
SplineSet
800 145 m 1,0,-1
 538 803 l 1,1,-1
 444 1065 l 1,2,-1
 439 141 l 1,3,-1
 573 141 l 1,4,-1
 573 0 l 1,5,-1
 95 0 l 1,6,-1
 95 141 l 1,7,-1
 290 141 l 1,8,-1
 292 1065 l 1,9,-1
 102 1065 l 1,10,-1
 102 1206 l 1,11,-1
 556 1206 l 1,12,-1
 900 328 l 1,13,-1
 1240 1206 l 1,14,-1
 1676 1206 l 1,15,-1
 1676 1065 l 1,16,-1
 1482 1065 l 1,17,-1
 1482 141 l 1,18,-1
 1676 141 l 1,19,-1
 1676 0 l 1,20,-1
 1187 0 l 1,21,-1
 1187 141 l 1,22,-1
 1318 141 l 1,23,-1
 1318 1065 l 1,24,-1
 1224 799 l 1,25,-1
 974 145 l 1,26,-1
 800 145 l 1,0,-1
EndSplineSet
EndChar

StartChar: N
Encoding: 78 78 49
Width: 1507
GlyphClass: 2
Flags: W
HStem: 0 141<97 292 458 630> 1065 141<99 290 902 1074 1238 1435>
VStem: 292 166<141 1065> 1074 164<250 1065>
LayerCount: 2
Fore
SplineSet
902 1206 m 1,0,-1
 1435 1206 l 1,1,-1
 1435 1065 l 1,2,-1
 1238 1065 l 1,3,-1
 1238 0 l 1,4,-1
 1037 0 l 1,5,-1
 454 1065 l 1,6,-1
 458 141 l 1,7,-1
 630 141 l 1,8,-1
 630 0 l 1,9,-1
 97 0 l 1,10,-1
 97 141 l 1,11,-1
 292 141 l 1,12,-1
 290 1065 l 1,13,-1
 99 1065 l 1,14,-1
 99 1206 l 1,15,-1
 550 1206 l 1,16,-1
 1074 250 l 1,17,-1
 1074 1065 l 1,18,-1
 902 1065 l 1,19,-1
 902 1206 l 1,0,-1
EndSplineSet
EndChar

StartChar: O
Encoding: 79 79 50
Width: 1342
GlyphClass: 2
Flags: W
HStem: -31 140<478.749 862.049> 1098 139<479.585 862.73>
VStem: 110 174<333.238 874.464> 1058 174<333.238 874.464>
LayerCount: 2
Fore
SplineSet
671 1098 m 0,0,1
 573 1098 573 1098 500.5 1064.5 c 128,-1,2
 428 1031 428 1031 380 967.5 c 128,-1,3
 332 904 332 904 308 812.5 c 128,-1,4
 284 721 284 721 284 604 c 256,5,6
 284 487 284 487 308 395.5 c 128,-1,7
 332 304 332 304 380 240 c 128,-1,8
 428 176 428 176 500.5 142.5 c 128,-1,9
 573 109 573 109 671 109 c 0,10,11
 768 109 768 109 841 142.5 c 128,-1,12
 914 176 914 176 962 240 c 128,-1,13
 1010 304 1010 304 1034 395.5 c 128,-1,14
 1058 487 1058 487 1058 604 c 256,15,16
 1058 721 1058 721 1034 812.5 c 128,-1,17
 1010 904 1010 904 962 967.5 c 128,-1,18
 914 1031 914 1031 841 1064.5 c 128,-1,19
 768 1098 768 1098 671 1098 c 0,0,1
671 -31 m 0,20,21
 546 -31 546 -31 443 13.5 c 128,-1,22
 340 58 340 58 266 140.5 c 128,-1,23
 192 223 192 223 151 340.5 c 128,-1,24
 110 458 110 458 110 604 c 256,25,26
 110 750 110 750 150.5 867 c 128,-1,27
 191 984 191 984 265 1066.5 c 128,-1,28
 339 1149 339 1149 441.5 1193 c 128,-1,29
 544 1237 544 1237 669 1237 c 0,30,31
 795 1237 795 1237 898.5 1193 c 128,-1,32
 1002 1149 1002 1149 1076.5 1066.5 c 128,-1,33
 1151 984 1151 984 1191.5 867 c 128,-1,34
 1232 750 1232 750 1232 604 c 256,35,36
 1232 458 1232 458 1191.5 340.5 c 128,-1,37
 1151 223 1151 223 1077.5 140.5 c 128,-1,38
 1004 58 1004 58 900.5 13.5 c 128,-1,39
 797 -31 797 -31 671 -31 c 0,20,21
EndSplineSet
EndChar

StartChar: P
Encoding: 80 80 51
Width: 1165
GlyphClass: 2
Flags: W
HStem: 0 141<98 289 453 698> 446 144<455 819.643> 1065 141<98 289 455 851.983>
VStem: 289 166<141 446 590 1065> 918 174<684.991 1000.31>
LayerCount: 2
Fore
SplineSet
98 141 m 1,0,-1
 289 141 l 1,1,-1
 289 1065 l 1,2,-1
 98 1065 l 1,3,-1
 98 1206 l 1,4,-1
 641 1206 l 2,5,6
 766 1206 766 1206 852 1183.5 c 128,-1,7
 938 1161 938 1161 991.5 1115.5 c 128,-1,8
 1045 1070 1045 1070 1068.5 1000.5 c 128,-1,9
 1092 931 1092 931 1092 838 c 0,10,11
 1092 748 1092 748 1062 675.5 c 128,-1,12
 1032 603 1032 603 978 552 c 128,-1,13
 924 501 924 501 848.5 473.5 c 128,-1,14
 773 446 773 446 682 446 c 2,15,-1
 453 446 l 1,16,-1
 453 141 l 1,17,-1
 698 141 l 1,18,-1
 698 0 l 1,19,-1
 98 0 l 1,20,-1
 98 141 l 1,0,-1
455 590 m 1,21,-1
 643 590 l 2,22,23
 686 590 686 590 734.5 600 c 128,-1,24
 783 610 783 610 823.5 637 c 128,-1,25
 864 664 864 664 891 712 c 128,-1,26
 918 760 918 760 918 836 c 0,27,28
 918 911 918 911 899.5 956 c 128,-1,29
 881 1001 881 1001 846 1025.5 c 128,-1,30
 811 1050 811 1050 758.5 1057.5 c 128,-1,31
 706 1065 706 1065 639 1065 c 2,32,-1
 455 1065 l 1,33,-1
 455 590 l 1,21,-1
EndSplineSet
EndChar

StartChar: Q
Encoding: 81 81 52
Width: 1344
GlyphClass: 2
Flags: W
HStem: -31 140<478.749 862.658> 1098 139<479.585 862.73>
VStem: 110 174<333.238 874.464> 1058 174<333.303 874.464>
LayerCount: 2
Fore
SplineSet
671 -31 m 0,0,1
 546 -31 546 -31 443 13.5 c 128,-1,2
 340 58 340 58 266 140.5 c 128,-1,3
 192 223 192 223 151 340.5 c 128,-1,4
 110 458 110 458 110 604 c 256,5,6
 110 750 110 750 150.5 867 c 128,-1,7
 191 984 191 984 265 1066.5 c 128,-1,8
 339 1149 339 1149 441.5 1193 c 128,-1,9
 544 1237 544 1237 669 1237 c 0,10,11
 795 1237 795 1237 898.5 1193 c 128,-1,12
 1002 1149 1002 1149 1076.5 1066.5 c 128,-1,13
 1151 984 1151 984 1191.5 867 c 128,-1,14
 1232 750 1232 750 1232 604 c 0,15,16
 1232 455 1232 455 1190 337 c 128,-1,17
 1148 219 1148 219 1070 135 c 1,18,-1
 1343 -27 l 1,19,-1
 1234 -162 l 1,20,-1
 978 55 l 1,21,22
 913 13 913 13 836 -9 c 128,-1,23
 759 -31 759 -31 671 -31 c 0,0,1
671 1098 m 0,24,25
 573 1098 573 1098 500.5 1064.5 c 128,-1,26
 428 1031 428 1031 380 967.5 c 128,-1,27
 332 904 332 904 308 812.5 c 128,-1,28
 284 721 284 721 284 604 c 256,29,30
 284 487 284 487 308 395.5 c 128,-1,31
 332 304 332 304 380 240 c 128,-1,32
 428 176 428 176 500.5 142.5 c 128,-1,33
 573 109 573 109 671 109 c 0,34,35
 768 109 768 109 841 142.5 c 128,-1,36
 914 176 914 176 962 240 c 128,-1,37
 1010 304 1010 304 1034 395.5 c 128,-1,38
 1058 487 1058 487 1058 604 c 256,39,40
 1058 721 1058 721 1034 812.5 c 128,-1,41
 1010 904 1010 904 962 967.5 c 128,-1,42
 914 1031 914 1031 841 1064.5 c 128,-1,43
 768 1098 768 1098 671 1098 c 0,24,25
EndSplineSet
EndChar

StartChar: R
Encoding: 82 82 53
Width: 1279
GlyphClass: 2
Flags: W
HStem: 0 141<98 289 452 584 1038 1225> 473 143<457 661> 1065 141<98 289 455 848.242>
VStem: 289 163<141 473 616 1065> 909 174<691.536 1003.33>
LayerCount: 2
Fore
SplineSet
1225 0 m 1,0,-1
 919 0 l 1,1,-1
 661 473 l 1,2,-1
 452 473 l 1,3,-1
 452 141 l 1,4,-1
 584 141 l 1,5,-1
 584 0 l 1,6,-1
 98 0 l 1,7,-1
 98 141 l 1,8,-1
 289 141 l 1,9,-1
 289 1065 l 1,10,-1
 98 1065 l 1,11,-1
 98 1206 l 1,12,-1
 641 1206 l 2,13,14
 766 1206 766 1206 851 1184.5 c 128,-1,15
 936 1163 936 1163 987.5 1117.5 c 128,-1,16
 1039 1072 1039 1072 1061 1000.5 c 128,-1,17
 1083 929 1083 929 1083 829 c 0,18,19
 1083 763 1083 763 1065.5 708.5 c 128,-1,20
 1048 654 1048 654 1015.5 611.5 c 128,-1,21
 983 569 983 569 937 539.5 c 128,-1,22
 891 510 891 510 835 494 c 1,23,-1
 1038 141 l 1,24,-1
 1225 141 l 1,25,-1
 1225 0 l 1,0,-1
909 827 m 0,26,27
 909 908 909 908 891.5 955 c 128,-1,28
 874 1002 874 1002 840 1026.5 c 128,-1,29
 806 1051 806 1051 755.5 1058 c 128,-1,30
 705 1065 705 1065 639 1065 c 2,31,-1
 455 1065 l 1,32,-1
 457 616 l 1,33,-1
 645 616 l 2,34,35
 686 616 686 616 732.5 623 c 128,-1,36
 779 630 779 630 818 652.5 c 128,-1,37
 857 675 857 675 883 716.5 c 128,-1,38
 909 758 909 758 909 827 c 0,26,27
EndSplineSet
EndChar

StartChar: S
Encoding: 83 83 54
Width: 1131
GlyphClass: 2
Flags: W
HStem: -31 140<303.723 758.557> 893 21G<850.707 989> 1100 137<375.992 825.682>
VStem: 133 164<791.626 1027.33> 858 164<197.686 458.474>
LayerCount: 2
Fore
SplineSet
858 330 m 0,0,1
 858 363 858 363 851 393.5 c 128,-1,2
 844 424 844 424 822 449.5 c 128,-1,3
 800 475 800 475 759 494 c 128,-1,4
 718 513 718 513 651 522 c 2,5,-1
 496 543 l 2,6,7
 400 555 400 555 331.5 588 c 128,-1,8
 263 621 263 621 218.5 670 c 128,-1,9
 174 719 174 719 153.5 780.5 c 128,-1,10
 133 842 133 842 133 911 c 0,11,12
 133 975 133 975 159 1034 c 128,-1,13
 185 1093 185 1093 238.5 1138 c 128,-1,14
 292 1183 292 1183 373 1210 c 128,-1,15
 454 1237 454 1237 565 1237 c 0,16,17
 656 1237 656 1237 726.5 1225 c 128,-1,18
 797 1213 797 1213 845.5 1198.5 c 128,-1,19
 894 1184 894 1184 921.5 1171 c 128,-1,20
 949 1158 949 1158 954 1157 c 1,21,-1
 989 907 l 1,22,-1
 854 893 l 1,23,-1
 827 1057 l 1,24,25
 785 1072 785 1072 720 1086 c 128,-1,26
 655 1100 655 1100 567 1100 c 0,27,28
 506 1100 506 1100 456.5 1088 c 128,-1,29
 407 1076 407 1076 371.5 1052.5 c 128,-1,30
 336 1029 336 1029 316.5 994.5 c 128,-1,31
 297 960 297 960 297 915 c 0,32,33
 297 829 297 829 351 782 c 128,-1,34
 405 735 405 735 496 721 c 2,35,-1
 682 692 l 2,36,37
 784 677 784 677 850 643.5 c 128,-1,38
 916 610 916 610 954 565 c 128,-1,39
 992 520 992 520 1007 465 c 128,-1,40
 1022 410 1022 410 1022 352 c 0,41,42
 1022 249 1022 249 989 176.5 c 128,-1,43
 956 104 956 104 897 58 c 128,-1,44
 838 12 838 12 756 -9.5 c 128,-1,45
 674 -31 674 -31 575 -31 c 0,46,47
 492 -31 492 -31 416 -17 c 128,-1,48
 340 -3 340 -3 281 13.5 c 128,-1,49
 222 30 222 30 185 44.5 c 128,-1,50
 148 59 148 59 143 61 c 1,51,-1
 104 289 l 1,52,-1
 240 311 l 1,53,-1
 266 166 l 1,54,55
 297 155 297 155 332.5 145 c 128,-1,56
 368 135 368 135 405 127 c 128,-1,57
 442 119 442 119 479 114 c 128,-1,58
 516 109 516 109 549 109 c 0,59,60
 613 109 613 109 669 120.5 c 128,-1,61
 725 132 725 132 767 158 c 128,-1,62
 809 184 809 184 833.5 226 c 128,-1,63
 858 268 858 268 858 330 c 0,0,1
EndSplineSet
EndChar

StartChar: T
Encoding: 84 84 55
Width: 1196
GlyphClass: 2
Flags: W
HStem: 0 141<319 514 678 872> 870 336<71 227 971 1126> 1065 141<227 516 682 971>
VStem: 71 156<870 1065> 514 164<141 1065> 971 155<870 1065>
LayerCount: 2
Fore
SplineSet
971 870 m 1,0,-1
 971 1065 l 1,1,-1
 682 1065 l 1,2,-1
 678 141 l 1,3,-1
 872 141 l 1,4,-1
 872 0 l 1,5,-1
 319 0 l 1,6,-1
 319 141 l 1,7,-1
 514 141 l 1,8,-1
 516 1065 l 1,9,-1
 227 1065 l 1,10,-1
 227 870 l 1,11,-1
 71 870 l 1,12,-1
 71 1206 l 1,13,-1
 1126 1206 l 1,14,-1
 1126 870 l 1,15,-1
 971 870 l 1,0,-1
EndSplineSet
EndChar

StartChar: U
Encoding: 85 85 56
Width: 1379
GlyphClass: 2
Flags: W
HStem: -31 140<513.891 849.793> 1065 141<51 248 412 543 838 969 1133 1329>
VStem: 248 164<221.5 1065> 969 164<241.265 1065>
LayerCount: 2
Fore
SplineSet
680 109 m 0,0,1
 762 109 762 109 817.5 135 c 128,-1,2
 873 161 873 161 906.5 210 c 128,-1,3
 940 259 940 259 954.5 329 c 128,-1,4
 969 399 969 399 969 487 c 2,5,-1
 969 1065 l 1,6,-1
 838 1065 l 1,7,-1
 838 1206 l 1,8,-1
 1329 1206 l 1,9,-1
 1329 1065 l 1,10,-1
 1133 1065 l 1,11,-1
 1133 481 l 2,12,13
 1133 375 1133 375 1114.5 295.5 c 128,-1,14
 1096 216 1096 216 1064 159 c 128,-1,15
 1032 102 1032 102 988.5 65 c 128,-1,16
 945 28 945 28 894.5 7 c 128,-1,17
 844 -14 844 -14 789.5 -22.5 c 128,-1,18
 735 -31 735 -31 680 -31 c 0,19,20
 627 -31 627 -31 574.5 -22.5 c 128,-1,21
 522 -14 522 -14 474 7 c 128,-1,22
 426 28 426 28 385 65 c 128,-1,23
 344 102 344 102 313.5 159 c 128,-1,24
 283 216 283 216 265.5 295 c 128,-1,25
 248 374 248 374 248 481 c 2,26,-1
 248 1065 l 1,27,-1
 51 1065 l 1,28,-1
 51 1206 l 1,29,-1
 543 1206 l 1,30,-1
 543 1065 l 1,31,-1
 412 1065 l 1,32,-1
 412 467 l 2,33,34
 412 378 412 378 425.5 311 c 128,-1,35
 439 244 439 244 470 199 c 128,-1,36
 501 154 501 154 552.5 131.5 c 128,-1,37
 604 109 604 109 680 109 c 0,0,1
EndSplineSet
EndChar

StartChar: V
Encoding: 86 86 57
Width: 1359
GlyphClass: 2
Flags: W
HStem: 0 21G<596.469 784.779> 1065 141<8 203 379 510 866 998 1139 1333>
LayerCount: 2
Fore
SplineSet
8 1206 m 1,0,-1
 510 1206 l 1,1,-1
 510 1065 l 1,2,-1
 379 1065 l 1,3,-1
 590 504 l 1,4,-1
 699 182 l 1,5,-1
 795 487 l 1,6,-1
 998 1065 l 1,7,-1
 866 1065 l 1,8,-1
 866 1206 l 1,9,-1
 1333 1206 l 1,10,-1
 1333 1065 l 1,11,-1
 1139 1065 l 1,12,-1
 778 0 l 1,13,-1
 604 0 l 1,14,-1
 203 1065 l 1,15,-1
 8 1065 l 1,16,-1
 8 1206 l 1,0,-1
EndSplineSet
EndChar

StartChar: W
Encoding: 87 87 58
Width: 1899
GlyphClass: 2
Flags: W
HStem: 0 21G<560.239 742.323 1151.74 1352.31> 1065 141<12 207 379 510 1407 1538 1682 1876>
LayerCount: 2
Fore
SplineSet
12 1206 m 1,0,-1
 510 1206 l 1,1,-1
 510 1065 l 1,2,-1
 379 1065 l 1,3,-1
 571 485 l 1,4,-1
 660 186 l 1,5,-1
 723 475 l 1,6,-1
 870 1053 l 1,7,-1
 1051 1053 l 1,8,-1
 1194 487 l 1,9,-1
 1260 188 l 1,10,-1
 1348 487 l 1,11,-1
 1538 1065 l 1,12,-1
 1407 1065 l 1,13,-1
 1407 1206 l 1,14,-1
 1876 1206 l 1,15,-1
 1876 1065 l 1,16,-1
 1682 1065 l 1,17,-1
 1346 0 l 1,18,-1
 1157 0 l 1,19,-1
 1012 551 l 1,20,-1
 946 827 l 1,21,-1
 881 541 l 1,22,-1
 737 0 l 1,23,-1
 567 0 l 1,24,-1
 207 1065 l 1,25,-1
 12 1065 l 1,26,-1
 12 1206 l 1,0,-1
EndSplineSet
EndChar

StartChar: X
Encoding: 88 88 59
Width: 1407
GlyphClass: 2
Flags: W
HStem: 0 141<67 242 418 569 823 975 1184 1358> 1065 141<65 239 450 581 809 950 1126 1321>
LayerCount: 2
Fore
SplineSet
65 1206 m 1,0,-1
 581 1206 l 1,1,-1
 581 1065 l 1,2,-1
 450 1065 l 1,3,-1
 708 739 l 1,4,-1
 950 1065 l 1,5,-1
 809 1065 l 1,6,-1
 809 1206 l 1,7,-1
 1321 1206 l 1,8,-1
 1321 1065 l 1,9,-1
 1126 1065 l 1,10,-1
 801 625 l 1,11,-1
 1184 141 l 1,12,-1
 1358 141 l 1,13,-1
 1358 0 l 1,14,-1
 823 0 l 1,15,-1
 823 141 l 1,16,-1
 975 141 l 1,17,-1
 686 502 l 1,18,-1
 418 141 l 1,19,-1
 569 141 l 1,20,-1
 569 0 l 1,21,-1
 67 0 l 1,22,-1
 67 141 l 1,23,-1
 242 141 l 1,24,-1
 596 616 l 1,25,-1
 239 1065 l 1,26,-1
 65 1065 l 1,27,-1
 65 1206 l 1,0,-1
EndSplineSet
EndChar

StartChar: Y
Encoding: 89 89 60
Width: 1357
GlyphClass: 2
Flags: W
HStem: 0 141<405 598 760 952> 1065 141<22 194 403 512 854 967 1143 1339>
VStem: 598 162<141 561>
LayerCount: 2
Fore
SplineSet
22 1206 m 1,0,-1
 512 1206 l 1,1,-1
 512 1065 l 1,2,-1
 403 1065 l 1,3,-1
 692 705 l 1,4,-1
 967 1065 l 1,5,-1
 854 1065 l 1,6,-1
 854 1206 l 1,7,-1
 1339 1206 l 1,8,-1
 1339 1065 l 1,9,-1
 1143 1065 l 1,10,-1
 764 567 l 1,11,-1
 760 141 l 1,12,-1
 952 141 l 1,13,-1
 952 0 l 1,14,-1
 405 0 l 1,15,-1
 405 141 l 1,16,-1
 598 141 l 1,17,-1
 600 561 l 1,18,-1
 194 1065 l 1,19,-1
 22 1065 l 1,20,-1
 22 1206 l 1,0,-1
EndSplineSet
EndChar

StartChar: Z
Encoding: 90 90 61
Width: 1150
GlyphClass: 2
Flags: W
HStem: 0 141<319 854> 1065 141<276 805>
LayerCount: 2
Fore
SplineSet
104 885 m 1,0,-1
 162 1206 l 1,1,-1
 1009 1206 l 1,2,-1
 1009 1100 l 1,3,-1
 319 141 l 1,4,-1
 854 141 l 1,5,-1
 936 360 l 1,6,-1
 1071 315 l 1,7,-1
 964 0 l 1,8,-1
 121 0 l 1,9,-1
 121 115 l 1,10,-1
 805 1065 l 1,11,-1
 276 1065 l 1,12,-1
 235 866 l 1,13,-1
 104 885 l 1,0,-1
EndSplineSet
EndChar

StartChar: bracketleft
Encoding: 91 91 62
Width: 596
GlyphClass: 2
Flags: W
HStem: -254 129<317 528> 1206 129<317 528>
VStem: 160 368<-254 -125 1206 1335> 160 157<-125 1206>
LayerCount: 2
Fore
SplineSet
317 -125 m 1,0,-1
 528 -125 l 1,1,-1
 528 -254 l 1,2,-1
 160 -254 l 1,3,-1
 160 1335 l 1,4,-1
 528 1335 l 1,5,-1
 528 1206 l 1,6,-1
 317 1206 l 1,7,-1
 317 -125 l 1,0,-1
EndSplineSet
EndChar

StartChar: backslash
Encoding: 92 92 63
Width: 922
GlyphClass: 2
Flags: W
HStem: 1186 20G<51 209.118>
LayerCount: 2
Fore
SplineSet
51 1206 m 1,0,-1
 200 1206 l 1,1,-1
 872 -268 l 1,2,-1
 720 -268 l 1,3,-1
 51 1206 l 1,0,-1
EndSplineSet
EndChar

StartChar: bracketright
Encoding: 93 93 64
Width: 596
GlyphClass: 2
Flags: W
HStem: -254 129<67 278> 1206 129<67 278>
VStem: 67 369<-254 -125 1206 1335> 278 158<-125 1206>
LayerCount: 2
Fore
SplineSet
278 1206 m 1,0,-1
 67 1206 l 1,1,-1
 67 1335 l 1,2,-1
 436 1335 l 1,3,-1
 436 -254 l 1,4,-1
 67 -254 l 1,5,-1
 67 -125 l 1,6,-1
 278 -125 l 1,7,-1
 278 1206 l 1,0,-1
EndSplineSet
EndChar

StartChar: underscore
Encoding: 95 95 66
Width: 1212
GlyphClass: 2
Flags: W
HStem: -180 141<136 1076>
LayerCount: 2
Fore
SplineSet
136 -39 m 1,0,-1
 1076 -39 l 1,1,-1
 1076 -180 l 1,2,-1
 136 -180 l 1,3,-1
 136 -39 l 1,0,-1
EndSplineSet
EndChar

StartChar: grave
Encoding: 96 96 67
Width: 686
GlyphClass: 2
Flags: W
HStem: 983 352
VStem: 86 514
LayerCount: 2
Fore
SplineSet
600 1049 m 1,0,-1
 563 983 l 1,1,-1
 86 1200 l 1,2,-1
 158 1335 l 1,3,-1
 600 1049 l 1,0,-1
EndSplineSet
EndChar

StartChar: a
Encoding: 97 97 68
Width: 1047
GlyphClass: 2
Flags: W
HStem: -31 131<290.66 633.411> 381 129<273.623 685> 778 131<293.818 633.404>
VStem: 80 164<146.023 350.938> 685 159<160 379 508 726.798>
LayerCount: 2
Fore
SplineSet
142 666 m 1,0,-1
 175 852 l 1,1,2
 213 868 213 868 260 880 c 0,3,4
 300 891 300 891 354 900 c 128,-1,5
 408 909 408 909 472 909 c 0,6,7
 564 909 564 909 627.5 891.5 c 128,-1,8
 691 874 691 874 732 844.5 c 128,-1,9
 773 815 773 815 796 776 c 128,-1,10
 819 737 819 737 829.5 693.5 c 128,-1,11
 840 650 840 650 842 604 c 128,-1,12
 844 558 844 558 844 516 c 2,13,-1
 844 160 l 1,14,-1
 1039 96 l 1,15,-1
 998 -35 l 1,16,-1
 721 59 l 1,17,18
 669 24 669 24 596.5 -3.5 c 128,-1,19
 524 -31 524 -31 433 -31 c 0,20,21
 350 -31 350 -31 285 -10.5 c 128,-1,22
 220 10 220 10 174.5 47 c 128,-1,23
 129 84 129 84 105 133.5 c 128,-1,24
 81 183 81 183 80 242 c 0,25,26
 79 313 79 313 105.5 364 c 128,-1,27
 132 415 132 415 178.5 447.5 c 128,-1,28
 225 480 225 480 287 495 c 128,-1,29
 349 510 349 510 420 510 c 2,30,-1
 685 508 l 1,31,-1
 685 524 l 2,32,33
 685 550 685 550 685.5 578.5 c 128,-1,34
 686 607 686 607 681.5 635.5 c 128,-1,35
 677 664 677 664 666 689.5 c 128,-1,36
 655 715 655 715 632 735 c 128,-1,37
 609 755 609 755 571.5 766.5 c 128,-1,38
 534 778 534 778 478 778 c 0,39,40
 413 778 413 778 366 770 c 128,-1,41
 319 762 319 762 293 754 c 1,42,-1
 273 641 l 1,43,-1
 142 666 l 1,0,-1
441 100 m 0,44,45
 486 100 486 100 524 107.5 c 128,-1,46
 562 115 562 115 592.5 126.5 c 128,-1,47
 623 138 623 138 646 152 c 128,-1,48
 669 166 669 166 685 178 c 1,49,-1
 685 379 l 1,50,-1
 425 381 l 2,51,52
 390 381 390 381 357.5 376.5 c 128,-1,53
 325 372 325 372 299.5 358 c 128,-1,54
 274 344 274 344 259 316.5 c 128,-1,55
 244 289 244 289 244 244 c 0,56,57
 244 207 244 207 260 180 c 128,-1,58
 276 153 276 153 303 135 c 128,-1,59
 330 117 330 117 366 108.5 c 128,-1,60
 402 100 402 100 441 100 c 0,44,45
EndSplineSet
EndChar

StartChar: b
Encoding: 98 98 69
Width: 1076
GlyphClass: 2
Flags: W
HStem: -31 131<321.307 687.995> 778 131<357.66 710.44>
VStem: 149 159<130.634 730.687 842 1135> 818 164<244.979 664.315>
LayerCount: 2
Fore
SplineSet
-3 1329 m 1,0,-1
 308 1223 l 1,1,-1
 308 842 l 1,2,3
 356 868 356 868 415.5 888.5 c 128,-1,4
 475 909 475 909 544 909 c 0,5,6
 639 909 639 909 719.5 880 c 128,-1,7
 800 851 800 851 858.5 795 c 128,-1,8
 917 739 917 739 949.5 655.5 c 128,-1,9
 982 572 982 572 982 463 c 0,10,11
 982 353 982 353 949.5 262 c 128,-1,12
 917 171 917 171 858 106 c 128,-1,13
 799 41 799 41 717 5 c 128,-1,14
 635 -31 635 -31 536 -31 c 0,15,16
 447 -31 447 -31 376 -13.5 c 128,-1,17
 305 4 305 4 254 26 c 0,18,19
 195 52 195 52 149 84 c 1,20,-1
 149 1135 l 1,21,-1
 -46 1202 l 1,22,-1
 -3 1329 l 1,0,-1
534 100 m 0,23,24
 604 100 604 100 657.5 126.5 c 128,-1,25
 711 153 711 153 746.5 201 c 128,-1,26
 782 249 782 249 800 315.5 c 128,-1,27
 818 382 818 382 818 463 c 0,28,29
 818 618 818 618 750 698 c 128,-1,30
 682 778 682 778 542 778 c 0,31,32
 487 778 487 778 444 766 c 128,-1,33
 401 754 401 754 371 740 c 0,34,35
 336 723 336 723 308 702 c 1,36,-1
 308 152 l 1,37,38
 333 137 333 137 366 126 c 0,39,40
 395 116 395 116 437 108 c 128,-1,41
 479 100 479 100 534 100 c 0,23,24
EndSplineSet
EndChar

StartChar: c
Encoding: 99 99 70
Width: 962
GlyphClass: 2
Flags: W
HStem: -31 131<378.154 739.247> 778 131<378.167 706.587>
VStem: 94 164<231.873 647.542>
LayerCount: 2
Fore
SplineSet
733 610 m 1,0,-1
 707 752 l 1,1,2
 694 758 694 758 654.5 768 c 128,-1,3
 615 778 615 778 543 778 c 0,4,5
 401 778 401 778 329.5 689.5 c 128,-1,6
 258 601 258 601 258 440 c 256,7,8
 258 279 258 279 329.5 189.5 c 128,-1,9
 401 100 401 100 543 100 c 0,10,11
 600 100 600 100 650 113.5 c 128,-1,12
 700 127 700 127 738 144 c 0,13,14
 782 163 782 163 819 188 c 1,15,-1
 887 88 l 2,16,17
 887 87 887 87 859.5 68.5 c 128,-1,18
 832 50 832 50 785 28 c 128,-1,19
 738 6 738 6 675 -12.5 c 128,-1,20
 612 -31 612 -31 541 -31 c 0,21,22
 442 -31 442 -31 360 1.5 c 128,-1,23
 278 34 278 34 218.5 94.5 c 128,-1,24
 159 155 159 155 126.5 242.5 c 128,-1,25
 94 330 94 330 94 440 c 256,26,27
 94 550 94 550 126.5 637 c 128,-1,28
 159 724 159 724 218.5 784.5 c 128,-1,29
 278 845 278 845 360 877 c 128,-1,30
 442 909 442 909 541 909 c 0,31,32
 613 909 613 909 665 901 c 128,-1,33
 717 893 717 893 752 884 c 0,34,35
 792 873 792 873 821 860 c 1,36,-1
 864 639 l 1,37,-1
 733 610 l 1,0,-1
EndSplineSet
EndChar

StartChar: d
Encoding: 100 100 71
Width: 1152
GlyphClass: 2
Flags: W
HStem: -31 131<384.82 713.627> 778 131<386.669 753.883>
VStem: 92 164<242.654 640.804> 766 160<162 747.407 866 1135>
LayerCount: 2
Fore
SplineSet
1118 96 m 1,0,-1
 1077 -35 l 1,1,-1
 805 59 l 1,2,3
 780 41 780 41 750.5 25 c 128,-1,4
 721 9 721 9 687.5 -3.5 c 128,-1,5
 654 -16 654 -16 616.5 -23.5 c 128,-1,6
 579 -31 579 -31 539 -31 c 0,7,8
 440 -31 440 -31 358 4.5 c 128,-1,9
 276 40 276 40 216.5 104.5 c 128,-1,10
 157 169 157 169 124.5 259 c 128,-1,11
 92 349 92 349 92 459 c 0,12,13
 92 558 92 558 126.5 640.5 c 128,-1,14
 161 723 161 723 221.5 783 c 128,-1,15
 282 843 282 843 363.5 876 c 128,-1,16
 445 909 445 909 539 909 c 0,17,18
 607 909 607 909 662.5 897 c 128,-1,19
 718 885 718 885 766 866 c 1,20,-1
 766 1135 l 1,21,-1
 572 1202 l 1,22,-1
 615 1329 l 1,23,-1
 926 1223 l 1,24,-1
 926 162 l 1,25,-1
 1118 96 l 1,0,-1
541 778 m 0,26,27
 476 778 476 778 423 754 c 128,-1,28
 370 730 370 730 333 687.5 c 128,-1,29
 296 645 296 645 276 587 c 128,-1,30
 256 529 256 529 256 461 c 0,31,32
 256 380 256 380 274 313.5 c 128,-1,33
 292 247 292 247 327.5 199.5 c 128,-1,34
 363 152 363 152 416.5 126 c 128,-1,35
 470 100 470 100 541 100 c 0,36,37
 579 100 579 100 613 108 c 128,-1,38
 647 116 647 116 675.5 127.5 c 128,-1,39
 704 139 704 139 727 152 c 128,-1,40
 750 165 750 165 766 176 c 1,41,-1
 766 727 l 1,42,43
 741 741 741 741 708 752 c 0,44,45
 679 762 679 762 637 770 c 128,-1,46
 595 778 595 778 541 778 c 0,26,27
EndSplineSet
EndChar

StartChar: e
Encoding: 101 101 72
Width: 1028
GlyphClass: 2
Flags: W
HStem: -31 131<378.258 758.485> 399 127<262 780> 778 131<377.37 698.506>
VStem: 780 140<528 693.823>
LayerCount: 2
Fore
SplineSet
541 -31 m 0,0,1
 442 -31 442 -31 360 1.5 c 128,-1,2
 278 34 278 34 218.5 94.5 c 128,-1,3
 159 155 159 155 126.5 242.5 c 128,-1,4
 94 330 94 330 94 440 c 256,5,6
 94 550 94 550 126.5 637 c 128,-1,7
 159 724 159 724 218.5 784.5 c 128,-1,8
 278 845 278 845 360 877 c 128,-1,9
 442 909 442 909 541 909 c 0,10,11
 623 909 623 909 698.5 886 c 128,-1,12
 774 863 774 863 828 806 c 128,-1,13
 882 749 882 749 908.5 651 c 128,-1,14
 935 553 935 553 920 403 c 1,15,-1
 260 399 l 1,16,17
 268 256 268 256 339 178 c 128,-1,18
 410 100 410 100 543 100 c 0,19,20
 615 100 615 100 672 115.5 c 128,-1,21
 729 131 729 131 770 150 c 0,22,23
 818 172 818 172 854 201 c 1,24,-1
 928 104 l 2,25,26
 928 103 928 103 902.5 82 c 128,-1,27
 877 61 877 61 827.5 36 c 128,-1,28
 778 11 778 11 706 -10 c 128,-1,29
 634 -31 634 -31 541 -31 c 0,0,1
543 778 m 0,30,31
 421 778 421 778 351 712.5 c 128,-1,32
 281 647 281 647 262 526 c 1,33,-1
 780 528 l 1,34,35
 778 652 778 652 718.5 715 c 128,-1,36
 659 778 659 778 543 778 c 0,30,31
EndSplineSet
EndChar

StartChar: f
Encoding: 102 102 73
Width: 750
GlyphClass: 2
Flags: W
HStem: 0 127<96 268 428 612> 752 127<96 268 428 682> 1184 131<487.241 843.617>
VStem: 268 160<127 752 879 1123.51>
LayerCount: 2
Fore
SplineSet
96 127 m 1,0,-1
 268 127 l 1,1,-1
 268 752 l 1,2,-1
 96 752 l 1,3,-1
 96 879 l 1,4,-1
 268 879 l 1,5,-1
 268 969 l 2,6,7
 268 1055 268 1055 288.5 1119.5 c 128,-1,8
 309 1184 309 1184 353 1227.5 c 128,-1,9
 397 1271 397 1271 467 1293 c 128,-1,10
 537 1315 537 1315 635 1315 c 0,11,12
 702 1315 702 1315 753 1303.5 c 128,-1,13
 804 1292 804 1292 839 1278 c 0,14,15
 879 1261 879 1261 909 1241 c 1,16,-1
 848 1137 l 1,17,18
 825 1149 825 1149 794 1160 c 0,19,20
 768 1169 768 1169 730.5 1176.5 c 128,-1,21
 693 1184 693 1184 645 1184 c 0,22,23
 579 1184 579 1184 537 1168.5 c 128,-1,24
 495 1153 495 1153 470.5 1122 c 128,-1,25
 446 1091 446 1091 437 1044.5 c 128,-1,26
 428 998 428 998 428 936 c 2,27,-1
 428 879 l 1,28,-1
 682 879 l 1,29,-1
 682 752 l 1,30,-1
 428 752 l 1,31,-1
 428 127 l 1,32,-1
 612 127 l 1,33,-1
 612 0 l 1,34,-1
 96 0 l 1,35,-1
 96 127 l 1,0,-1
EndSplineSet
EndChar

StartChar: g
Encoding: 103 103 74
Width: 1099
GlyphClass: 2
Flags: W
HStem: -457 129<255.013 760.252> -72 127<403 776.062> 242 114<403.479 673.316> 795 114<342.754 681.474>
VStem: 106 156<441.461 718.438> 256 147<55 248> 762 155<441.337 718.078> 811 149<-278.532 -107.27>
LayerCount: 2
Fore
SplineSet
856 770 m 1,0,1
 885 733 885 733 901 685 c 128,-1,2
 917 637 917 637 917 580 c 0,3,4
 917 491 917 491 883 427 c 128,-1,5
 849 363 849 363 792.5 322 c 128,-1,6
 736 281 736 281 662 261.5 c 128,-1,7
 588 242 588 242 508 242 c 0,8,9
 461 242 461 242 433 245 c 0,10,11
 416 246 416 246 403 248 c 1,12,-1
 403 55 l 1,13,-1
 633 55 l 2,14,15
 960 55 960 55 960 -182 c 0,16,17
 960 -257 960 -257 924 -309.5 c 128,-1,18
 888 -362 888 -362 827.5 -395 c 128,-1,19
 767 -428 767 -428 688 -442.5 c 128,-1,20
 609 -457 609 -457 524 -457 c 0,21,22
 432 -457 432 -457 353.5 -442.5 c 128,-1,23
 275 -428 275 -428 216.5 -410 c 128,-1,24
 158 -392 158 -392 124 -376.5 c 128,-1,25
 90 -361 90 -361 86 -358 c 1,26,-1
 143 -238 l 1,27,28
 194 -264 194 -264 255 -283 c 0,29,30
 307 -300 307 -300 376 -314 c 128,-1,31
 445 -328 445 -328 524 -328 c 0,32,33
 591 -328 591 -328 644 -320.5 c 128,-1,34
 697 -313 697 -313 734 -297 c 128,-1,35
 771 -281 771 -281 791 -256.5 c 128,-1,36
 811 -232 811 -232 811 -197 c 0,37,38
 811 -169 811 -169 800.5 -145.5 c 128,-1,39
 790 -122 790 -122 764.5 -106 c 128,-1,40
 739 -90 739 -90 696.5 -81 c 128,-1,41
 654 -72 654 -72 590 -72 c 2,42,-1
 256 -72 l 1,43,-1
 256 299 l 1,44,45
 227 314 227 314 200 339 c 128,-1,46
 173 364 173 364 152 398 c 128,-1,47
 131 432 131 432 118.5 475 c 128,-1,48
 106 518 106 518 106 569 c 0,49,50
 106 648 106 648 135 711 c 128,-1,51
 164 774 164 774 216.5 818 c 128,-1,52
 269 862 269 862 343.5 885.5 c 128,-1,53
 418 909 418 909 510 909 c 0,54,55
 587 909 587 909 648 895 c 128,-1,56
 709 881 709 881 760 852 c 1,57,-1
 1050 961 l 1,58,-1
 1098 825 l 1,59,-1
 856 770 l 1,0,1
262 575 m 0,60,61
 262 520 262 520 282.5 479 c 128,-1,62
 303 438 303 438 337.5 410.5 c 128,-1,63
 372 383 372 383 417.5 369.5 c 128,-1,64
 463 356 463 356 512 356 c 256,65,66
 561 356 561 356 606.5 369.5 c 128,-1,67
 652 383 652 383 686.5 410.5 c 128,-1,68
 721 438 721 438 741.5 479 c 128,-1,69
 762 520 762 520 762 575 c 0,70,71
 762 686 762 686 694.5 740.5 c 128,-1,72
 627 795 627 795 512 795 c 0,73,74
 396 795 396 795 329 740.5 c 128,-1,75
 262 686 262 686 262 575 c 0,60,61
EndSplineSet
EndChar

StartChar: h
Encoding: 104 104 75
Width: 1233
GlyphClass: 2
Flags: W
HStem: 0 127<51 223 383 475 766 858 1018 1190> 778 131<457.526 791.436>
VStem: 223 160<127 731.188 823 1137> 858 160<127 711.964>
LayerCount: 2
Fore
SplineSet
72 1331 m 1,0,-1
 383 1225 l 1,1,-1
 383 823 l 1,2,3
 404 837 404 837 432.5 852 c 128,-1,4
 461 867 461 867 495 880 c 128,-1,5
 529 893 529 893 568.5 901 c 128,-1,6
 608 909 608 909 651 909 c 0,7,8
 749 909 749 909 818.5 887.5 c 128,-1,9
 888 866 888 866 932.5 822.5 c 128,-1,10
 977 779 977 779 997.5 714 c 128,-1,11
 1018 649 1018 649 1018 563 c 2,12,-1
 1018 127 l 1,13,-1
 1190 127 l 1,14,-1
 1190 0 l 1,15,-1
 766 0 l 1,16,-1
 766 127 l 1,17,-1
 858 127 l 1,18,-1
 858 530 l 2,19,20
 858 585 858 585 849 630.5 c 128,-1,21
 840 676 840 676 815.5 709 c 128,-1,22
 791 742 791 742 749 760 c 128,-1,23
 707 778 707 778 641 778 c 0,24,25
 585 778 585 778 538 767 c 128,-1,26
 491 756 491 756 456 743 c 0,27,28
 416 728 416 728 383 709 c 1,29,-1
 383 127 l 1,30,-1
 475 127 l 1,31,-1
 475 0 l 1,32,-1
 51 0 l 1,33,-1
 51 127 l 1,34,-1
 223 127 l 1,35,-1
 223 1137 l 1,36,-1
 29 1204 l 1,37,-1
 72 1331 l 1,0,-1
EndSplineSet
EndChar

StartChar: i
Encoding: 105 105 76
Width: 648
GlyphClass: 2
Flags: W
HStem: 0 127<95 265 425 595> 752 127<95 265> 1061 254<235.363 424.652>
VStem: 204 253<1091.87 1282.82> 265 160<127 752>
LayerCount: 2
Fore
SplineSet
95 879 m 1,0,-1
 425 879 l 1,1,-1
 425 127 l 1,2,-1
 595 127 l 1,3,-1
 595 0 l 1,4,-1
 95 0 l 1,5,-1
 95 127 l 1,6,-1
 265 127 l 1,7,-1
 265 752 l 1,8,-1
 95 752 l 1,9,-1
 95 879 l 1,0,-1
457 1188 m 0,10,11
 457 1162 457 1162 446.5 1138.5 c 128,-1,12
 436 1115 436 1115 419 1098 c 128,-1,13
 402 1081 402 1081 378.5 1071 c 128,-1,14
 355 1061 355 1061 330 1061 c 0,15,16
 304 1061 304 1061 281 1071 c 128,-1,17
 258 1081 258 1081 241 1098 c 128,-1,18
 224 1115 224 1115 214 1138.5 c 128,-1,19
 204 1162 204 1162 204 1188 c 0,20,21
 204 1213 204 1213 214 1236 c 128,-1,22
 224 1259 224 1259 241 1276.5 c 128,-1,23
 258 1294 258 1294 281 1304.5 c 128,-1,24
 304 1315 304 1315 330 1315 c 0,25,26
 355 1315 355 1315 378.5 1304.5 c 128,-1,27
 402 1294 402 1294 419 1276.5 c 128,-1,28
 436 1259 436 1259 446.5 1236 c 128,-1,29
 457 1213 457 1213 457 1188 c 0,10,11
EndSplineSet
EndChar

StartChar: j
Encoding: 106 106 77
Width: 543
GlyphClass: 2
Flags: W
HStem: -457 129<-71.7084 167.479> 752 127<51 223> 1061 254<195.363 385.309>
VStem: 164 254<1092.36 1282.31> 223 160<-273.874 752>
LayerCount: 2
Fore
SplineSet
51 879 m 1,0,-1
 383 879 l 1,1,-1
 383 -63 l 2,2,3
 383 -106 383 -106 381 -151.5 c 128,-1,4
 379 -197 379 -197 368.5 -240.5 c 128,-1,5
 358 -284 358 -284 335 -323.5 c 128,-1,6
 312 -363 312 -363 270.5 -392.5 c 128,-1,7
 229 -422 229 -422 165.5 -439.5 c 128,-1,8
 102 -457 102 -457 10 -457 c 0,9,10
 0 -457 0 -457 -13.5 -456 c 128,-1,11
 -27 -455 -27 -455 -41 -453.5 c 128,-1,12
 -55 -452 -55 -452 -68 -451 c 128,-1,13
 -81 -450 -81 -450 -90 -449 c 1,14,-1
 -70 -324 l 1,15,16
 -50 -326 -50 -326 -29.5 -327 c 128,-1,17
 -9 -328 -9 -328 16 -328 c 0,18,19
 99 -328 99 -328 141.5 -303 c 128,-1,20
 184 -278 184 -278 202 -240.5 c 128,-1,21
 220 -203 220 -203 221.5 -158.5 c 128,-1,22
 223 -114 223 -114 223 -76 c 2,23,-1
 223 752 l 1,24,-1
 51 752 l 1,25,-1
 51 879 l 1,0,-1
418 1188 m 0,26,27
 418 1162 418 1162 407.5 1138.5 c 128,-1,28
 397 1115 397 1115 379.5 1098 c 128,-1,29
 362 1081 362 1081 339 1071 c 128,-1,30
 316 1061 316 1061 291 1061 c 0,31,32
 265 1061 265 1061 241.5 1071 c 128,-1,33
 218 1081 218 1081 201 1098 c 128,-1,34
 184 1115 184 1115 174 1138.5 c 128,-1,35
 164 1162 164 1162 164 1188 c 0,36,37
 164 1213 164 1213 174 1236 c 128,-1,38
 184 1259 184 1259 201 1276.5 c 128,-1,39
 218 1294 218 1294 241.5 1304.5 c 128,-1,40
 265 1315 265 1315 291 1315 c 0,41,42
 316 1315 316 1315 339 1304.5 c 128,-1,43
 362 1294 362 1294 379.5 1276.5 c 128,-1,44
 397 1259 397 1259 407.5 1236 c 128,-1,45
 418 1213 418 1213 418 1188 c 0,26,27
EndSplineSet
EndChar

StartChar: k
Encoding: 107 107 78
Width: 1127
GlyphClass: 2
Flags: W
HStem: 0 127<51 223 383 475 891 1067> 383 127<383 563> 752 127<604 711 862 1034>
VStem: 223 160<127 383 510 1139>
LayerCount: 2
Fore
SplineSet
1034 752 m 1,0,-1
 862 752 l 1,1,-1
 690 459 l 1,2,-1
 692 459 l 1,3,-1
 891 127 l 1,4,-1
 1067 127 l 1,5,-1
 1067 0 l 1,6,-1
 795 0 l 1,7,-1
 563 383 l 1,8,-1
 383 383 l 1,9,-1
 383 127 l 1,10,-1
 475 127 l 1,11,-1
 475 0 l 1,12,-1
 51 0 l 1,13,-1
 51 127 l 1,14,-1
 223 127 l 1,15,-1
 223 1139 l 1,16,-1
 29 1206 l 1,17,-1
 72 1333 l 1,18,-1
 383 1227 l 1,19,-1
 383 510 l 1,20,-1
 569 510 l 1,21,-1
 711 752 l 1,22,-1
 604 752 l 1,23,-1
 604 879 l 1,24,-1
 1034 879 l 1,25,-1
 1034 752 l 1,0,-1
EndSplineSet
EndChar

StartChar: l
Encoding: 108 108 79
Width: 606
GlyphClass: 2
Flags: W
HStem: 0 127<51 223 383 555> 1315 20G<47.8092 141>
VStem: 223 160<127 1159>
LayerCount: 2
Fore
SplineSet
383 1260 m 1,0,-1
 383 127 l 1,1,-1
 555 127 l 1,2,-1
 555 0 l 1,3,-1
 51 0 l 1,4,-1
 51 127 l 1,5,-1
 223 127 l 1,6,-1
 223 1159 l 1,7,-1
 19 1204 l 1,8,-1
 53 1335 l 1,9,-1
 383 1260 l 1,0,-1
EndSplineSet
EndChar

StartChar: m
Encoding: 109 109 80
Width: 1820
GlyphClass: 2
Flags: W
HStem: 0 127<101 273 433 525 766 858 1018 1110 1352 1444 1604 1776> 778 131<469.352 802.802 1056.15 1387.24>
VStem: 273 160<127 715> 858 160<127 721.787> 1444 160<127 720.047>
LayerCount: 2
Fore
SplineSet
119 909 m 1,0,-1
 390 815 l 1,1,2
 403 825 403 825 427 841 c 128,-1,3
 451 857 451 857 486 872 c 128,-1,4
 521 887 521 887 566.5 898 c 128,-1,5
 612 909 612 909 666 909 c 0,6,7
 775 909 775 909 846 882 c 128,-1,8
 917 855 917 855 957 801 c 1,9,-1
 961 803 l 1,10,11
 995 832 995 832 1040 856 c 0,12,13
 1078 876 1078 876 1131.5 892.5 c 128,-1,14
 1185 909 1185 909 1252 909 c 0,15,16
 1350 909 1350 909 1417.5 887.5 c 128,-1,17
 1485 866 1485 866 1526.5 822.5 c 128,-1,18
 1568 779 1568 779 1586 714 c 128,-1,19
 1604 649 1604 649 1604 563 c 2,20,-1
 1604 127 l 1,21,-1
 1776 127 l 1,22,-1
 1776 0 l 1,23,-1
 1352 0 l 1,24,-1
 1352 127 l 1,25,-1
 1444 127 l 1,26,-1
 1444 530 l 2,27,28
 1444 585 1444 585 1437 630.5 c 128,-1,29
 1430 676 1430 676 1408.5 709 c 128,-1,30
 1387 742 1387 742 1347 760 c 128,-1,31
 1307 778 1307 778 1241 778 c 0,32,33
 1185 778 1185 778 1143.5 767 c 128,-1,34
 1102 756 1102 756 1074 743 c 0,35,36
 1041 728 1041 728 1018 709 c 1,37,-1
 1018 127 l 1,38,-1
 1110 127 l 1,39,-1
 1110 0 l 1,40,-1
 766 0 l 1,41,-1
 766 127 l 1,42,-1
 858 127 l 1,43,-1
 858 530 l 2,44,45
 858 585 858 585 851 630.5 c 128,-1,46
 844 676 844 676 823 709 c 128,-1,47
 802 742 802 742 762 760 c 128,-1,48
 722 778 722 778 656 778 c 0,49,50
 600 778 600 778 558.5 767 c 128,-1,51
 517 756 517 756 489 743 c 0,52,53
 456 728 456 728 433 709 c 1,54,-1
 433 127 l 1,55,-1
 525 127 l 1,56,-1
 525 0 l 1,57,-1
 101 0 l 1,58,-1
 101 127 l 1,59,-1
 273 127 l 1,60,-1
 273 715 l 1,61,-1
 76 782 l 1,62,-1
 119 909 l 1,0,-1
EndSplineSet
EndChar

StartChar: n
Encoding: 110 110 81
Width: 1283
GlyphClass: 2
Flags: W
HStem: 0 127<100 273 432 524 815 907 1067 1239> 778 131<486.375 841.436>
VStem: 273 159<127 715> 907 160<127 711.964>
LayerCount: 2
Fore
SplineSet
119 909 m 1,0,-1
 391 815 l 1,1,2
 406 825 406 825 436 841 c 128,-1,3
 466 857 466 857 506.5 872 c 128,-1,4
 547 887 547 887 596.5 898 c 128,-1,5
 646 909 646 909 701 909 c 0,6,7
 799 909 799 909 868.5 887.5 c 128,-1,8
 938 866 938 866 982 822.5 c 128,-1,9
 1026 779 1026 779 1046.5 714 c 128,-1,10
 1067 649 1067 649 1067 563 c 2,11,-1
 1067 127 l 1,12,-1
 1239 127 l 1,13,-1
 1239 0 l 1,14,-1
 815 0 l 1,15,-1
 815 127 l 1,16,-1
 907 127 l 1,17,-1
 907 530 l 2,18,19
 907 585 907 585 898 630.5 c 128,-1,20
 889 676 889 676 864.5 709 c 128,-1,21
 840 742 840 742 798 760 c 128,-1,22
 756 778 756 778 690 778 c 0,23,24
 634 778 634 778 587.5 767 c 128,-1,25
 541 756 541 756 506 743 c 0,26,27
 466 728 466 728 432 709 c 1,28,-1
 432 127 l 1,29,-1
 524 127 l 1,30,-1
 524 0 l 1,31,-1
 100 0 l 1,32,-1
 100 127 l 1,33,-1
 273 127 l 1,34,-1
 273 715 l 1,35,-1
 76 782 l 1,36,-1
 119 909 l 1,0,-1
EndSplineSet
EndChar

StartChar: o
Encoding: 111 111 82
Width: 1089
GlyphClass: 2
Flags: W
HStem: -31 131<378.154 710.954> 778 131<378.154 710.622>
VStem: 94 164<230.458 646.127> 832 164<230.135 646.127>
LayerCount: 2
Fore
SplineSet
541 -31 m 0,0,1
 442 -31 442 -31 360 1 c 128,-1,2
 278 33 278 33 218.5 93.5 c 128,-1,3
 159 154 159 154 126.5 241 c 128,-1,4
 94 328 94 328 94 438 c 256,5,6
 94 548 94 548 126.5 635.5 c 128,-1,7
 159 723 159 723 218.5 783.5 c 128,-1,8
 278 844 278 844 360 876.5 c 128,-1,9
 442 909 442 909 541 909 c 0,10,11
 643 909 643 909 727 876.5 c 128,-1,12
 811 844 811 844 870.5 783.5 c 128,-1,13
 930 723 930 723 963 635.5 c 128,-1,14
 996 548 996 548 996 438 c 256,15,16
 996 328 996 328 963 241 c 128,-1,17
 930 154 930 154 870.5 93.5 c 128,-1,18
 811 33 811 33 727 1 c 128,-1,19
 643 -31 643 -31 541 -31 c 0,0,1
543 778 m 0,20,21
 401 778 401 778 329.5 688.5 c 128,-1,22
 258 599 258 599 258 438 c 256,23,24
 258 277 258 277 329.5 188.5 c 128,-1,25
 401 100 401 100 543 100 c 0,26,27
 688 100 688 100 760 188 c 128,-1,28
 832 276 832 276 832 438 c 0,29,30
 832 599 832 599 759.5 688.5 c 128,-1,31
 687 778 687 778 543 778 c 0,20,21
EndSplineSet
EndChar

StartChar: p
Encoding: 112 112 83
Width: 1149
GlyphClass: 2
Flags: W
HStem: -426 127<51 223 383 555> -31 131<396.135 759.652> 778 131<432.156 784.797>
VStem: 223 160<-299 4 130.634 721> 893 163<248.058 663.845>
LayerCount: 2
Fore
SplineSet
555 -426 m 1,0,-1
 51 -426 l 1,1,-1
 51 -299 l 1,2,-1
 223 -299 l 1,3,-1
 223 721 l 1,4,-1
 30 784 l 1,5,-1
 71 915 l 1,6,-1
 346 821 l 1,7,8
 370 837 370 837 400.5 853 c 128,-1,9
 431 869 431 869 466 881.5 c 128,-1,10
 501 894 501 894 539 901.5 c 128,-1,11
 577 909 577 909 618 909 c 0,12,13
 715 909 715 909 795.5 880.5 c 128,-1,14
 876 852 876 852 934 796 c 128,-1,15
 992 740 992 740 1024 657.5 c 128,-1,16
 1056 575 1056 575 1056 467 c 0,17,18
 1056 357 1056 357 1023.5 265.5 c 128,-1,19
 991 174 991 174 932 108 c 128,-1,20
 873 42 873 42 791 5.5 c 128,-1,21
 709 -31 709 -31 610 -31 c 0,22,23
 541 -31 541 -31 485 -21 c 128,-1,24
 429 -11 429 -11 383 4 c 1,25,-1
 383 -299 l 1,26,-1
 555 -299 l 1,27,-1
 555 -426 l 1,0,-1
608 100 m 0,28,29
 678 100 678 100 731.5 127 c 128,-1,30
 785 154 785 154 821 203 c 128,-1,31
 857 252 857 252 875 319 c 128,-1,32
 893 386 893 386 893 467 c 0,33,34
 893 778 893 778 616 778 c 0,35,36
 561 778 561 778 518 766 c 128,-1,37
 475 754 475 754 445 740 c 0,38,39
 410 723 410 723 383 702 c 1,40,-1
 383 152 l 1,41,42
 408 137 408 137 441 126 c 0,43,44
 470 116 470 116 511.5 108 c 128,-1,45
 553 100 553 100 608 100 c 0,28,29
EndSplineSet
EndChar

StartChar: q
Encoding: 113 113 84
Width: 1077
GlyphClass: 2
Flags: W
HStem: -426 127<596 768 928 1100> -31 131<384.43 715.825> 778 131<386.085 753.515>
VStem: 92 164<242.654 640.804> 768 160<-299 35 148.743 746.533>
LayerCount: 2
Fore
SplineSet
596 -299 m 1,0,-1
 768 -299 l 1,1,-1
 768 35 l 1,2,3
 722 9 722 9 664.5 -11 c 128,-1,4
 607 -31 607 -31 539 -31 c 0,5,6
 440 -31 440 -31 358 4.5 c 128,-1,7
 276 40 276 40 216.5 104.5 c 128,-1,8
 157 169 157 169 124.5 259 c 128,-1,9
 92 349 92 349 92 459 c 0,10,11
 92 558 92 558 126.5 640.5 c 128,-1,12
 161 723 161 723 221.5 783 c 128,-1,13
 282 843 282 843 363.5 876 c 128,-1,14
 445 909 445 909 539 909 c 0,15,16
 627 909 627 909 698.5 891 c 128,-1,17
 770 873 770 873 821 851.5 c 128,-1,18
 872 830 872 830 899.5 812 c 128,-1,19
 927 794 927 794 928 793 c 1,20,-1
 928 -299 l 1,21,-1
 1100 -299 l 1,22,-1
 1100 -426 l 1,23,-1
 596 -426 l 1,24,-1
 596 -299 l 1,0,-1
541 778 m 0,25,26
 476 778 476 778 423 754 c 128,-1,27
 370 730 370 730 333 687.5 c 128,-1,28
 296 645 296 645 276 587 c 128,-1,29
 256 529 256 529 256 461 c 0,30,31
 256 380 256 380 274 313.5 c 128,-1,32
 292 247 292 247 327.5 199.5 c 128,-1,33
 363 152 363 152 416.5 126 c 128,-1,34
 470 100 470 100 541 100 c 0,35,36
 579 100 579 100 613.5 108 c 128,-1,37
 648 116 648 116 677.5 127.5 c 128,-1,38
 707 139 707 139 730 152.5 c 128,-1,39
 753 166 753 166 768 178 c 1,40,-1
 768 725 l 1,41,42
 767 726 767 726 752 734 c 128,-1,43
 737 742 737 742 708 752 c 128,-1,44
 679 762 679 762 637 770 c 128,-1,45
 595 778 595 778 541 778 c 0,25,26
EndSplineSet
EndChar

StartChar: r
Encoding: 114 114 85
Width: 884
GlyphClass: 2
Flags: W
HStem: 0 127<101 273 433 633> 776 133<491.691 685>
VStem: 273 160<127 713>
LayerCount: 2
Fore
SplineSet
119 907 m 1,0,-1
 392 813 l 1,1,2
 407 823 407 823 437.5 839.5 c 128,-1,3
 468 856 468 856 511 871.5 c 128,-1,4
 554 887 554 887 608.5 898 c 128,-1,5
 663 909 663 909 726 909 c 0,6,7
 752 909 752 909 767.5 908.5 c 128,-1,8
 783 908 783 908 791 907 c 0,9,10
 800 906 800 906 803 905 c 1,11,-1
 838 690 l 1,12,-1
 705 662 l 1,13,-1
 685 776 l 1,14,15
 634 776 634 776 589 765 c 128,-1,16
 544 754 544 754 509 741 c 0,17,18
 469 726 469 726 433 707 c 1,19,-1
 433 127 l 1,20,-1
 633 127 l 1,21,-1
 633 0 l 1,22,-1
 101 0 l 1,23,-1
 101 127 l 1,24,-1
 273 127 l 1,25,-1
 273 713 l 1,26,-1
 76 780 l 1,27,-1
 119 907 l 1,0,-1
EndSplineSet
EndChar

StartChar: s
Encoding: 115 115 86
Width: 968
GlyphClass: 2
Flags: W
HStem: -31 131<273.218 670.077> 778 131<280.547 700.023>
VStem: 105 146<572.431 745.25> 724 151<149.017 328.507>
LayerCount: 2
Fore
SplineSet
722 629 m 1,0,-1
 701 741 l 1,1,2
 670 752 670 752 607 765 c 128,-1,3
 544 778 544 778 441 778 c 0,4,5
 405 778 405 778 371 772.5 c 128,-1,6
 337 767 337 767 310 753.5 c 128,-1,7
 283 740 283 740 267 718 c 128,-1,8
 251 696 251 696 251 662 c 0,9,10
 251 631 251 631 260 610.5 c 128,-1,11
 269 590 269 590 288.5 576.5 c 128,-1,12
 308 563 308 563 338 555 c 128,-1,13
 368 547 368 547 410 543 c 2,14,-1
 589 524 l 2,15,16
 649 518 649 518 701 499 c 128,-1,17
 753 480 753 480 791.5 447 c 128,-1,18
 830 414 830 414 852.5 365 c 128,-1,19
 875 316 875 316 875 250 c 0,20,21
 875 181 875 181 846.5 128.5 c 128,-1,22
 818 76 818 76 767.5 40.5 c 128,-1,23
 717 5 717 5 647.5 -13 c 128,-1,24
 578 -31 578 -31 496 -31 c 0,25,26
 424 -31 424 -31 358.5 -15.5 c 128,-1,27
 293 0 293 0 242 19 c 0,28,29
 182 41 182 41 130 70 c 1,30,-1
 97 252 l 1,31,-1
 230 281 l 1,32,-1
 253 154 l 1,33,34
 293 134 293 134 353.5 117 c 128,-1,35
 414 100 414 100 492 100 c 0,36,37
 610 100 610 100 667 139 c 128,-1,38
 724 178 724 178 724 250 c 0,39,40
 724 295 724 295 693.5 323.5 c 128,-1,41
 663 352 663 352 595 360 c 1,42,-1
 390 381 l 2,43,44
 314 388 314 388 260 412 c 128,-1,45
 206 436 206 436 171.5 472.5 c 128,-1,46
 137 509 137 509 121 557.5 c 128,-1,47
 105 606 105 606 105 662 c 0,48,49
 105 716 105 716 127.5 761 c 128,-1,50
 150 806 150 806 194.5 839 c 128,-1,51
 239 872 239 872 304 890.5 c 128,-1,52
 369 909 369 909 453 909 c 0,53,54
 535 909 535 909 602.5 898 c 128,-1,55
 670 887 670 887 719 874 c 0,56,57
 776 859 776 859 822 840 c 1,58,-1
 855 657 l 1,59,-1
 722 629 l 1,0,-1
EndSplineSet
EndChar

StartChar: t
Encoding: 116 116 87
Width: 698
GlyphClass: 2
Flags: W
HStem: -31 127<418.428 621> 752 127<38 208 365 621>
VStem: 208 157<152.14 752 879 1057>
LayerCount: 2
Fore
SplineSet
621 752 m 1,0,-1
 365 752 l 1,1,-1
 365 395 l 2,2,3
 365 354 365 354 366.5 303.5 c 128,-1,4
 368 253 368 253 381.5 208 c 128,-1,5
 395 163 395 163 427 131.5 c 128,-1,6
 459 100 459 100 521 96 c 1,7,8
 561 96 561 96 590 101 c 128,-1,9
 619 106 619 106 621 106 c 1,10,-1
 652 -8 l 1,11,12
 634 -15 634 -15 612 -20 c 0,13,14
 593 -25 593 -25 567.5 -28 c 128,-1,15
 542 -31 542 -31 513 -31 c 0,16,17
 442 -31 442 -31 385.5 -10 c 128,-1,18
 329 11 329 11 289.5 53 c 128,-1,19
 250 95 250 95 229 158 c 128,-1,20
 208 221 208 221 208 305 c 2,21,-1
 208 752 l 1,22,-1
 38 752 l 1,23,-1
 38 879 l 1,24,-1
 208 879 l 1,25,-1
 208 1057 l 1,26,-1
 365 1094 l 1,27,-1
 365 879 l 1,28,-1
 621 879 l 1,29,-1
 621 752 l 1,0,-1
EndSplineSet
EndChar

StartChar: u
Encoding: 117 117 88
Width: 1239
GlyphClass: 2
Flags: W
HStem: -31 131<439.286 790.002> 752 127<41 213 676 848>
VStem: 213 160<168.552 752> 848 160<160 752>
LayerCount: 2
Fore
SplineSet
676 879 m 1,0,-1
 1008 879 l 1,1,-1
 1008 160 l 1,2,-1
 1201 94 l 1,3,-1
 1160 -37 l 1,4,-1
 881 59 l 1,5,6
 863 48 863 48 833 33 c 128,-1,7
 803 18 803 18 764 3.5 c 128,-1,8
 725 -11 725 -11 678 -21 c 128,-1,9
 631 -31 631 -31 580 -31 c 0,10,11
 482 -31 482 -31 412 -9 c 128,-1,12
 342 13 342 13 298 56.5 c 128,-1,13
 254 100 254 100 233.5 164.5 c 128,-1,14
 213 229 213 229 213 315 c 2,15,-1
 213 752 l 1,16,-1
 41 752 l 1,17,-1
 41 879 l 1,18,-1
 373 879 l 1,19,-1
 373 348 l 2,20,21
 373 294 373 294 382 248.5 c 128,-1,22
 391 203 391 203 415.5 170 c 128,-1,23
 440 137 440 137 482 118.5 c 128,-1,24
 524 100 524 100 590 100 c 0,25,26
 646 100 646 100 692.5 110.5 c 128,-1,27
 739 121 739 121 774 135 c 0,28,29
 814 150 814 150 848 170 c 1,30,-1
 848 752 l 1,31,-1
 676 752 l 1,32,-1
 676 879 l 1,0,-1
EndSplineSet
EndChar

StartChar: v
Encoding: 118 118 89
Width: 1227
GlyphClass: 2
Flags: W
HStem: 0 21G<515.33 698.936> 752 127<28 198 364 459 790 880 1026 1200>
LayerCount: 2
Fore
SplineSet
28 879 m 1,0,-1
 459 879 l 1,1,-1
 459 752 l 1,2,-1
 364 752 l 1,3,-1
 622 141 l 1,4,-1
 880 752 l 1,5,-1
 790 752 l 1,6,-1
 790 879 l 1,7,-1
 1200 879 l 1,8,-1
 1200 752 l 1,9,-1
 1026 752 l 1,10,-1
 690 0 l 1,11,-1
 524 0 l 1,12,-1
 198 752 l 1,13,-1
 28 752 l 1,14,-1
 28 879 l 1,0,-1
EndSplineSet
EndChar

StartChar: w
Encoding: 119 119 90
Width: 1665
GlyphClass: 2
Flags: W
HStem: 0 21G<469.686 642.233 1015.24 1184.58> 752 127<30 202 360 452 1235 1325 1462 1636>
LayerCount: 2
Fore
SplineSet
30 879 m 1,0,-1
 452 879 l 1,1,-1
 452 752 l 1,2,-1
 360 752 l 1,3,-1
 565 188 l 1,4,-1
 768 754 l 1,5,-1
 923 754 l 1,6,-1
 1114 184 l 1,7,-1
 1325 752 l 1,8,-1
 1235 752 l 1,9,-1
 1235 879 l 1,10,-1
 1636 879 l 1,11,-1
 1636 752 l 1,12,-1
 1462 752 l 1,13,-1
 1177 0 l 1,14,-1
 1022 0 l 1,15,-1
 835 553 l 1,16,-1
 635 0 l 1,17,-1
 477 0 l 1,18,-1
 202 752 l 1,19,-1
 30 752 l 1,20,-1
 30 879 l 1,0,-1
EndSplineSet
EndChar

StartChar: x
Encoding: 120 120 91
Width: 1247
GlyphClass: 2
Flags: W
HStem: 0 127<72 250 416 506 725 817 1020 1192> 752 127<72 225 426 537 745 836 1001 1155>
LayerCount: 2
Fore
SplineSet
725 127 m 1,0,-1
 817 127 l 1,1,-1
 604 350 l 1,2,-1
 416 127 l 1,3,-1
 506 127 l 1,4,-1
 506 0 l 1,5,-1
 72 0 l 1,6,-1
 72 127 l 1,7,-1
 250 127 l 1,8,-1
 516 444 l 1,9,-1
 225 752 l 1,10,-1
 72 752 l 1,11,-1
 72 879 l 1,12,-1
 537 879 l 1,13,-1
 537 752 l 1,14,-1
 426 752 l 1,15,-1
 645 520 l 1,16,-1
 836 752 l 1,17,-1
 745 752 l 1,18,-1
 745 879 l 1,19,-1
 1155 879 l 1,20,-1
 1155 752 l 1,21,-1
 1001 752 l 1,22,-1
 731 430 l 1,23,-1
 1020 127 l 1,24,-1
 1192 127 l 1,25,-1
 1192 0 l 1,26,-1
 725 0 l 1,27,-1
 725 127 l 1,0,-1
EndSplineSet
EndChar

StartChar: y
Encoding: 121 121 92
Width: 1188
GlyphClass: 2
Flags: W
HStem: -457 125<251.687 465.976> -440.5 127.5<247.97 355.312 357.809 363.53 364.532 482.271> 752 127<30 176 340 456 749 862 995 1159>
LayerCount: 2
Fore
SplineSet
30 879 m 1,0,-1
 456 879 l 1,1,-1
 456 752 l 1,2,-1
 340 752 l 1,3,-1
 616 59 l 1,4,-1
 862 752 l 1,5,-1
 749 752 l 1,6,-1
 749 879 l 1,7,-1
 1159 879 l 1,8,-1
 1159 752 l 1,9,-1
 995 752 l 1,10,-1
 655 -203 l 2,11,12
 632 -268 632 -268 604 -315.5 c 128,-1,13
 576 -363 576 -363 540 -394.5 c 128,-1,14
 504 -426 504 -426 459 -441.5 c 128,-1,15
 414 -457 414 -457 356 -457 c 0,16,17
 334 -457 334 -457 310.5 -454 c 128,-1,18
 287 -451 287 -451 268 -447.5 c 128,-1,19
 249 -444 249 -444 237 -440.5 c 128,-1,20
 225 -437 225 -437 225 -436 c 2,21,-1
 251 -313 l 1,22,23
 273 -319 273 -319 293 -323 c 0,24,25
 310 -327 310 -327 329.5 -329.5 c 128,-1,26
 349 -332 349 -332 364 -332 c 0,27,28
 381 -332 381 -332 402.5 -326.5 c 128,-1,29
 424 -321 424 -321 446 -305 c 128,-1,30
 468 -289 468 -289 489.5 -259.5 c 128,-1,31
 511 -230 511 -230 528 -182 c 2,32,-1
 544 -135 l 1,33,-1
 176 752 l 1,34,-1
 30 752 l 1,35,-1
 30 879 l 1,0,-1
EndSplineSet
EndChar

StartChar: z
Encoding: 122 122 93
Width: 954
GlyphClass: 2
Flags: W
HStem: 0 127<286 716> 752 127<249 642>
LayerCount: 2
Fore
SplineSet
95 666 m 1,0,-1
 134 879 l 1,1,-1
 830 879 l 1,2,-1
 830 776 l 1,3,-1
 286 127 l 1,4,-1
 716 127 l 1,5,-1
 738 250 l 1,6,-1
 875 225 l 1,7,-1
 832 0 l 1,8,-1
 103 0 l 1,9,-1
 103 109 l 1,10,-1
 642 752 l 1,11,-1
 249 752 l 1,12,-1
 228 637 l 1,13,-1
 95 666 l 1,0,-1
EndSplineSet
EndChar

StartChar: braceleft
Encoding: 123 123 94
Width: 631
GlyphClass: 2
Flags: W
HStem: -268 125<444.226 544.064> 467 113<30 224.579> 1210 125<444.226 544.064>
VStem: 233 145<-75.5784 465.164 581.198 1142.58>
LayerCount: 2
Fore
SplineSet
542 -268 m 1,0,1
 378 -256 378 -256 305.5 -169 c 128,-1,2
 233 -82 233 -82 233 76 c 2,3,-1
 233 305 l 2,4,5
 233 324 233 324 233 352 c 128,-1,6
 233 380 233 380 228.5 405.5 c 128,-1,7
 224 431 224 431 212.5 449 c 128,-1,8
 201 467 201 467 178 467 c 2,9,-1
 30 467 l 1,10,-1
 30 580 l 1,11,-1
 178 580 l 2,12,13
 201 580 201 580 212.5 598 c 128,-1,14
 224 616 224 616 228.5 641.5 c 128,-1,15
 233 667 233 667 233 694.5 c 128,-1,16
 233 722 233 722 233 741 c 2,17,-1
 233 991 l 2,18,19
 233 1149 233 1149 305.5 1236 c 128,-1,20
 378 1323 378 1323 542 1335 c 1,21,-1
 560 1210 l 1,22,23
 502 1203 502 1203 466 1181.5 c 128,-1,24
 430 1160 430 1160 410.5 1127 c 128,-1,25
 391 1094 391 1094 384.5 1050.5 c 128,-1,26
 378 1007 378 1007 378 958 c 2,27,-1
 378 700 l 2,28,29
 378 626 378 626 350 585 c 128,-1,30
 322 544 322 544 274 522 c 1,31,32
 322 502 322 502 350 460 c 128,-1,33
 378 418 378 418 378 346 c 2,34,-1
 378 109 l 2,35,36
 378 59 378 59 384.5 16 c 128,-1,37
 391 -27 391 -27 410.5 -60 c 128,-1,38
 430 -93 430 -93 466 -114.5 c 128,-1,39
 502 -136 502 -136 560 -143 c 1,40,-1
 542 -268 l 1,0,1
EndSplineSet
EndChar

StartChar: bar
Encoding: 124 124 95
Width: 459
GlyphClass: 2
Flags: W
VStem: 157 145<-424 1337>
LayerCount: 2
Fore
SplineSet
157 1337 m 1,0,-1
 302 1337 l 1,1,-1
 302 -424 l 1,2,-1
 157 -424 l 1,3,-1
 157 1337 l 1,0,-1
EndSplineSet
EndChar

StartChar: braceright
Encoding: 125 125 96
Width: 632
GlyphClass: 2
Flags: W
HStem: -268 125<87.8209 187.774> 467 113<407.421 602> 1210 125<87.8209 187.774>
VStem: 254 145<-75.5784 465.164 581.198 1142.58>
LayerCount: 2
Fore
SplineSet
71 -143 m 1,0,1
 129 -136 129 -136 165 -114.5 c 128,-1,2
 201 -93 201 -93 221 -60 c 128,-1,3
 241 -27 241 -27 247.5 16 c 128,-1,4
 254 59 254 59 254 109 c 2,5,-1
 254 346 l 2,6,7
 254 418 254 418 282 460 c 128,-1,8
 310 502 310 502 358 522 c 1,9,10
 310 544 310 544 282 585 c 128,-1,11
 254 626 254 626 254 700 c 2,12,-1
 254 958 l 2,13,14
 254 1007 254 1007 247.5 1050.5 c 128,-1,15
 241 1094 241 1094 221 1127 c 128,-1,16
 201 1160 201 1160 165 1181.5 c 128,-1,17
 129 1203 129 1203 71 1210 c 1,18,-1
 90 1335 l 1,19,20
 254 1323 254 1323 326.5 1236 c 128,-1,21
 399 1149 399 1149 399 991 c 2,22,-1
 399 741 l 2,23,24
 399 722 399 722 399 694.5 c 128,-1,25
 399 667 399 667 403.5 641.5 c 128,-1,26
 408 616 408 616 419.5 598 c 128,-1,27
 431 580 431 580 454 580 c 2,28,-1
 602 580 l 1,29,-1
 602 467 l 1,30,-1
 454 467 l 2,31,32
 431 467 431 467 419.5 449 c 128,-1,33
 408 431 408 431 403.5 405.5 c 128,-1,34
 399 380 399 380 399 352 c 128,-1,35
 399 324 399 324 399 305 c 2,36,-1
 399 76 l 2,37,38
 399 -82 399 -82 326.5 -169 c 128,-1,39
 254 -256 254 -256 90 -268 c 1,40,-1
 71 -143 l 1,0,1
EndSplineSet
EndChar

StartChar: asciitilde
Encoding: 126 126 97
Width: 1057
GlyphClass: 2
Flags: W
HStem: 352 135<543.109 822.529> 435.5 134.5<231.139 511.992>
LayerCount: 2
Fore
SplineSet
519 387 m 0,0,1
 499 398 499 398 474.5 408.5 c 128,-1,2
 450 419 450 419 424 426.5 c 128,-1,3
 398 434 398 434 372.5 435.5 c 128,-1,4
 347 437 347 437 325 430 c 0,5,6
 299 422 299 422 277 412.5 c 128,-1,7
 255 403 255 403 239.5 395 c 128,-1,8
 224 387 224 387 215.5 382 c 128,-1,9
 207 377 207 377 208 377 c 2,10,-1
 138 487 l 1,11,12
 158 500 158 500 181 512 c 0,13,14
 201 523 201 523 224.5 534.5 c 128,-1,15
 248 546 248 546 273 555 c 0,16,17
 310 568 310 568 347.5 570 c 128,-1,18
 385 572 385 572 419.5 567.5 c 128,-1,19
 454 563 454 563 483.5 554 c 128,-1,20
 513 545 513 545 536 535 c 0,21,22
 557 526 557 526 581.5 515 c 128,-1,23
 606 504 606 504 631.5 496.5 c 128,-1,24
 657 489 657 489 682.5 487 c 128,-1,25
 708 485 708 485 730 492 c 0,26,27
 756 500 756 500 778.5 510 c 128,-1,28
 801 520 801 520 816.5 528.5 c 128,-1,29
 832 537 832 537 841 543 c 128,-1,30
 850 549 850 549 849 549 c 2,31,-1
 919 438 l 1,32,33
 898 424 898 424 875 411 c 0,34,35
 855 400 855 400 830.5 387.5 c 128,-1,36
 806 375 806 375 781 367 c 0,37,38
 744 354 744 354 706.5 351 c 128,-1,39
 669 348 669 348 634.5 352 c 128,-1,40
 600 356 600 356 570.5 365.5 c 128,-1,41
 541 375 541 375 519 387 c 0,0,1
EndSplineSet
EndChar

StartChar: exclamdown
Encoding: 161 161 99
Width: 462
GlyphClass: 2
Flags: W
HStem: -426 21G<152 314> 655 254<134.363 324.309>
VStem: 103 254<687.691 877.294> 152 162<-426 103.859> 170 119<-31.8586 498>
LayerCount: 2
Fore
SplineSet
314 -426 m 1,0,-1
 152 -426 l 1,1,-1
 170 498 l 1,2,-1
 289 498 l 1,3,-1
 314 -426 l 1,0,-1
357 782 m 0,4,5
 357 757 357 757 346.5 734 c 128,-1,6
 336 711 336 711 318.5 693.5 c 128,-1,7
 301 676 301 676 278 665.5 c 128,-1,8
 255 655 255 655 230 655 c 0,9,10
 204 655 204 655 180.5 665.5 c 128,-1,11
 157 676 157 676 140 693.5 c 128,-1,12
 123 711 123 711 113 734 c 128,-1,13
 103 757 103 757 103 782 c 0,14,15
 103 808 103 808 113 831 c 128,-1,16
 123 854 123 854 140 871.5 c 128,-1,17
 157 889 157 889 180.5 899 c 128,-1,18
 204 909 204 909 230 909 c 0,19,20
 255 909 255 909 278 899 c 128,-1,21
 301 889 301 889 318.5 871.5 c 128,-1,22
 336 854 336 854 346.5 831 c 128,-1,23
 357 808 357 808 357 782 c 0,4,5
EndSplineSet
EndChar

StartChar: cent
Encoding: 162 162 100
Width: 939
GlyphClass: 2
Flags: W
HStem: 135 131<345.739 438 580 722.369> 930 133<341.045 438 580 681.715> 1315 20G<438 580>
VStem: 70 164<388.756 810.744> 438 142<-154 142.477 270 930 1063 1335>
LayerCount: 2
Fore
SplineSet
709 770 m 1,0,-1
 682 911 l 1,1,2
 673 916 673 916 648 923.5 c 128,-1,3
 623 931 623 931 580 936 c 1,4,-1
 580 266 l 1,5,6
 625 273 625 273 664 287 c 128,-1,7
 703 301 703 301 732 315 c 0,8,9
 766 332 766 332 795 350 c 1,10,-1
 862 250 l 2,11,12
 862 249 862 249 840.5 234 c 128,-1,13
 819 219 819 219 781 199.5 c 128,-1,14
 743 180 743 180 691.5 161.5 c 128,-1,15
 640 143 640 143 580 135 c 1,16,-1
 580 -154 l 1,17,-1
 438 -154 l 1,18,-1
 438 135 l 1,19,20
 355 147 355 147 287 184.5 c 128,-1,21
 219 222 219 222 171 281 c 128,-1,22
 123 340 123 340 96.5 420.5 c 128,-1,23
 70 501 70 501 70 600 c 0,24,25
 70 698 70 698 96.5 778.5 c 128,-1,26
 123 859 123 859 171 918 c 128,-1,27
 219 977 219 977 287 1014 c 128,-1,28
 355 1051 355 1051 438 1063 c 1,29,-1
 438 1335 l 1,30,-1
 580 1335 l 1,31,-1
 580 1067 l 1,32,33
 634 1063 634 1063 675 1055.5 c 128,-1,34
 716 1048 716 1048 743 1040 c 0,35,36
 775 1030 775 1030 797 1020 c 1,37,-1
 840 799 l 1,38,-1
 709 770 l 1,0,-1
234 600 m 256,39,40
 234 463 234 463 284.5 378 c 128,-1,41
 335 293 335 293 438 270 c 1,42,-1
 438 930 l 1,43,44
 335 907 335 907 284.5 822 c 128,-1,45
 234 737 234 737 234 600 c 256,39,40
EndSplineSet
EndChar

StartChar: sterling
Encoding: 163 163 101
Width: 1017
GlyphClass: 2
Flags: W
HStem: -31 148<537.533 849.727> 55 125<344 512.994> 528 142<126 277 451 732> 893 21G<728.702 869> 1100 137<484.394 700.436>
VStem: 269 164<670 1048.59> 302 158<275.852 528>
LayerCount: 2
Fore
SplineSet
126 670 m 1,0,-1
 277 670 l 1,1,2
 272 739 272 739 270.5 799 c 128,-1,3
 269 859 269 859 269 911 c 0,4,5
 269 983 269 983 293.5 1043 c 128,-1,6
 318 1103 318 1103 362 1146 c 128,-1,7
 406 1189 406 1189 467 1213 c 128,-1,8
 528 1237 528 1237 601 1237 c 0,9,10
 646 1237 646 1237 679 1231 c 128,-1,11
 712 1225 712 1225 738.5 1214.5 c 128,-1,12
 765 1204 765 1204 787 1190 c 128,-1,13
 809 1176 809 1176 832 1159 c 1,14,-1
 869 911 l 1,15,-1
 732 893 l 1,16,-1
 701 1081 l 1,17,18
 683 1089 683 1089 660 1094.5 c 128,-1,19
 637 1100 637 1100 603 1100 c 0,20,21
 528 1100 528 1100 480.5 1052.5 c 128,-1,22
 433 1005 433 1005 433 915 c 0,23,24
 433 901 433 901 433.5 876 c 128,-1,25
 434 851 434 851 435.5 818.5 c 128,-1,26
 437 786 437 786 439 748 c 128,-1,27
 441 710 441 710 443 670 c 1,28,-1
 732 670 l 1,29,-1
 732 528 l 1,30,-1
 451 528 l 1,31,-1
 457 469 l 2,32,33
 459 457 459 457 459.5 444.5 c 128,-1,34
 460 432 460 432 460 420 c 0,35,36
 460 332 460 332 434.5 272 c 128,-1,37
 409 212 409 212 371 170 c 1,38,39
 390 175 390 175 409.5 177.5 c 128,-1,40
 429 180 429 180 449 180 c 0,41,42
 482 180 482 180 513 170 c 128,-1,43
 544 160 544 160 575.5 148.5 c 128,-1,44
 607 137 607 137 640 127 c 128,-1,45
 673 117 673 117 709 117 c 0,46,47
 744 117 744 117 774 126.5 c 128,-1,48
 804 136 804 136 827 148 c 0,49,50
 853 162 853 162 875 180 c 1,51,-1
 951 61 l 1,52,53
 941 54 941 54 929 46 c 0,54,55
 918 39 918 39 904.5 31 c 128,-1,56
 891 23 891 23 877 16 c 0,57,58
 837 -2 837 -2 787.5 -16.5 c 128,-1,59
 738 -31 738 -31 695 -31 c 0,60,61
 661 -31 661 -31 631.5 -26 c 128,-1,62
 602 -21 602 -21 578 -14.5 c 128,-1,63
 554 -8 554 -8 537 -1 c 128,-1,64
 520 6 520 6 513 10 c 0,65,66
 482 26 482 26 444 40.5 c 128,-1,67
 406 55 406 55 361 55 c 0,68,69
 327 55 327 55 294 43.5 c 128,-1,70
 261 32 261 32 234 17.5 c 128,-1,71
 207 3 207 3 189 -10.5 c 128,-1,72
 171 -24 171 -24 167 -27 c 1,73,-1
 85 82 l 1,74,75
 91 87 91 87 98 92 c 0,76,77
 104 97 104 97 111.5 103 c 128,-1,78
 119 109 119 109 128 117 c 0,79,80
 151 137 151 137 181 168.5 c 128,-1,81
 211 200 211 200 238 242.5 c 128,-1,82
 265 285 265 285 283.5 338 c 128,-1,83
 302 391 302 391 302 453 c 0,84,85
 302 465 302 465 301 478.5 c 128,-1,86
 300 492 300 492 298 506 c 2,87,-1
 294 528 l 1,88,-1
 126 528 l 1,89,-1
 126 670 l 1,0,-1
EndSplineSet
EndChar

StartChar: currency
Encoding: 164 164 102
Width: 1080
GlyphClass: 2
Flags: W
HStem: 143 117<409.201 676.534> 702 117<411.383 674.976> 867 20G<180.422 223.217 856.619 899.458>
VStem: 192 133<346.013 614.534> 761 136<345.176 615.058>
LayerCount: 2
Fore
SplineSet
192 479 m 256,0,1
 192 538 192 538 210 589.5 c 128,-1,2
 228 641 228 641 260 684 c 1,3,-1
 120 778 l 1,4,-1
 194 887 l 1,5,-1
 362 772 l 1,6,7
 400 795 400 795 446.5 807 c 128,-1,8
 493 819 493 819 542 819 c 0,9,10
 592 819 592 819 636 807.5 c 128,-1,11
 680 796 680 796 720 774 c 1,12,-1
 886 887 l 1,13,-1
 958 780 l 1,14,-1
 823 688 l 1,15,16
 858 645 858 645 877.5 592 c 128,-1,17
 897 539 897 539 897 479 c 0,18,19
 897 420 897 420 879 369 c 128,-1,20
 861 318 861 318 829 276 c 1,21,-1
 960 190 l 1,22,-1
 886 82 l 1,23,-1
 725 188 l 1,24,25
 684 167 684 167 638.5 155 c 128,-1,26
 593 143 593 143 542 143 c 256,27,28
 491 143 491 143 444.5 155 c 128,-1,29
 398 167 398 167 358 190 c 1,30,-1
 194 80 l 1,31,-1
 120 188 l 1,32,-1
 258 279 l 1,33,34
 227 321 227 321 209.5 370.5 c 128,-1,35
 192 420 192 420 192 479 c 256,0,1
325 479 m 0,36,37
 325 434 325 434 342 394 c 128,-1,38
 359 354 359 354 388 324 c 128,-1,39
 417 294 417 294 457 277 c 128,-1,40
 497 260 497 260 542 260 c 0,41,42
 589 260 589 260 629 277 c 128,-1,43
 669 294 669 294 698.5 324 c 128,-1,44
 728 354 728 354 744.5 394 c 128,-1,45
 761 434 761 434 761 479 c 0,46,47
 761 525 761 525 744.5 565.5 c 128,-1,48
 728 606 728 606 698.5 636.5 c 128,-1,49
 669 667 669 667 629 684.5 c 128,-1,50
 589 702 589 702 542 702 c 0,51,52
 497 702 497 702 457 684.5 c 128,-1,53
 417 667 417 667 388 636.5 c 128,-1,54
 359 606 359 606 342 565.5 c 128,-1,55
 325 525 325 525 325 479 c 0,36,37
EndSplineSet
EndChar

StartChar: yen
Encoding: 165 165 103
Width: 1438
GlyphClass: 2
Flags: W
HStem: 0 141<444 637 799 991> 270 119<301 637 801 1135> 483 119<301 608 827 1135> 1065 141<61 233 442 551 893 1006 1182 1378>
VStem: 637 164<141 270 389 483>
LayerCount: 2
Fore
SplineSet
61 1206 m 1,0,-1
 551 1206 l 1,1,-1
 551 1065 l 1,2,-1
 442 1065 l 1,3,-1
 731 705 l 1,4,-1
 1006 1065 l 1,5,-1
 893 1065 l 1,6,-1
 893 1206 l 1,7,-1
 1378 1206 l 1,8,-1
 1378 1065 l 1,9,-1
 1182 1065 l 1,10,-1
 827 602 l 1,11,-1
 1135 602 l 1,12,-1
 1135 483 l 1,13,-1
 801 483 l 1,14,-1
 801 389 l 1,15,-1
 1135 389 l 1,16,-1
 1135 270 l 1,17,-1
 801 270 l 1,18,-1
 799 141 l 1,19,-1
 991 141 l 1,20,-1
 991 0 l 1,21,-1
 444 0 l 1,22,-1
 444 141 l 1,23,-1
 637 141 l 1,24,-1
 637 270 l 1,25,-1
 301 270 l 1,26,-1
 301 389 l 1,27,-1
 637 389 l 1,28,-1
 637 483 l 1,29,-1
 301 483 l 1,30,-1
 301 602 l 1,31,-1
 608 602 l 1,32,-1
 233 1065 l 1,33,-1
 61 1065 l 1,34,-1
 61 1206 l 1,0,-1
EndSplineSet
EndChar

StartChar: brokenbar
Encoding: 166 166 104
Width: 472
GlyphClass: 2
Flags: W
VStem: 164 144<-428 295 614 1337>
LayerCount: 2
Fore
SplineSet
164 1337 m 1,0,-1
 308 1337 l 1,1,-1
 308 614 l 1,2,-1
 164 614 l 1,3,-1
 164 1337 l 1,0,-1
164 295 m 1,4,-1
 308 295 l 1,5,-1
 308 -428 l 1,6,-1
 164 -428 l 1,7,-1
 164 295 l 1,4,-1
EndSplineSet
EndChar

StartChar: section
Encoding: 167 167 105
Width: 1000
GlyphClass: 2
Flags: W
HStem: -193 134<297.563 666.893> 1120 117<327.669 688.644>
VStem: 119 151<456.441 640.749> 129 153<919.227 1074.43> 727 151<-3.71484 156.596 418.995 615.56>
LayerCount: 2
Fore
SplineSet
713 950 m 1,0,-1
 688 1087 l 1,1,2
 662 1098 662 1098 617.5 1109 c 128,-1,3
 573 1120 573 1120 508 1120 c 0,4,5
 460 1120 460 1120 419 1112 c 128,-1,6
 378 1104 378 1104 347.5 1088 c 128,-1,7
 317 1072 317 1072 299.5 1048 c 128,-1,8
 282 1024 282 1024 282 993 c 0,9,10
 282 961 282 961 306 937 c 128,-1,11
 330 913 330 913 364.5 894.5 c 128,-1,12
 399 876 399 876 438 863.5 c 128,-1,13
 477 851 477 851 508 844 c 1,14,15
 591 822 591 822 661 796.5 c 128,-1,16
 731 771 731 771 782 736.5 c 128,-1,17
 833 702 833 702 862 655.5 c 128,-1,18
 891 609 891 609 891 545 c 0,19,20
 891 506 891 506 869 468.5 c 128,-1,21
 847 431 847 431 816 400.5 c 128,-1,22
 785 370 785 370 751.5 347.5 c 128,-1,23
 718 325 718 325 696 315 c 1,24,25
 737 298 737 298 770.5 277.5 c 128,-1,26
 804 257 804 257 828 230.5 c 128,-1,27
 852 204 852 204 865 170.5 c 128,-1,28
 878 137 878 137 878 94 c 0,29,30
 878 27 878 27 845.5 -26 c 128,-1,31
 813 -79 813 -79 760.5 -116 c 128,-1,32
 708 -153 708 -153 642.5 -173 c 128,-1,33
 577 -193 577 -193 510 -193 c 0,34,35
 433 -193 433 -193 372 -177 c 128,-1,36
 311 -161 311 -161 268 -141.5 c 128,-1,37
 225 -122 225 -122 201 -105.5 c 128,-1,38
 177 -89 177 -89 176 -88 c 2,39,-1
 143 92 l 1,40,-1
 268 117 l 1,41,-1
 291 -10 l 1,42,43
 317 -29 317 -29 366.5 -44 c 128,-1,44
 416 -59 416 -59 498 -59 c 0,45,46
 535 -59 535 -59 575.5 -50 c 128,-1,47
 616 -41 616 -41 650 -24 c 128,-1,48
 684 -7 684 -7 705.5 18.5 c 128,-1,49
 727 44 727 44 727 76 c 0,50,51
 727 116 727 116 699.5 142.5 c 128,-1,52
 672 169 672 169 629.5 186.5 c 128,-1,53
 587 204 587 204 536 216.5 c 128,-1,54
 485 229 485 229 438 242 c 0,55,56
 378 259 378 259 320.5 280 c 128,-1,57
 263 301 263 301 218.5 332.5 c 128,-1,58
 174 364 174 364 146.5 409.5 c 128,-1,59
 119 455 119 455 119 520 c 0,60,61
 119 573 119 573 139.5 611 c 128,-1,62
 160 649 160 649 190 674 c 128,-1,63
 220 699 220 699 254.5 713.5 c 128,-1,64
 289 728 289 728 317 735 c 1,65,66
 278 750 278 750 243.5 770.5 c 128,-1,67
 209 791 209 791 183.5 819.5 c 128,-1,68
 158 848 158 848 143.5 885.5 c 128,-1,69
 129 923 129 923 129 973 c 0,70,71
 129 1029 129 1029 153.5 1077 c 128,-1,72
 178 1125 178 1125 224.5 1160.5 c 128,-1,73
 271 1196 271 1196 338.5 1216.5 c 128,-1,74
 406 1237 406 1237 493 1237 c 0,75,76
 571 1237 571 1237 634 1222 c 128,-1,77
 697 1207 697 1207 739 1190 c 0,78,79
 754 1184 754 1184 766.5 1178 c 128,-1,80
 779 1172 779 1172 787 1167 c 0,81,82
 797 1162 797 1162 805 1157 c 1,83,-1
 837 975 l 1,84,-1
 713 950 l 1,0,-1
739 518 m 0,85,86
 739 560 739 560 715 587.5 c 128,-1,87
 691 615 691 615 651.5 633.5 c 128,-1,88
 612 652 612 652 561.5 665.5 c 128,-1,89
 511 679 511 679 457 692 c 1,90,91
 429 688 429 688 396.5 679.5 c 128,-1,92
 364 671 364 671 336 655.5 c 128,-1,93
 308 640 308 640 289 615 c 128,-1,94
 270 590 270 590 270 553 c 0,95,96
 269 513 269 513 289.5 484 c 128,-1,97
 310 455 310 455 341 434.5 c 128,-1,98
 372 414 372 414 408 401 c 128,-1,99
 444 388 444 388 475 381 c 1,100,101
 503 373 503 373 529 365.5 c 128,-1,102
 555 358 555 358 581 352 c 1,103,104
 605 361 605 361 632.5 377.5 c 128,-1,105
 660 394 660 394 684 416 c 128,-1,106
 708 438 708 438 723.5 463.5 c 128,-1,107
 739 489 739 489 739 518 c 0,85,86
EndSplineSet
EndChar

StartChar: dieresis
Encoding: 168 168 106
Width: 723
GlyphClass: 2
Flags: W
HStem: 997 230<85.6836 265.602 450.447 630.316>
VStem: 61 230<1021.68 1201.6> 426 229<1021.25 1202.03>
LayerCount: 2
Fore
SplineSet
291 1112 m 0,0,1
 291 1088 291 1088 281.5 1067.5 c 128,-1,2
 272 1047 272 1047 256.5 1031 c 128,-1,3
 241 1015 241 1015 220 1006 c 128,-1,4
 199 997 199 997 176 997 c 0,5,6
 152 997 152 997 131.5 1006 c 128,-1,7
 111 1015 111 1015 95 1031 c 128,-1,8
 79 1047 79 1047 70 1067.5 c 128,-1,9
 61 1088 61 1088 61 1112 c 0,10,11
 61 1135 61 1135 70 1156 c 128,-1,12
 79 1177 79 1177 95 1192.5 c 128,-1,13
 111 1208 111 1208 131.5 1217.5 c 128,-1,14
 152 1227 152 1227 176 1227 c 0,15,16
 199 1227 199 1227 220 1217.5 c 128,-1,17
 241 1208 241 1208 256.5 1192.5 c 128,-1,18
 272 1177 272 1177 281.5 1156 c 128,-1,19
 291 1135 291 1135 291 1112 c 0,0,1
655 1112 m 0,20,21
 655 1088 655 1088 646 1067.5 c 128,-1,22
 637 1047 637 1047 621 1031 c 128,-1,23
 605 1015 605 1015 584.5 1006 c 128,-1,24
 564 997 564 997 541 997 c 0,25,26
 517 997 517 997 496 1006 c 128,-1,27
 475 1015 475 1015 459.5 1031 c 128,-1,28
 444 1047 444 1047 435 1067.5 c 128,-1,29
 426 1088 426 1088 426 1112 c 0,30,31
 426 1135 426 1135 435 1156 c 128,-1,32
 444 1177 444 1177 459.5 1192.5 c 128,-1,33
 475 1208 475 1208 496 1217.5 c 128,-1,34
 517 1227 517 1227 541 1227 c 0,35,36
 564 1227 564 1227 584.5 1217.5 c 128,-1,37
 605 1208 605 1208 621 1192.5 c 128,-1,38
 637 1177 637 1177 646 1156 c 128,-1,39
 655 1135 655 1135 655 1112 c 0,20,21
EndSplineSet
EndChar

StartChar: copyright
Encoding: 169 169 107
Width: 1657
GlyphClass: 2
Flags: W
HStem: -129 129<578.838 1067.81> 215 121<711.747 1007.17> 868 123<706.354 1000.56> 1206 129<586.632 1060.66>
VStem: 96 129<354.373 836.109> 467 145<437.122 772.134> 1431 129<358.065 832.134>
LayerCount: 2
Fore
SplineSet
1153 428 m 1,0,-1
 1100 264 l 1,1,2
 1071 250 1071 250 1033 239 c 0,3,4
 1001 230 1001 230 956 222.5 c 128,-1,5
 911 215 911 215 856 215 c 0,6,7
 767 215 767 215 696 239.5 c 128,-1,8
 625 264 625 264 574.5 312.5 c 128,-1,9
 524 361 524 361 496.5 433 c 128,-1,10
 469 505 469 505 467 600 c 1,11,12
 467 697 467 697 494.5 770 c 128,-1,13
 522 843 522 843 572.5 892 c 128,-1,14
 623 941 623 941 695 966 c 128,-1,15
 767 991 767 991 856 991 c 0,16,17
 916 991 916 991 962 980 c 128,-1,18
 1008 969 1008 969 1040 955 c 0,19,20
 1077 939 1077 939 1104 920 c 1,21,-1
 1151 774 l 1,22,-1
 1038 739 l 1,23,-1
 1001 838 l 1,24,25
 987 846 987 846 968 853 c 1,26,27
 951 858 951 858 926.5 863 c 128,-1,28
 902 868 902 868 868 868 c 0,29,30
 800 868 800 868 751.5 848 c 128,-1,31
 703 828 703 828 672 792 c 128,-1,32
 641 756 641 756 626.5 707.5 c 128,-1,33
 612 659 612 659 612 602 c 0,34,35
 612 546 612 546 627.5 497.5 c 128,-1,36
 643 449 643 449 674.5 413 c 128,-1,37
 706 377 706 377 754.5 356.5 c 128,-1,38
 803 336 803 336 868 336 c 0,39,40
 894 336 894 336 918.5 340 c 128,-1,41
 943 344 943 344 961.5 349.5 c 128,-1,42
 980 355 980 355 991.5 360 c 128,-1,43
 1003 365 1003 365 1003 367 c 2,44,-1
 1034 463 l 1,45,-1
 1153 428 l 1,0,-1
96 600 m 0,46,47
 96 761 96 761 151 896 c 128,-1,48
 206 1031 206 1031 304 1128.5 c 128,-1,49
 402 1226 402 1226 536.5 1280.5 c 128,-1,50
 671 1335 671 1335 831 1335 c 0,51,52
 990 1335 990 1335 1124 1280.5 c 128,-1,53
 1258 1226 1258 1226 1354.5 1128.5 c 128,-1,54
 1451 1031 1451 1031 1505.5 896 c 128,-1,55
 1560 761 1560 761 1560 600 c 0,56,57
 1560 495 1560 495 1535.5 400 c 128,-1,58
 1511 305 1511 305 1465.5 224 c 128,-1,59
 1420 143 1420 143 1354.5 78 c 128,-1,60
 1289 13 1289 13 1208 -33 c 128,-1,61
 1127 -79 1127 -79 1032 -104 c 128,-1,62
 937 -129 937 -129 831 -129 c 0,63,64
 671 -129 671 -129 536.5 -74 c 128,-1,65
 402 -19 402 -19 304 78 c 128,-1,66
 206 175 206 175 151 308.5 c 128,-1,67
 96 442 96 442 96 600 c 0,46,47
225 590 m 0,68,69
 225 465 225 465 268 357 c 128,-1,70
 311 249 311 249 389.5 169.5 c 128,-1,71
 468 90 468 90 578.5 45 c 128,-1,72
 689 0 689 0 823 0 c 256,73,74
 957 0 957 0 1068.5 45 c 128,-1,75
 1180 90 1180 90 1260.5 169.5 c 128,-1,76
 1341 249 1341 249 1386 357 c 128,-1,77
 1431 465 1431 465 1431 590 c 0,78,79
 1431 720 1431 720 1386 833 c 128,-1,80
 1341 946 1341 946 1260.5 1028.5 c 128,-1,81
 1180 1111 1180 1111 1068.5 1158.5 c 128,-1,82
 957 1206 957 1206 823 1206 c 256,83,84
 689 1206 689 1206 578.5 1158.5 c 128,-1,85
 468 1111 468 1111 389.5 1028.5 c 128,-1,86
 311 946 311 946 268 833 c 128,-1,87
 225 720 225 720 225 590 c 0,68,69
EndSplineSet
EndChar

StartChar: ordfeminine
Encoding: 170 170 108
Width: 799
GlyphClass: 2
Flags: W
HStem: 326 94<251.87 466.605> 575 93<236.725 475> 813 96<258.503 460.748>
VStem: 113 119<440.115 568.797> 475 117<442.453 575 666 798.82>
LayerCount: 2
Fore
SplineSet
146 748 m 1,0,-1
 168 872 l 1,1,2
 192 882 192 882 221 890 c 0,3,4
 246 897 246 897 280 903 c 128,-1,5
 314 909 314 909 354 909 c 0,6,7
 441 909 441 909 489 885.5 c 128,-1,8
 537 862 537 862 560 826.5 c 128,-1,9
 583 791 583 791 587.5 748 c 128,-1,10
 592 705 592 705 592 666 c 2,11,-1
 592 455 l 1,12,13
 621 445 621 445 653 435 c 128,-1,14
 685 425 685 425 713 416 c 1,15,-1
 682 322 l 1,16,-1
 506 381 l 1,17,18
 474 356 474 356 430 341 c 128,-1,19
 386 326 386 326 332 326 c 0,20,21
 280 326 280 326 239 339.5 c 128,-1,22
 198 353 198 353 170 376 c 128,-1,23
 142 399 142 399 127.5 431 c 128,-1,24
 113 463 113 463 113 500 c 0,25,26
 112 545 112 545 128.5 577 c 128,-1,27
 145 609 145 609 174 629.5 c 128,-1,28
 203 650 203 650 241.5 659 c 128,-1,29
 280 668 280 668 324 668 c 2,30,-1
 475 666 l 1,31,-1
 475 668 l 1,32,-1
 475 682 l 2,33,34
 475 703 475 703 473.5 726 c 128,-1,35
 472 749 472 749 461.5 768.5 c 128,-1,36
 451 788 451 788 427 800.5 c 128,-1,37
 403 813 403 813 359 813 c 0,38,39
 327 813 327 813 300.5 808.5 c 128,-1,40
 274 804 274 804 258 799 c 1,41,-1
 242 729 l 1,42,-1
 146 748 l 1,0,-1
338 420 m 0,43,44
 388 420 388 420 422.5 438 c 128,-1,45
 457 456 457 456 475 471 c 1,46,-1
 475 575 l 1,47,-1
 328 575 l 2,48,49
 309 575 309 575 291.5 572.5 c 128,-1,50
 274 570 274 570 261 562 c 128,-1,51
 248 554 248 554 240 539 c 128,-1,52
 232 524 232 524 232 500 c 0,53,54
 232 459 232 459 262.5 439.5 c 128,-1,55
 293 420 293 420 338 420 c 0,43,44
EndSplineSet
EndChar

StartChar: guillemotleft
Encoding: 171 171 109
Width: 832
GlyphClass: 2
Flags: W
HStem: 865 20G<390.215 433.333>
VStem: 79 635
LayerCount: 2
Fore
SplineSet
507 76 m 1,0,-1
 405 4 l 1,1,-1
 79 444 l 1,2,-1
 405 885 l 1,3,-1
 507 813 l 1,4,-1
 245 444 l 1,5,-1
 507 76 l 1,0,-1
714 207 m 1,6,-1
 601 141 l 1,7,-1
 394 444 l 1,8,-1
 601 748 l 1,9,-1
 714 682 l 1,10,-1
 554 444 l 1,11,-1
 714 207 l 1,6,-1
EndSplineSet
EndChar

StartChar: logicalnot
Encoding: 172 172 110
Width: 1208
GlyphClass: 2
Flags: W
HStem: 733 141<115 891>
VStem: 891 160<453 733>
LayerCount: 2
Fore
SplineSet
115 874 m 1,0,-1
 1051 874 l 1,1,-1
 1051 453 l 1,2,-1
 891 453 l 1,3,-1
 891 733 l 1,4,-1
 115 733 l 1,5,-1
 115 874 l 1,0,-1
EndSplineSet
EndChar

StartChar: uni00AD
Encoding: 173 173 111
Width: 785
GlyphClass: 2
Flags: W
HStem: 481 154<126 659>
VStem: 126 533<481 635>
LayerCount: 2
Fore
SplineSet
126 481 m 1,0,-1
 126 635 l 1,1,-1
 659 635 l 1,2,-1
 659 481 l 1,3,-1
 126 481 l 1,0,-1
EndSplineSet
EndChar

StartChar: registered
Encoding: 174 174 112
Width: 1291
GlyphClass: 2
Flags: W
HStem: 209 102<450.658 836.119> 461 90<407 491 591 653 847 937> 670 92<593 663> 936 88<407 491 593 763.264> 1159 105<454.417 832.335>
VStem: 118 119<528.239 933.137> 491 102<551 670 762 936> 771 105<771.296 927.161> 1054 119<530.862 930.448>
LayerCount: 2
Fore
SplineSet
118 735 m 256,0,1
 118 849 118 849 158 945.5 c 128,-1,2
 198 1042 198 1042 268.5 1113 c 128,-1,3
 339 1184 339 1184 435.5 1224 c 128,-1,4
 532 1264 532 1264 646 1264 c 256,5,6
 760 1264 760 1264 856.5 1224 c 128,-1,7
 953 1184 953 1184 1023.5 1113 c 128,-1,8
 1094 1042 1094 1042 1133.5 945.5 c 128,-1,9
 1173 849 1173 849 1173 735 c 256,10,11
 1173 621 1173 621 1133.5 525 c 128,-1,12
 1094 429 1094 429 1023.5 358.5 c 128,-1,13
 953 288 953 288 856.5 248.5 c 128,-1,14
 760 209 760 209 646 209 c 256,15,16
 532 209 532 209 435.5 248.5 c 128,-1,17
 339 288 339 288 268.5 358.5 c 128,-1,18
 198 429 198 429 158 525 c 128,-1,19
 118 621 118 621 118 735 c 256,0,1
237 727 m 0,20,21
 237 639 237 639 266.5 563 c 128,-1,22
 296 487 296 487 349.5 431 c 128,-1,23
 403 375 403 375 478 343 c 128,-1,24
 553 311 553 311 644 311 c 0,25,26
 734 311 734 311 809.5 343 c 128,-1,27
 885 375 885 375 939 431 c 128,-1,28
 993 487 993 487 1023.5 563 c 128,-1,29
 1054 639 1054 639 1054 727 c 0,30,31
 1054 818 1054 818 1023.5 897 c 128,-1,32
 993 976 993 976 939 1034.5 c 128,-1,33
 885 1093 885 1093 809.5 1126 c 128,-1,34
 734 1159 734 1159 644 1159 c 0,35,36
 553 1159 553 1159 478 1126 c 128,-1,37
 403 1093 403 1093 349.5 1034.5 c 128,-1,38
 296 976 296 976 266.5 897 c 128,-1,39
 237 818 237 818 237 727 c 0,20,21
937 461 m 1,40,-1
 778 461 l 1,41,-1
 663 670 l 1,42,-1
 591 670 l 1,43,-1
 591 551 l 1,44,-1
 653 551 l 1,45,-1
 653 461 l 1,46,-1
 407 461 l 1,47,-1
 407 551 l 1,48,-1
 491 551 l 1,49,-1
 491 936 l 1,50,-1
 407 936 l 1,51,-1
 407 1024 l 1,52,-1
 665 1024 l 2,53,54
 725 1024 725 1024 765.5 1013 c 128,-1,55
 806 1002 806 1002 830.5 980 c 128,-1,56
 855 958 855 958 865.5 924 c 128,-1,57
 876 890 876 890 876 844 c 0,58,59
 876 782 876 782 847.5 743.5 c 128,-1,60
 819 705 819 705 769 688 c 1,61,-1
 847 551 l 1,62,-1
 937 551 l 1,63,-1
 937 461 l 1,40,-1
593 936 m 1,64,-1
 593 762 l 1,65,-1
 667 762 l 2,66,67
 685 762 685 762 703.5 764.5 c 128,-1,68
 722 767 722 767 737 775.5 c 128,-1,69
 752 784 752 784 761.5 800 c 128,-1,70
 771 816 771 816 771 842 c 0,71,72
 771 873 771 873 763.5 891.5 c 128,-1,73
 756 910 756 910 741.5 920 c 128,-1,74
 727 930 727 930 707 933 c 128,-1,75
 687 936 687 936 663 936 c 2,76,-1
 593 936 l 1,64,-1
EndSplineSet
EndChar

StartChar: macron
Encoding: 175 175 113
Width: 750
GlyphClass: 2
Flags: W
HStem: 1024 141<74 686>
VStem: 74 612<1024 1165>
LayerCount: 2
Fore
SplineSet
74 1165 m 1,0,-1
 686 1165 l 1,1,-1
 686 1024 l 1,2,-1
 74 1024 l 1,3,-1
 74 1165 l 1,0,-1
EndSplineSet
EndChar

StartChar: degree
Encoding: 176 176 114
Width: 639
GlyphClass: 2
Flags: W
HStem: 817 101<237.004 387.06> 1135 102<237.004 387.06>
VStem: 111 108<934.528 1118.51> 418 110<940.575 1112.27>
LayerCount: 2
Fore
SplineSet
528 1026 m 256,0,1
 528 975 528 975 511 936 c 128,-1,2
 494 897 494 897 465 870.5 c 128,-1,3
 436 844 436 844 398.5 830.5 c 128,-1,4
 361 817 361 817 319 817 c 0,5,6
 278 817 278 817 240.5 830.5 c 128,-1,7
 203 844 203 844 174.5 870.5 c 128,-1,8
 146 897 146 897 128.5 936 c 128,-1,9
 111 975 111 975 111 1026 c 256,10,11
 111 1077 111 1077 128.5 1116 c 128,-1,12
 146 1155 146 1155 174.5 1182 c 128,-1,13
 203 1209 203 1209 240.5 1223 c 128,-1,14
 278 1237 278 1237 319 1237 c 0,15,16
 361 1237 361 1237 398.5 1223 c 128,-1,17
 436 1209 436 1209 465 1182 c 128,-1,18
 494 1155 494 1155 511 1116 c 128,-1,19
 528 1077 528 1077 528 1026 c 256,0,1
219 1026 m 256,20,21
 219 1000 219 1000 227.5 979.5 c 128,-1,22
 236 959 236 959 250 945.5 c 128,-1,23
 264 932 264 932 282 925 c 128,-1,24
 300 918 300 918 319 918 c 0,25,26
 358 918 358 918 388 945.5 c 128,-1,27
 418 973 418 973 418 1026 c 256,28,29
 418 1079 418 1079 388 1107 c 128,-1,30
 358 1135 358 1135 319 1135 c 0,31,32
 300 1135 300 1135 282 1128 c 128,-1,33
 264 1121 264 1121 250 1107 c 128,-1,34
 236 1093 236 1093 227.5 1072.5 c 128,-1,35
 219 1052 219 1052 219 1026 c 256,20,21
EndSplineSet
EndChar

StartChar: plusminus
Encoding: 177 177 115
Width: 1061
GlyphClass: 2
Flags: W
HStem: 139 142<150 912> 721 141<150 454 607 912>
VStem: 454 153<410 721 862 1171>
LayerCount: 2
Fore
SplineSet
150 862 m 1,0,-1
 454 862 l 1,1,-1
 454 1171 l 1,2,-1
 607 1171 l 1,3,-1
 607 862 l 1,4,-1
 912 862 l 1,5,-1
 912 721 l 1,6,-1
 607 721 l 1,7,-1
 607 410 l 1,8,-1
 454 410 l 1,9,-1
 454 721 l 1,10,-1
 150 721 l 1,11,-1
 150 862 l 1,0,-1
150 281 m 1,12,-1
 912 281 l 1,13,-1
 912 139 l 1,14,-1
 150 139 l 1,15,-1
 150 281 l 1,12,-1
EndSplineSet
EndChar

StartChar: twosuperior
Encoding: 178 178 116
Width: 809
GlyphClass: 2
Flags: W
HStem: 475 104<267 558> 1132 105<252.729 489.773>
VStem: 517 127<907.868 1104.02>
LayerCount: 2
Fore
SplineSet
558 579 m 1,0,-1
 623 684 l 1,1,-1
 714 639 l 1,2,-1
 613 475 l 1,3,-1
 144 475 l 1,4,-1
 122 536 l 1,5,6
 133 586 133 586 157.5 626 c 128,-1,7
 182 666 182 666 213.5 698.5 c 128,-1,8
 245 731 245 731 280.5 758 c 128,-1,9
 316 785 316 785 351 809 c 0,10,11
 382 831 382 831 412 853.5 c 128,-1,12
 442 876 442 876 465.5 900.5 c 128,-1,13
 489 925 489 925 503 952.5 c 128,-1,14
 517 980 517 980 517 1012 c 0,15,16
 517 1033 517 1033 509.5 1054 c 128,-1,17
 502 1075 502 1075 485.5 1092.5 c 128,-1,18
 469 1110 469 1110 442 1121 c 128,-1,19
 415 1132 415 1132 376 1132 c 0,20,21
 339 1132 339 1132 309.5 1119.5 c 128,-1,22
 280 1107 280 1107 259 1092 c 0,23,24
 234 1074 234 1074 214 1053 c 1,25,-1
 128 1134 l 1,26,27
 154 1162 154 1162 191 1185 c 0,28,29
 222 1205 222 1205 268 1221 c 128,-1,30
 314 1237 314 1237 374 1237 c 0,31,32
 436 1237 436 1237 486 1220.5 c 128,-1,33
 536 1204 536 1204 571 1174 c 128,-1,34
 606 1144 606 1144 625 1102.5 c 128,-1,35
 644 1061 644 1061 644 1012 c 0,36,37
 644 964 644 964 625 924.5 c 128,-1,38
 606 885 606 885 575.5 851.5 c 128,-1,39
 545 818 545 818 507 789.5 c 128,-1,40
 469 761 469 761 431 735 c 0,41,42
 403 717 403 717 377.5 699 c 128,-1,43
 352 681 352 681 330 662 c 128,-1,44
 308 643 308 643 292 622.5 c 128,-1,45
 276 602 276 602 267 579 c 1,46,-1
 558 579 l 1,0,-1
EndSplineSet
EndChar

StartChar: threesuperior
Encoding: 179 179 117
Width: 776
GlyphClass: 2
Flags: W
HStem: 457 104<227.231 503.544> 805 106<286 476.384> 1133 104<249.39 489.923>
VStem: 513 125<933.131 1107.83> 532 125<591.09 779.234>
LayerCount: 2
Fore
SplineSet
186 635 m 1,0,1
 210 614 210 614 241 598 c 0,2,3
 267 584 267 584 303 572.5 c 128,-1,4
 339 561 339 561 382 561 c 0,5,6
 419 561 419 561 447 570.5 c 128,-1,7
 475 580 475 580 494 596.5 c 128,-1,8
 513 613 513 613 522.5 635 c 128,-1,9
 532 657 532 657 532 682 c 0,10,11
 532 730 532 730 512 755.5 c 128,-1,12
 492 781 492 781 464 792 c 128,-1,13
 436 803 436 803 405.5 804 c 128,-1,14
 375 805 375 805 354 805 c 2,15,-1
 286 805 l 1,16,-1
 286 911 l 1,17,-1
 380 911 l 2,18,19
 442 911 442 911 477.5 935.5 c 128,-1,20
 513 960 513 960 513 1020 c 0,21,22
 513 1054 513 1054 499.5 1075.5 c 128,-1,23
 486 1097 486 1097 466 1109.5 c 128,-1,24
 446 1122 446 1122 421 1127 c 128,-1,25
 396 1132 396 1132 374 1133 c 1,26,27
 338 1133 338 1133 309.5 1121.5 c 128,-1,28
 281 1110 281 1110 261 1096.5 c 128,-1,29
 241 1083 241 1083 230.5 1070.5 c 128,-1,30
 220 1058 220 1058 219 1057 c 1,31,-1
 128 1145 l 1,32,33
 134 1151 134 1151 153 1166 c 128,-1,34
 172 1181 172 1181 202.5 1197 c 128,-1,35
 233 1213 233 1213 276.5 1225 c 128,-1,36
 320 1237 320 1237 376 1237 c 0,37,38
 434 1237 434 1237 482 1221.5 c 128,-1,39
 530 1206 530 1206 564.5 1177.5 c 128,-1,40
 599 1149 599 1149 618.5 1109 c 128,-1,41
 638 1069 638 1069 638 1020 c 0,42,43
 638 991 638 991 630 966.5 c 128,-1,44
 622 942 622 942 608.5 922.5 c 128,-1,45
 595 903 595 903 577.5 888 c 128,-1,46
 560 873 560 873 542 864 c 1,47,48
 564 856 564 856 585 840 c 128,-1,49
 606 824 606 824 622 801.5 c 128,-1,50
 638 779 638 779 647.5 749.5 c 128,-1,51
 657 720 657 720 657 684 c 0,52,53
 657 641 657 641 642 600 c 128,-1,54
 627 559 627 559 593.5 527.5 c 128,-1,55
 560 496 560 496 507 476.5 c 128,-1,56
 454 457 454 457 378 457 c 0,57,58
 313 457 313 457 263 471.5 c 128,-1,59
 213 486 213 486 178 504 c 0,60,61
 138 524 138 524 108 551 c 1,62,-1
 186 635 l 1,0,1
EndSplineSet
EndChar

StartChar: acute
Encoding: 180 180 118
Width: 760
GlyphClass: 2
Flags: W
HStem: 942 352
VStem: 68 514
LayerCount: 2
Fore
SplineSet
510 1294 m 1,0,-1
 582 1159 l 1,1,-1
 104 942 l 1,2,-1
 68 1008 l 1,3,-1
 510 1294 l 1,0,-1
EndSplineSet
EndChar

StartChar: mu
Encoding: 181 181 119
Width: 1234
GlyphClass: 2
Flags: W
HStem: -459 127<398.141 620.562> -438 114<518.625 622.217> -31 131<425.536 764.496> 859 20G<190 350 825 985>
VStem: 190 160<-285.332 51 183.272 879> 825 160<162 879>
LayerCount: 2
Fore
SplineSet
348 -74 m 2,0,1
 349 -142 349 -142 357 -191 c 128,-1,2
 365 -240 365 -240 384.5 -271.5 c 128,-1,3
 404 -303 404 -303 436.5 -317.5 c 128,-1,4
 469 -332 469 -332 518 -332 c 0,5,6
 538 -332 538 -332 557 -329.5 c 128,-1,7
 576 -327 576 -327 590 -324 c 0,8,9
 607 -320 607 -320 621 -315 c 1,10,-1
 647 -438 l 1,11,12
 615 -449 615 -449 575 -454 c 128,-1,13
 535 -459 535 -459 498 -459 c 0,14,15
 371 -459 371 -459 285 -391 c 0,16,17
 252 -365 252 -365 233 -331 c 128,-1,18
 214 -297 214 -297 204.5 -256.5 c 128,-1,19
 195 -216 195 -216 192.5 -170 c 128,-1,20
 190 -124 190 -124 190 -76 c 2,21,-1
 190 879 l 1,22,-1
 350 879 l 1,23,-1
 350 455 l 2,24,25
 350 363 350 363 359.5 296.5 c 128,-1,26
 369 230 369 230 393.5 186 c 128,-1,27
 418 142 418 142 460 121 c 128,-1,28
 502 100 502 100 567 100 c 0,29,30
 623 100 623 100 669.5 111 c 128,-1,31
 716 122 716 122 751 136 c 0,32,33
 791 152 791 152 825 172 c 1,34,-1
 825 879 l 1,35,-1
 985 879 l 1,36,-1
 985 162 l 1,37,-1
 1178 96 l 1,38,-1
 1137 -35 l 1,39,-1
 858 61 l 1,40,41
 840 50 840 50 810 34.5 c 128,-1,42
 780 19 780 19 741 4.5 c 128,-1,43
 702 -10 702 -10 655 -20.5 c 128,-1,44
 608 -31 608 -31 557 -31 c 0,45,46
 515 -31 515 -31 481 -23 c 128,-1,47
 447 -15 447 -15 421.5 -2.5 c 128,-1,48
 396 10 396 10 377 24.5 c 128,-1,49
 358 39 358 39 346 51 c 1,50,-1
 348 -74 l 2,0,1
EndSplineSet
EndChar

StartChar: paragraph
Encoding: 182 182 120
Width: 1215
GlyphClass: 2
Flags: W
HStem: 0 141<305 504 930 1110> 1065 141<643 790 930 1118>
VStem: 70 573<732.388 1063.95> 504 139<141 614> 790 140<141 1065>
LayerCount: 2
Fore
SplineSet
643 0 m 1,0,-1
 305 0 l 1,1,-1
 305 141 l 1,2,-1
 504 141 l 1,3,-1
 504 614 l 1,4,-1
 430 614 l 2,5,6
 330 614 330 614 261.5 633.5 c 128,-1,7
 193 653 193 653 150.5 691 c 128,-1,8
 108 729 108 729 89 786.5 c 128,-1,9
 70 844 70 844 70 920 c 0,10,11
 70 991 70 991 95 1044.5 c 128,-1,12
 120 1098 120 1098 164.5 1134 c 128,-1,13
 209 1170 209 1170 269 1188 c 128,-1,14
 329 1206 329 1206 399 1206 c 2,15,-1
 1118 1206 l 1,16,-1
 1118 1065 l 1,17,-1
 930 1065 l 1,18,-1
 930 141 l 1,19,-1
 1110 141 l 1,20,-1
 1110 0 l 1,21,-1
 790 0 l 1,22,-1
 790 1065 l 1,23,-1
 643 1065 l 1,24,-1
 643 0 l 1,0,-1
EndSplineSet
EndChar

StartChar: periodcentered
Encoding: 183 183 121
Width: 530
GlyphClass: 2
Flags: W
HStem: 324 254<169.383 360.638>
VStem: 139 253<354.871 546.799>
LayerCount: 2
Fore
SplineSet
392 451 m 256,0,1
 392 425 392 425 381.5 401.5 c 128,-1,2
 371 378 371 378 354 361 c 128,-1,3
 337 344 337 344 314 334 c 128,-1,4
 291 324 291 324 266 324 c 0,5,6
 240 324 240 324 216.5 334 c 128,-1,7
 193 344 193 344 176 361 c 128,-1,8
 159 378 159 378 149 401.5 c 128,-1,9
 139 425 139 425 139 451 c 256,10,11
 139 477 139 477 149 500 c 128,-1,12
 159 523 159 523 176 540.5 c 128,-1,13
 193 558 193 558 216.5 568 c 128,-1,14
 240 578 240 578 266 578 c 0,15,16
 291 578 291 578 314 568 c 128,-1,17
 337 558 337 558 354 540.5 c 128,-1,18
 371 523 371 523 381.5 500 c 128,-1,19
 392 477 392 477 392 451 c 256,0,1
EndSplineSet
EndChar

StartChar: cedilla
Encoding: 184 184 122
Width: 520
GlyphClass: 2
Flags: W
HStem: -457 99<96.8567 339.148> -219 90<258 361.904>
VStem: 156 102<-129 43> 367 112<-344.428 -229.6>
LayerCount: 2
Fore
SplineSet
258 -129 m 1,0,1
 364 -129 364 -129 421.5 -167 c 128,-1,2
 479 -205 479 -205 479 -289 c 0,3,4
 479 -334 479 -334 461 -365.5 c 128,-1,5
 443 -397 443 -397 412.5 -417.5 c 128,-1,6
 382 -438 382 -438 342 -447.5 c 128,-1,7
 302 -457 302 -457 258 -457 c 0,8,9
 208 -457 208 -457 168 -445 c 128,-1,10
 128 -433 128 -433 99.5 -419 c 128,-1,11
 71 -405 71 -405 55.5 -393 c 128,-1,12
 40 -381 40 -381 39 -381 c 2,13,-1
 84 -305 l 1,14,15
 107 -321 107 -321 134 -332 c 0,16,17
 157 -342 157 -342 188 -350 c 128,-1,18
 219 -358 219 -358 254 -358 c 0,19,20
 313 -358 313 -358 340 -340.5 c 128,-1,21
 367 -323 367 -323 367 -289 c 0,22,23
 367 -274 367 -274 362.5 -261 c 128,-1,24
 358 -248 358 -248 343.5 -238.5 c 128,-1,25
 329 -229 329 -229 302.5 -224 c 128,-1,26
 276 -219 276 -219 231 -219 c 2,27,-1
 156 -219 l 1,28,-1
 156 63 l 1,29,30
 157 62 157 62 173 59 c 128,-1,31
 189 56 189 56 208 52 c 0,32,33
 230 48 230 48 258 43 c 1,34,-1
 258 -129 l 1,0,1
EndSplineSet
EndChar

StartChar: onesuperior
Encoding: 185 185 123
Width: 755
GlyphClass: 2
Flags: W
HStem: 461 104<147 351 474 659> 893 21G<169.81 210.38> 1186 20G<371.721 476>
VStem: 351 123<565 1030>
LayerCount: 2
Fore
SplineSet
118 977 m 1,0,-1
 396 1206 l 1,1,-1
 476 1206 l 1,2,-1
 474 565 l 1,3,-1
 659 565 l 1,4,-1
 659 461 l 1,5,-1
 147 461 l 1,6,-1
 147 565 l 1,7,-1
 351 565 l 1,8,-1
 353 1030 l 1,9,-1
 186 893 l 1,10,-1
 118 977 l 1,0,-1
EndSplineSet
EndChar

StartChar: ordmasculine
Encoding: 186 186 124
Width: 781
GlyphClass: 2
Flags: W
HStem: 330 98<273.606 507.388> 811 98<274.274 506.714>
VStem: 112 117<475.693 762.756> 553 116<476.47 761.967>
LayerCount: 2
Fore
SplineSet
389 330 m 0,0,1
 328 330 328 330 277 349.5 c 128,-1,2
 226 369 226 369 189.5 406 c 128,-1,3
 153 443 153 443 132.5 496.5 c 128,-1,4
 112 550 112 550 112 618 c 0,5,6
 112 687 112 687 132.5 741.5 c 128,-1,7
 153 796 153 796 189.5 833 c 128,-1,8
 226 870 226 870 277 889.5 c 128,-1,9
 328 909 328 909 389 909 c 0,10,11
 452 909 452 909 503.5 889.5 c 128,-1,12
 555 870 555 870 592 833 c 128,-1,13
 629 796 629 796 649 741.5 c 128,-1,14
 669 687 669 687 669 618 c 0,15,16
 669 550 669 550 649 496.5 c 128,-1,17
 629 443 629 443 592 406 c 128,-1,18
 555 369 555 369 503.5 349.5 c 128,-1,19
 452 330 452 330 389 330 c 0,0,1
391 811 m 0,20,21
 310 811 310 811 269.5 761 c 128,-1,22
 229 711 229 711 229 618 c 0,23,24
 229 527 229 527 269.5 477.5 c 128,-1,25
 310 428 310 428 391 428 c 0,26,27
 471 428 471 428 512 477.5 c 128,-1,28
 553 527 553 527 553 618 c 0,29,30
 553 711 553 711 512 761 c 128,-1,31
 471 811 471 811 391 811 c 0,20,21
EndSplineSet
EndChar

StartChar: guillemotright
Encoding: 187 187 125
Width: 832
GlyphClass: 2
Flags: W
HStem: 865 20G<398.667 441.785>
VStem: 118 635
LayerCount: 2
Fore
SplineSet
587 444 m 1,0,-1
 325 813 l 1,1,-1
 427 885 l 1,2,-1
 753 444 l 1,3,-1
 427 4 l 1,4,-1
 325 76 l 1,5,-1
 587 444 l 1,0,-1
280 444 m 1,6,-1
 118 682 l 1,7,-1
 231 748 l 1,8,-1
 438 444 l 1,9,-1
 231 141 l 1,10,-1
 118 207 l 1,11,-1
 280 444 l 1,6,-1
EndSplineSet
EndChar

StartChar: onequarter
Encoding: 188 188 126
Width: 1629
GlyphClass: 2
Flags: W
HStem: 2 98<1200 1329 1446 1559> 205 98<1106 1329 1446 1563> 461 104<99 303 426 611> 893 21G<121.81 162.38> 1186 20G<323.721 428> 1315 20G<1072.01 1211>
VStem: 303 123<565 1030> 1329 117<100 205 303 641>
LayerCount: 2
Fore
SplineSet
617 -156 m 1,0,-1
 484 -156 l 1,1,-1
 1080 1335 l 1,2,-1
 1211 1335 l 1,3,-1
 617 -156 l 1,0,-1
1446 205 m 1,4,-1
 1446 100 l 1,5,-1
 1559 100 l 1,6,-1
 1559 2 l 1,7,-1
 1200 2 l 1,8,-1
 1200 100 l 1,9,-1
 1329 100 l 1,10,-1
 1329 205 l 1,11,-1
 973 205 l 1,12,-1
 973 266 l 1,13,-1
 1211 793 l 1,14,-1
 1311 733 l 1,15,-1
 1166 432 l 1,16,-1
 1106 303 l 1,17,-1
 1329 303 l 1,18,-1
 1329 641 l 1,19,-1
 1448 641 l 1,20,-1
 1446 303 l 1,21,-1
 1563 305 l 1,22,-1
 1563 205 l 1,23,-1
 1446 205 l 1,4,-1
70 977 m 1,24,-1
 348 1206 l 1,25,-1
 428 1206 l 1,26,-1
 426 565 l 1,27,-1
 611 565 l 1,28,-1
 611 461 l 1,29,-1
 99 461 l 1,30,-1
 99 565 l 1,31,-1
 303 565 l 1,32,-1
 305 1030 l 1,33,-1
 138 893 l 1,34,-1
 70 977 l 1,24,-1
EndSplineSet
EndChar

StartChar: onehalf
Encoding: 189 189 127
Width: 1703
GlyphClass: 2
Flags: W
HStem: 0 104<1195 1486> 461 104<106 310 433 618> 657 105<1180.73 1417.77> 893 21G<128.81 169.38> 1186 20G<330.721 435> 1315 20G<1064.01 1203>
VStem: 310 123<565 1030> 1445 127<432.868 629.016>
LayerCount: 2
Fore
SplineSet
1486 104 m 1,0,-1
 1551 209 l 1,1,-1
 1642 164 l 1,2,-1
 1541 0 l 1,3,-1
 1072 0 l 1,4,-1
 1050 61 l 1,5,6
 1061 111 1061 111 1085.5 151 c 128,-1,7
 1110 191 1110 191 1141.5 223.5 c 128,-1,8
 1173 256 1173 256 1208.5 283 c 128,-1,9
 1244 310 1244 310 1279 334 c 0,10,11
 1310 356 1310 356 1340 378.5 c 128,-1,12
 1370 401 1370 401 1393.5 425.5 c 128,-1,13
 1417 450 1417 450 1431 477.5 c 128,-1,14
 1445 505 1445 505 1445 537 c 0,15,16
 1445 558 1445 558 1437.5 579 c 128,-1,17
 1430 600 1430 600 1413.5 617.5 c 128,-1,18
 1397 635 1397 635 1370 646 c 128,-1,19
 1343 657 1343 657 1304 657 c 0,20,21
 1267 657 1267 657 1237.5 644.5 c 128,-1,22
 1208 632 1208 632 1187 617 c 0,23,24
 1162 599 1162 599 1142 578 c 1,25,-1
 1056 659 l 1,26,27
 1082 687 1082 687 1119 710 c 0,28,29
 1150 730 1150 730 1196 746 c 128,-1,30
 1242 762 1242 762 1302 762 c 0,31,32
 1364 762 1364 762 1414 745.5 c 128,-1,33
 1464 729 1464 729 1499 699 c 128,-1,34
 1534 669 1534 669 1553 627.5 c 128,-1,35
 1572 586 1572 586 1572 537 c 0,36,37
 1572 489 1572 489 1553 449.5 c 128,-1,38
 1534 410 1534 410 1503.5 376.5 c 128,-1,39
 1473 343 1473 343 1435 314.5 c 128,-1,40
 1397 286 1397 286 1359 260 c 0,41,42
 1331 242 1331 242 1305.5 224 c 128,-1,43
 1280 206 1280 206 1258 187 c 128,-1,44
 1236 168 1236 168 1220 147.5 c 128,-1,45
 1204 127 1204 127 1195 104 c 1,46,-1
 1486 104 l 1,0,-1
77 977 m 1,47,-1
 355 1206 l 1,48,-1
 435 1206 l 1,49,-1
 433 565 l 1,50,-1
 618 565 l 1,51,-1
 618 461 l 1,52,-1
 106 461 l 1,53,-1
 106 565 l 1,54,-1
 310 565 l 1,55,-1
 312 1030 l 1,56,-1
 145 893 l 1,57,-1
 77 977 l 1,47,-1
609 -156 m 1,58,-1
 476 -156 l 1,59,-1
 1072 1335 l 1,60,-1
 1203 1335 l 1,61,-1
 609 -156 l 1,58,-1
EndSplineSet
EndChar

StartChar: threequarters
Encoding: 190 190 128
Width: 1616
GlyphClass: 2
Flags: W
HStem: 0 98<1188 1317 1434 1547> 203 98<1094 1317 1434 1551> 457 104<185.231 461.544> 805 106<244 434.384> 1133 104<207.39 447.923> 1315 20G<1045.01 1184>
VStem: 471 125<933.131 1107.83> 490 125<591.09 779.234> 1317 117<98 203 301 639>
LayerCount: 2
Fore
SplineSet
144 635 m 1,0,1
 168 614 168 614 199 598 c 0,2,3
 225 584 225 584 261 572.5 c 128,-1,4
 297 561 297 561 340 561 c 0,5,6
 377 561 377 561 405 570.5 c 128,-1,7
 433 580 433 580 452 596.5 c 128,-1,8
 471 613 471 613 480.5 635 c 128,-1,9
 490 657 490 657 490 682 c 0,10,11
 490 730 490 730 470 755.5 c 128,-1,12
 450 781 450 781 422 792 c 128,-1,13
 394 803 394 803 363.5 804 c 128,-1,14
 333 805 333 805 312 805 c 2,15,-1
 244 805 l 1,16,-1
 244 911 l 1,17,-1
 338 911 l 2,18,19
 400 911 400 911 435.5 935.5 c 128,-1,20
 471 960 471 960 471 1020 c 0,21,22
 471 1054 471 1054 457.5 1075.5 c 128,-1,23
 444 1097 444 1097 424 1109.5 c 128,-1,24
 404 1122 404 1122 379 1127 c 128,-1,25
 354 1132 354 1132 332 1133 c 1,26,27
 296 1133 296 1133 267.5 1121.5 c 128,-1,28
 239 1110 239 1110 219 1096.5 c 128,-1,29
 199 1083 199 1083 188.5 1070.5 c 128,-1,30
 178 1058 178 1058 177 1057 c 1,31,-1
 86 1145 l 1,32,33
 92 1151 92 1151 111 1166 c 128,-1,34
 130 1181 130 1181 160.5 1197 c 128,-1,35
 191 1213 191 1213 234.5 1225 c 128,-1,36
 278 1237 278 1237 334 1237 c 0,37,38
 392 1237 392 1237 440 1221.5 c 128,-1,39
 488 1206 488 1206 522.5 1177.5 c 128,-1,40
 557 1149 557 1149 576.5 1109 c 128,-1,41
 596 1069 596 1069 596 1020 c 0,42,43
 596 991 596 991 588 966.5 c 128,-1,44
 580 942 580 942 566.5 922.5 c 128,-1,45
 553 903 553 903 535.5 888 c 128,-1,46
 518 873 518 873 500 864 c 1,47,48
 522 856 522 856 543 840 c 128,-1,49
 564 824 564 824 580 801.5 c 128,-1,50
 596 779 596 779 605.5 749.5 c 128,-1,51
 615 720 615 720 615 684 c 0,52,53
 615 641 615 641 600 600 c 128,-1,54
 585 559 585 559 551.5 527.5 c 128,-1,55
 518 496 518 496 465 476.5 c 128,-1,56
 412 457 412 457 336 457 c 0,57,58
 271 457 271 457 221 471.5 c 128,-1,59
 171 486 171 486 136 504 c 0,60,61
 96 524 96 524 66 551 c 1,62,-1
 144 635 l 1,0,1
1434 203 m 1,63,-1
 1434 98 l 1,64,-1
 1547 98 l 1,65,-1
 1547 0 l 1,66,-1
 1188 0 l 1,67,-1
 1188 98 l 1,68,-1
 1317 98 l 1,69,-1
 1317 203 l 1,70,-1
 961 203 l 1,71,-1
 961 264 l 1,72,-1
 1198 791 l 1,73,-1
 1299 731 l 1,74,-1
 1153 430 l 1,75,-1
 1094 301 l 1,76,-1
 1317 301 l 1,77,-1
 1317 639 l 1,78,-1
 1436 639 l 1,79,-1
 1434 301 l 1,80,-1
 1551 303 l 1,81,-1
 1551 203 l 1,82,-1
 1434 203 l 1,63,-1
590 -156 m 1,83,-1
 457 -156 l 1,84,-1
 1053 1335 l 1,85,-1
 1184 1335 l 1,86,-1
 590 -156 l 1,83,-1
EndSplineSet
EndChar

StartChar: questiondown
Encoding: 191 191 129
Width: 871
GlyphClass: 2
Flags: W
HStem: -426 137<291.42 644.026> 625 254<357.363 547.309>
VStem: 61 174<-235.945 -37.5383> 326 254<656.363 846.309> 455 155<225.917 364.792>
LayerCount: 2
Fore
SplineSet
295 164 m 0,0,1
 326 181 326 181 354.5 194.5 c 128,-1,2
 383 208 383 208 405.5 222.5 c 128,-1,3
 428 237 428 237 441.5 253 c 128,-1,4
 455 269 455 269 455 291 c 0,5,6
 455 311 455 311 445.5 327 c 128,-1,7
 436 343 436 343 422 355.5 c 128,-1,8
 408 368 408 368 392.5 377 c 128,-1,9
 377 386 377 386 365 393 c 1,10,-1
 444 502 l 1,11,12
 445 501 445 501 457.5 495 c 128,-1,13
 470 489 470 489 488.5 477 c 128,-1,14
 507 465 507 465 528.5 447.5 c 128,-1,15
 550 430 550 430 568 405 c 128,-1,16
 586 380 586 380 598 348 c 128,-1,17
 610 316 610 316 610 276 c 0,18,19
 610 227 610 227 587.5 190.5 c 128,-1,20
 565 154 565 154 534.5 128 c 128,-1,21
 504 102 504 102 471.5 84.5 c 128,-1,22
 439 67 439 67 418 55 c 0,23,24
 384 36 384 36 351.5 17.5 c 128,-1,25
 319 -1 319 -1 293 -24 c 128,-1,26
 267 -47 267 -47 251 -76.5 c 128,-1,27
 235 -106 235 -106 235 -147 c 0,28,29
 235 -168 235 -168 246.5 -193 c 128,-1,30
 258 -218 258 -218 283 -239 c 128,-1,31
 308 -260 308 -260 347 -274.5 c 128,-1,32
 386 -289 386 -289 440 -289 c 0,33,34
 513 -289 513 -289 563.5 -278.5 c 128,-1,35
 614 -268 614 -268 645 -256 c 1,36,-1
 674 -82 l 1,37,-1
 809 -96 l 1,38,-1
 774 -348 l 1,39,40
 772 -348 772 -348 754 -360 c 128,-1,41
 736 -372 736 -372 697 -387 c 128,-1,42
 658 -402 658 -402 594.5 -414 c 128,-1,43
 531 -426 531 -426 438 -426 c 0,44,45
 335 -426 335 -426 263.5 -397 c 128,-1,46
 192 -368 192 -368 147 -325.5 c 128,-1,47
 102 -283 102 -283 81.5 -234 c 128,-1,48
 61 -185 61 -185 61 -145 c 0,49,50
 61 -45 61 -45 119 28 c 128,-1,51
 177 101 177 101 295 164 c 0,0,1
580 752 m 0,52,53
 580 726 580 726 569.5 702.5 c 128,-1,54
 559 679 559 679 541.5 662 c 128,-1,55
 524 645 524 645 501 635 c 128,-1,56
 478 625 478 625 453 625 c 0,57,58
 427 625 427 625 403.5 635 c 128,-1,59
 380 645 380 645 363 662 c 128,-1,60
 346 679 346 679 336 702.5 c 128,-1,61
 326 726 326 726 326 752 c 0,62,63
 326 777 326 777 336 800 c 128,-1,64
 346 823 346 823 363 840.5 c 128,-1,65
 380 858 380 858 403.5 868.5 c 128,-1,66
 427 879 427 879 453 879 c 0,67,68
 478 879 478 879 501 868.5 c 128,-1,69
 524 858 524 858 541.5 840.5 c 128,-1,70
 559 823 559 823 569.5 800 c 128,-1,71
 580 777 580 777 580 752 c 0,52,53
EndSplineSet
EndChar

StartChar: AE
Encoding: 198 198 136
Width: 1856
GlyphClass: 2
Flags: W
HStem: 0 141<13 218 384 504 769 963 1127 1553> 328 141<588 963> 532 142<1129 1457> 1065 141<592 803 961 965 1129 1512>
VStem: 963 164<141 328 469 532 674 1065>
LayerCount: 2
Fore
SplineSet
769 141 m 1,0,-1
 963 141 l 1,1,-1
 963 328 l 1,2,-1
 500 328 l 1,3,-1
 384 141 l 1,4,-1
 504 141 l 1,5,-1
 504 0 l 1,6,-1
 13 0 l 1,7,-1
 13 141 l 1,8,-1
 218 141 l 1,9,-1
 803 1065 l 1,10,-1
 592 1065 l 1,11,-1
 592 1206 l 1,12,-1
 1623 1206 l 1,13,-1
 1729 891 l 1,14,-1
 1594 846 l 1,15,-1
 1512 1065 l 1,16,-1
 1129 1065 l 1,17,-1
 1129 674 l 1,18,-1
 1457 674 l 1,19,-1
 1457 532 l 1,20,-1
 1127 532 l 1,21,-1
 1127 141 l 1,22,-1
 1553 141 l 1,23,-1
 1635 360 l 1,24,-1
 1770 315 l 1,25,-1
 1664 0 l 1,26,-1
 769 0 l 1,27,-1
 769 141 l 1,0,-1
961 1065 m 1,28,-1
 588 469 l 1,29,-1
 963 469 l 1,30,-1
 965 1065 l 1,31,-1
 961 1065 l 1,28,-1
EndSplineSet
EndChar

StartChar: Ccedilla
Encoding: 199 199 137
Width: 1217
GlyphClass: 2
Flags: W
HStem: -457 95<509.169 744.695> -229 90<659 767.78> -31 140<659.25 931.807> 1098 139<500.704 923.958>
VStem: 112 174<346.207 858.13> 560 99<-139 -29> 771 121<-347.319 -238.937> 972 139<263.442 285.38 900.661 927.986>
LayerCount: 2
Fore
SplineSet
1111 283 m 1,0,-1
 1060 45 l 1,1,2
 1016 24 1016 24 960 7 c 0,3,4
 912 -7 912 -7 844.5 -19 c 128,-1,5
 777 -31 777 -31 694 -31 c 0,6,7
 684 -31 684 -31 675.5 -31 c 128,-1,8
 667 -31 667 -31 659 -29 c 1,9,-1
 659 -139 l 1,10,-1
 667 -139 l 2,11,12
 775 -139 775 -139 833.5 -176 c 128,-1,13
 892 -213 892 -213 892 -295 c 0,14,15
 892 -338 892 -338 873.5 -369 c 128,-1,16
 855 -400 855 -400 824 -419.5 c 128,-1,17
 793 -439 793 -439 751.5 -448 c 128,-1,18
 710 -457 710 -457 665 -457 c 0,19,20
 621 -457 621 -457 584 -447 c 128,-1,21
 547 -437 547 -437 518 -424 c 128,-1,22
 489 -411 489 -411 469.5 -398 c 128,-1,23
 450 -385 450 -385 442 -379 c 1,24,-1
 491 -305 l 1,25,26
 514 -322 514 -322 542 -334 c 1,27,28
 565 -345 565 -345 596.5 -353.5 c 128,-1,29
 628 -362 628 -362 663 -362 c 0,30,31
 720 -362 720 -362 745.5 -342.5 c 128,-1,32
 771 -323 771 -323 771 -295 c 0,33,34
 771 -280 771 -280 766.5 -268 c 128,-1,35
 762 -256 762 -256 748.5 -247.5 c 128,-1,36
 735 -239 735 -239 709 -234 c 128,-1,37
 683 -229 683 -229 640 -229 c 2,38,-1
 560 -229 l 1,39,-1
 560 -16 l 1,40,41
 456 4 456 4 373.5 56 c 128,-1,42
 291 108 291 108 233 187.5 c 128,-1,43
 175 267 175 267 144 372 c 128,-1,44
 113 477 113 477 112 604 c 0,45,46
 111 748 111 748 152 865.5 c 128,-1,47
 193 983 193 983 269 1065.5 c 128,-1,48
 345 1148 345 1148 452.5 1193 c 128,-1,49
 560 1238 560 1238 692 1237 c 0,50,51
 793 1236 793 1236 864.5 1221.5 c 128,-1,52
 936 1207 936 1207 981.5 1189 c 128,-1,53
 1027 1171 1027 1171 1048 1156.5 c 128,-1,54
 1069 1142 1069 1142 1070 1141 c 2,55,-1
 1115 903 l 1,56,-1
 974 872 l 1,57,-1
 933 1049 l 1,58,59
 902 1066 902 1066 843.5 1082 c 128,-1,60
 785 1098 785 1098 694 1098 c 0,61,62
 595 1098 595 1098 519 1063.5 c 128,-1,63
 443 1029 443 1029 391.5 965 c 128,-1,64
 340 901 340 901 313 809.5 c 128,-1,65
 286 718 286 718 286 604 c 0,66,67
 286 487 286 487 313.5 395.5 c 128,-1,68
 341 304 341 304 393.5 240 c 128,-1,69
 446 176 446 176 521.5 142.5 c 128,-1,70
 597 109 597 109 694 109 c 0,71,72
 770 109 770 109 832.5 123.5 c 128,-1,73
 895 138 895 138 933 152 c 1,74,-1
 972 315 l 1,75,-1
 1111 283 l 1,0,-1
EndSplineSet
EndChar

StartChar: Eth
Encoding: 208 208 146
Width: 1381
GlyphClass: 2
Flags: W
HStem: 0 141<102 297 461 871.273> 557 131<102 297 461 692> 1065 141<102 297 461 906.624>
VStem: 297 164<141 557 688 1065> 1093 174<357.552 866.732>
LayerCount: 2
Fore
SplineSet
102 688 m 1,0,-1
 297 688 l 1,1,-1
 297 1065 l 1,2,-1
 102 1065 l 1,3,-1
 102 1206 l 1,4,-1
 647 1206 l 2,5,6
 785 1206 785 1206 899.5 1175.5 c 128,-1,7
 1014 1145 1014 1145 1095.5 1073 c 128,-1,8
 1177 1001 1177 1001 1222 881.5 c 128,-1,9
 1267 762 1267 762 1267 584 c 0,10,11
 1267 449 1267 449 1220.5 340.5 c 128,-1,12
 1174 232 1174 232 1092.5 156.5 c 128,-1,13
 1011 81 1011 81 900.5 40.5 c 128,-1,14
 790 0 790 0 663 0 c 2,15,-1
 102 0 l 1,16,-1
 102 141 l 1,17,-1
 297 141 l 1,18,-1
 297 557 l 1,19,-1
 102 557 l 1,20,-1
 102 688 l 1,0,-1
461 688 m 1,21,-1
 692 688 l 1,22,-1
 692 557 l 1,23,-1
 461 557 l 1,24,-1
 461 141 l 1,25,-1
 626 141 l 2,26,27
 858 141 858 141 975.5 253.5 c 128,-1,28
 1093 366 1093 366 1093 584 c 0,29,30
 1093 732 1093 732 1063.5 825.5 c 128,-1,31
 1034 919 1034 919 977.5 972.5 c 128,-1,32
 921 1026 921 1026 838 1045.5 c 128,-1,33
 755 1065 755 1065 647 1065 c 2,34,-1
 461 1065 l 1,35,-1
 461 688 l 1,21,-1
EndSplineSet
EndChar

StartChar: multiply
Encoding: 215 215 153
Width: 890
GlyphClass: 2
Flags: W
HStem: 326 622
VStem: 132 626
LayerCount: 2
Fore
SplineSet
132 432 m 1,0,-1
 341 633 l 1,1,-1
 132 834 l 1,2,-1
 234 948 l 1,3,-1
 451 739 l 1,4,-1
 660 940 l 1,5,-1
 758 829 l 1,6,-1
 558 637 l 1,7,-1
 762 440 l 1,8,-1
 660 326 l 1,9,-1
 447 530 l 1,10,-1
 230 322 l 1,11,-1
 132 432 l 1,0,-1
EndSplineSet
EndChar

StartChar: Oslash
Encoding: 216 216 154
Width: 1340
GlyphClass: 2
Flags: W
HStem: -31 140<555.278 861.049> 1098 139<478.585 831.651>
VStem: 109 174<333.238 874.464> 1057 174<333.238 874.432>
LayerCount: 2
Fore
SplineSet
1010 1127 m 1,0,1
 1045 1100 1045 1100 1075 1066 c 0,2,3
 1150 984 1150 984 1190.5 867 c 128,-1,4
 1231 750 1231 750 1231 604 c 256,5,6
 1231 458 1231 458 1190.5 340.5 c 128,-1,7
 1150 223 1150 223 1076.5 140.5 c 128,-1,8
 1003 58 1003 58 899.5 13.5 c 128,-1,9
 796 -31 796 -31 670 -31 c 0,10,11
 576 -31 576 -31 495 -6 c 1,12,-1
 434 -141 l 1,13,-1
 283 -141 l 1,14,-1
 370 51 l 1,15,16
 312 88 312 88 265 140 c 0,17,18
 191 223 191 223 150 340.5 c 128,-1,19
 109 458 109 458 109 604 c 256,20,21
 109 750 109 750 149.5 867 c 128,-1,22
 190 984 190 984 264 1066.5 c 128,-1,23
 338 1149 338 1149 440.5 1193 c 128,-1,24
 543 1237 543 1237 668 1237 c 0,25,26
 790 1237 790 1237 891 1195 c 1,27,-1
 954 1333 l 1,28,-1
 1104 1333 l 1,29,-1
 1010 1127 l 1,0,1
670 1098 m 0,30,31
 572 1098 572 1098 499.5 1064.5 c 128,-1,32
 427 1031 427 1031 379 967.5 c 128,-1,33
 331 904 331 904 307 812.5 c 128,-1,34
 283 721 283 721 283 604 c 256,35,36
 283 487 283 487 307 395.5 c 128,-1,37
 331 304 331 304 379 240 c 0,38,39
 402 209 402 209 431 185 c 1,40,-1
 833 1067 l 1,41,42
 762 1098 762 1098 670 1098 c 0,30,31
961 967 m 0,43,44
 954 977 954 977 946 986 c 1,45,-1
 554 123 l 1,46,47
 607 109 607 109 670 109 c 0,48,49
 767 109 767 109 840 142.5 c 128,-1,50
 913 176 913 176 961 240 c 128,-1,51
 1009 304 1009 304 1033 395.5 c 128,-1,52
 1057 487 1057 487 1057 604 c 256,53,54
 1057 721 1057 721 1033 812.5 c 128,-1,55
 1009 904 1009 904 961 967 c 0,43,44
EndSplineSet
EndChar

StartChar: Thorn
Encoding: 222 222 160
Width: 1019
GlyphClass: 2
Flags: W
HStem: 0 141<98 289 453 698> 283 143<455 714.616> 778 142<455 729.035> 1065 141<98 289 455 696>
VStem: 289 166<141 283 426 778 920 1065> 770 174<480.76 737.926>
LayerCount: 2
Fore
SplineSet
455 778 m 1,0,-1
 455 426 l 1,1,-1
 541 426 l 2,2,3
 559 426 559 426 583 427 c 128,-1,4
 607 428 607 428 632.5 433 c 128,-1,5
 658 438 658 438 682.5 449.5 c 128,-1,6
 707 461 707 461 726.5 482 c 128,-1,7
 746 503 746 503 758 535.5 c 128,-1,8
 770 568 770 568 770 616 c 0,9,10
 770 680 770 680 747.5 713 c 128,-1,11
 725 746 725 746 691 760.5 c 128,-1,12
 657 775 657 775 615.5 776.5 c 128,-1,13
 574 778 574 778 537 778 c 2,14,-1
 455 778 l 1,0,-1
98 141 m 1,15,-1
 289 141 l 1,16,-1
 289 1065 l 1,17,-1
 98 1065 l 1,18,-1
 98 1206 l 1,19,-1
 696 1206 l 1,20,-1
 696 1065 l 1,21,-1
 455 1065 l 1,22,-1
 455 920 l 1,23,-1
 553 920 l 2,24,25
 647 920 647 920 720 905.5 c 128,-1,26
 793 891 793 891 843 856 c 128,-1,27
 893 821 893 821 918.5 762.5 c 128,-1,28
 944 704 944 704 944 616 c 0,29,30
 944 535 944 535 918.5 473 c 128,-1,31
 893 411 893 411 847 369 c 128,-1,32
 801 327 801 327 737 305 c 128,-1,33
 673 283 673 283 596 283 c 2,34,-1
 453 283 l 1,35,-1
 453 141 l 1,36,-1
 698 141 l 1,37,-1
 698 0 l 1,38,-1
 98 0 l 1,39,-1
 98 141 l 1,15,-1
EndSplineSet
EndChar

StartChar: germandbls
Encoding: 223 223 161
Width: 1216
GlyphClass: 2
Flags: W
HStem: -31 131<725.617 974.138> 0 127<96 268> 752 127<96 268> 1184 131<486.709 778.547>
VStem: 96 332<0 127 752 879> 268 160<127 752 879 1123.51> 589 160<597.616 771.046> 821 151<955.499 1141.12> 1005 147<132.072 335.856>
LayerCount: 2
Fore
SplineSet
96 127 m 1,0,-1
 268 127 l 1,1,-1
 268 752 l 1,2,-1
 96 752 l 1,3,-1
 96 879 l 1,4,-1
 268 879 l 1,5,-1
 268 969 l 2,6,7
 268 1055 268 1055 288.5 1119.5 c 128,-1,8
 309 1184 309 1184 353 1227.5 c 128,-1,9
 397 1271 397 1271 466.5 1293 c 128,-1,10
 536 1315 536 1315 634 1315 c 0,11,12
 717 1315 717 1315 780.5 1295.5 c 128,-1,13
 844 1276 844 1276 886.5 1241 c 128,-1,14
 929 1206 929 1206 950.5 1158 c 128,-1,15
 972 1110 972 1110 972 1053 c 0,16,17
 972 1002 972 1002 955.5 963 c 128,-1,18
 939 924 939 924 914 892.5 c 128,-1,19
 889 861 889 861 860.5 835.5 c 128,-1,20
 832 810 832 810 807 785 c 128,-1,21
 782 760 782 760 765.5 734.5 c 128,-1,22
 749 709 749 709 749 678 c 0,23,24
 749 652 749 652 760.5 632.5 c 128,-1,25
 772 613 772 613 794.5 597 c 128,-1,26
 817 581 817 581 848.5 567.5 c 128,-1,27
 880 554 880 554 921 539 c 0,28,29
 972 520 972 520 1014 494 c 128,-1,30
 1056 468 1056 468 1087 431.5 c 128,-1,31
 1118 395 1118 395 1135 345 c 128,-1,32
 1152 295 1152 295 1152 229 c 0,33,34
 1152 167 1152 167 1128.5 118.5 c 128,-1,35
 1105 70 1105 70 1065 37 c 128,-1,36
 1025 4 1025 4 972.5 -13.5 c 128,-1,37
 920 -31 920 -31 862 -31 c 0,38,39
 796 -31 796 -31 747.5 -17 c 128,-1,40
 699 -3 699 -3 666 14 c 0,41,42
 627 33 627 33 600 59 c 1,43,-1
 567 242 l 1,44,-1
 700 270 l 1,45,-1
 720 150 l 1,46,47
 734 136 734 136 754 125 c 0,48,49
 771 115 771 115 798.5 107.5 c 128,-1,50
 826 100 826 100 864 100 c 0,51,52
 895 100 895 100 921 109.5 c 128,-1,53
 947 119 947 119 966 136.5 c 128,-1,54
 985 154 985 154 995 177.5 c 128,-1,55
 1005 201 1005 201 1005 229 c 0,56,57
 1005 269 1005 269 990 297 c 128,-1,58
 975 325 975 325 951 344.5 c 128,-1,59
 927 364 927 364 897.5 376.5 c 128,-1,60
 868 389 868 389 839 399 c 0,61,62
 782 419 782 419 735.5 447.5 c 128,-1,63
 689 476 689 476 656.5 510 c 128,-1,64
 624 544 624 544 606.5 583 c 128,-1,65
 589 622 589 622 589 664 c 0,66,67
 589 722 589 722 606 763.5 c 128,-1,68
 623 805 623 805 649 836.5 c 128,-1,69
 675 868 675 868 705 892 c 128,-1,70
 735 916 735 916 761 940 c 128,-1,71
 787 964 787 964 804 990.5 c 128,-1,72
 821 1017 821 1017 821 1053 c 0,73,74
 821 1075 821 1075 810 1098.5 c 128,-1,75
 799 1122 799 1122 776.5 1141 c 128,-1,76
 754 1160 754 1160 721 1172 c 128,-1,77
 688 1184 688 1184 645 1184 c 0,78,79
 579 1184 579 1184 536.5 1168.5 c 128,-1,80
 494 1153 494 1153 470 1121.5 c 128,-1,81
 446 1090 446 1090 437 1043.5 c 128,-1,82
 428 997 428 997 428 936 c 2,83,-1
 428 0 l 1,84,-1
 96 0 l 1,85,-1
 96 127 l 1,0,-1
EndSplineSet
EndChar

StartChar: ae
Encoding: 230 230 168
Width: 1614
GlyphClass: 2
Flags: W
HStem: -31 131<291.133 627.178 961.711 1342.48> 381 129<273.623 685> 397 127<846 1365> 778 131<293.818 634.13 974.723 1292.09>
VStem: 80 164<146.023 350.938> 1365 139<526 700.892>
LayerCount: 2
Fore
SplineSet
1125 -31 m 0,0,1
 1023 -31 1023 -31 940 2 c 128,-1,2
 857 35 857 35 797 98 c 1,3,4
 771 80 771 80 727.5 58 c 128,-1,5
 684 36 684 36 633.5 16 c 128,-1,6
 583 -4 583 -4 530 -17.5 c 128,-1,7
 477 -31 477 -31 433 -31 c 0,8,9
 350 -31 350 -31 285 -10.5 c 128,-1,10
 220 10 220 10 174.5 47 c 128,-1,11
 129 84 129 84 105 133.5 c 128,-1,12
 81 183 81 183 80 242 c 0,13,14
 79 313 79 313 105.5 364 c 128,-1,15
 132 415 132 415 178.5 447.5 c 128,-1,16
 225 480 225 480 287 495 c 128,-1,17
 349 510 349 510 420 510 c 2,18,-1
 685 508 l 1,19,-1
 685 524 l 2,20,21
 685 550 685 550 685.5 578.5 c 128,-1,22
 686 607 686 607 681.5 635.5 c 128,-1,23
 677 664 677 664 666 689.5 c 128,-1,24
 655 715 655 715 632 735 c 128,-1,25
 609 755 609 755 571.5 766.5 c 128,-1,26
 534 778 534 778 478 778 c 0,27,28
 413 778 413 778 366 770 c 128,-1,29
 319 762 319 762 293 754 c 1,30,-1
 273 641 l 1,31,-1
 142 666 l 1,32,-1
 175 852 l 1,33,34
 213 868 213 868 260 880 c 0,35,36
 300 891 300 891 354 900 c 128,-1,37
 408 909 408 909 472 909 c 0,38,39
 538 909 538 909 589 894.5 c 128,-1,40
 640 880 640 880 679 856 c 128,-1,41
 718 832 718 832 745.5 800.5 c 128,-1,42
 773 769 773 769 791 735 c 1,43,44
 821 772 821 772 858.5 804 c 128,-1,45
 896 836 896 836 941 859 c 128,-1,46
 986 882 986 882 1038.5 895.5 c 128,-1,47
 1091 909 1091 909 1150 909 c 0,48,49
 1232 909 1232 909 1303.5 886 c 128,-1,50
 1375 863 1375 863 1424.5 805 c 128,-1,51
 1474 747 1474 747 1496.5 649 c 128,-1,52
 1519 551 1519 551 1504 401 c 1,53,-1
 844 397 l 1,54,55
 852 254 852 254 923 177 c 128,-1,56
 994 100 994 100 1127 100 c 0,57,58
 1199 100 1199 100 1256 115.5 c 128,-1,59
 1313 131 1313 131 1354 150 c 0,60,61
 1402 172 1402 172 1438 201 c 1,62,-1
 1512 104 l 2,63,64
 1512 103 1512 103 1486.5 82 c 128,-1,65
 1461 61 1461 61 1411.5 36 c 128,-1,66
 1362 11 1362 11 1290 -10 c 128,-1,67
 1218 -31 1218 -31 1125 -31 c 0,0,1
441 100 m 0,68,69
 477 100 477 100 516.5 108.5 c 128,-1,70
 556 117 556 117 594.5 130.5 c 128,-1,71
 633 144 633 144 668.5 161 c 128,-1,72
 704 178 704 178 732 195 c 1,73,74
 712 235 712 235 699 280.5 c 128,-1,75
 686 326 686 326 681 379 c 1,76,-1
 425 381 l 2,77,78
 390 381 390 381 357.5 376.5 c 128,-1,79
 325 372 325 372 299.5 358 c 128,-1,80
 274 344 274 344 259 316.5 c 128,-1,81
 244 289 244 289 244 244 c 0,82,83
 244 207 244 207 260 180 c 128,-1,84
 276 153 276 153 303 135 c 128,-1,85
 330 117 330 117 366 108.5 c 128,-1,86
 402 100 402 100 441 100 c 0,68,69
1145 778 m 0,87,88
 1085 778 1085 778 1034 761 c 128,-1,89
 983 744 983 744 944.5 711 c 128,-1,90
 906 678 906 678 880.5 631 c 128,-1,91
 855 584 855 584 846 524 c 1,92,-1
 1365 526 l 1,93,94
 1363 649 1363 649 1311.5 713.5 c 128,-1,95
 1260 778 1260 778 1145 778 c 0,87,88
EndSplineSet
EndChar

StartChar: ccedilla
Encoding: 231 231 169
Width: 964
GlyphClass: 2
Flags: W
HStem: -436 98<360.857 603.148> -199 90<522 626.713> -31 131<523.243 741.121> 778 131<380.167 708.587>
VStem: 96 164<231.376 647.542> 420 102<-109 -31> 631 113<-323.67 -209.27>
LayerCount: 2
Fore
SplineSet
735 610 m 1,0,-1
 709 752 l 1,1,2
 696 758 696 758 656.5 768 c 128,-1,3
 617 778 617 778 545 778 c 0,4,5
 403 778 403 778 331.5 689.5 c 128,-1,6
 260 601 260 601 260 440 c 256,7,8
 260 279 260 279 331.5 189.5 c 128,-1,9
 403 100 403 100 545 100 c 0,10,11
 602 100 602 100 652 113.5 c 128,-1,12
 702 127 702 127 740 144 c 0,13,14
 784 163 784 163 821 188 c 1,15,-1
 889 88 l 2,16,17
 889 87 889 87 861.5 68.5 c 128,-1,18
 834 50 834 50 787 28 c 128,-1,19
 740 6 740 6 677 -12.5 c 128,-1,20
 614 -31 614 -31 543 -31 c 2,21,-1
 522 -31 l 1,22,-1
 522 -109 l 1,23,24
 629 -109 629 -109 686.5 -147 c 128,-1,25
 744 -185 744 -185 744 -268 c 0,26,27
 744 -313 744 -313 726 -344.5 c 128,-1,28
 708 -376 708 -376 677 -396.5 c 128,-1,29
 646 -417 646 -417 606 -426.5 c 128,-1,30
 566 -436 566 -436 522 -436 c 0,31,32
 472 -436 472 -436 432 -424 c 128,-1,33
 392 -412 392 -412 363.5 -398 c 128,-1,34
 335 -384 335 -384 319.5 -372 c 128,-1,35
 304 -360 304 -360 303 -360 c 2,36,-1
 348 -285 l 1,37,38
 371 -301 371 -301 398 -312 c 0,39,40
 421 -322 421 -322 452 -330 c 128,-1,41
 483 -338 483 -338 518 -338 c 0,42,43
 577 -338 577 -338 604 -320 c 128,-1,44
 631 -302 631 -302 631 -268 c 0,45,46
 631 -253 631 -253 626.5 -240 c 128,-1,47
 622 -227 622 -227 608 -218 c 128,-1,48
 594 -209 594 -209 567.5 -204 c 128,-1,49
 541 -199 541 -199 496 -199 c 2,50,-1
 420 -199 l 1,51,-1
 420 -16 l 1,52,53
 346 2 346 2 286 41 c 128,-1,54
 226 80 226 80 184 138 c 128,-1,55
 142 196 142 196 119 272 c 128,-1,56
 96 348 96 348 96 440 c 0,57,58
 96 550 96 550 128.5 637 c 128,-1,59
 161 724 161 724 220.5 784.5 c 128,-1,60
 280 845 280 845 362 877 c 128,-1,61
 444 909 444 909 543 909 c 0,62,63
 615 909 615 909 667 901 c 128,-1,64
 719 893 719 893 754 884 c 0,65,66
 794 873 794 873 823 860 c 1,67,-1
 866 639 l 1,68,-1
 735 610 l 1,0,-1
EndSplineSet
EndChar

StartChar: eth
Encoding: 240 240 178
Width: 1111
GlyphClass: 2
Flags: W
HStem: -33 131<377.853 693.975> 774 131<378.167 743.125> 1315 20G<235.179 282.5>
VStem: 94 164<227.973 643.542> 830 161<256.525 709.51>
LayerCount: 2
Fore
SplineSet
348 1065 m 1,0,-1
 418 1143 l 1,1,2
 372 1164 372 1164 320.5 1184 c 128,-1,3
 269 1204 269 1204 213 1223 c 1,4,-1
 240 1335 l 1,5,6
 325 1311 325 1311 389.5 1289 c 128,-1,7
 454 1267 454 1267 508 1241 c 1,8,-1
 602 1346 l 1,9,-1
 686 1264 l 1,10,-1
 615 1184 l 1,11,12
 618 1182 618 1182 621 1180 c 128,-1,13
 624 1178 624 1178 629 1176 c 1,14,15
 713 1122 713 1122 778.5 1052.5 c 128,-1,16
 844 983 844 983 890.5 901.5 c 128,-1,17
 937 820 937 820 962.5 728 c 128,-1,18
 988 636 988 636 991 537 c 1,19,20
 991 391 991 391 956 283.5 c 128,-1,21
 921 176 921 176 860 105.5 c 128,-1,22
 799 35 799 35 717 1 c 128,-1,23
 635 -33 635 -33 541 -33 c 0,24,25
 453 -33 453 -33 372.5 -4 c 128,-1,26
 292 25 292 25 230 83.5 c 128,-1,27
 168 142 168 142 131 230 c 128,-1,28
 94 318 94 318 94 436 c 0,29,30
 94 546 94 546 126.5 633 c 128,-1,31
 159 720 159 720 218.5 780.5 c 128,-1,32
 278 841 278 841 360 873 c 128,-1,33
 442 905 442 905 541 905 c 0,34,35
 559 905 559 905 582.5 903.5 c 128,-1,36
 606 902 606 902 632.5 897.5 c 128,-1,37
 659 893 659 893 687.5 885.5 c 128,-1,38
 716 878 716 878 744 866 c 1,39,40
 700 939 700 939 646.5 992 c 128,-1,41
 593 1045 593 1045 527 1085 c 1,42,-1
 432 983 l 1,43,-1
 348 1065 l 1,0,-1
543 774 m 0,44,45
 401 774 401 774 329.5 685.5 c 128,-1,46
 258 597 258 597 258 436 c 256,47,48
 258 275 258 275 329.5 186.5 c 128,-1,49
 401 98 401 98 543 98 c 0,50,51
 612 98 612 98 665.5 125 c 128,-1,52
 719 152 719 152 755.5 204 c 128,-1,53
 792 256 792 256 811 331 c 128,-1,54
 830 406 830 406 830 502 c 0,55,56
 830 564 830 564 820.5 610.5 c 128,-1,57
 811 657 811 657 797 707 c 1,58,59
 776 722 776 722 747 734.5 c 128,-1,60
 718 747 718 747 684.5 756 c 128,-1,61
 651 765 651 765 615 769.5 c 128,-1,62
 579 774 579 774 543 774 c 0,44,45
EndSplineSet
EndChar

StartChar: divide
Encoding: 247 247 185
Width: 988
GlyphClass: 2
Flags: W
HStem: 154 254<410.363 600.652> 541 141<113 875> 807 254<410.363 600.652>
VStem: 379 254<184.871 375.816 837.871 1028.82>
LayerCount: 2
Fore
SplineSet
113 682 m 1,0,-1
 875 682 l 1,1,-1
 875 541 l 1,2,-1
 113 541 l 1,3,-1
 113 682 l 1,0,-1
633 281 m 0,4,5
 633 255 633 255 622.5 231.5 c 128,-1,6
 612 208 612 208 595 191 c 128,-1,7
 578 174 578 174 554.5 164 c 128,-1,8
 531 154 531 154 506 154 c 0,9,10
 480 154 480 154 456.5 164 c 128,-1,11
 433 174 433 174 416 191 c 128,-1,12
 399 208 399 208 389 231.5 c 128,-1,13
 379 255 379 255 379 281 c 0,14,15
 379 306 379 306 389 329 c 128,-1,16
 399 352 399 352 416 369.5 c 128,-1,17
 433 387 433 387 456.5 397.5 c 128,-1,18
 480 408 480 408 506 408 c 0,19,20
 531 408 531 408 554.5 397.5 c 128,-1,21
 578 387 578 387 595 369.5 c 128,-1,22
 612 352 612 352 622.5 329 c 128,-1,23
 633 306 633 306 633 281 c 0,4,5
633 934 m 0,24,25
 633 908 633 908 622.5 884.5 c 128,-1,26
 612 861 612 861 595 844 c 128,-1,27
 578 827 578 827 554.5 817 c 128,-1,28
 531 807 531 807 506 807 c 0,29,30
 480 807 480 807 456.5 817 c 128,-1,31
 433 827 433 827 416 844 c 128,-1,32
 399 861 399 861 389 884.5 c 128,-1,33
 379 908 379 908 379 934 c 0,34,35
 379 959 379 959 389 982 c 128,-1,36
 399 1005 399 1005 416 1022.5 c 128,-1,37
 433 1040 433 1040 456.5 1050.5 c 128,-1,38
 480 1061 480 1061 506 1061 c 0,39,40
 531 1061 531 1061 554.5 1050.5 c 128,-1,41
 578 1040 578 1040 595 1022.5 c 128,-1,42
 612 1005 612 1005 622.5 982 c 128,-1,43
 633 959 633 959 633 934 c 0,24,25
EndSplineSet
EndChar

StartChar: oslash
Encoding: 248 248 186
Width: 1089
GlyphClass: 2
Flags: W
HStem: -31 131<477 710.954> 778 131<378.167 618.468>
VStem: 94 164<226.865 646.127> 832 164<230.135 646.3>
LayerCount: 2
Fore
SplineSet
541 -31 m 0,0,1
 479 -31 479 -31 426 -18 c 1,2,-1
 375 -147 l 1,3,-1
 244 -147 l 1,4,-1
 314 23 l 1,5,6
 210 77 210 77 152 183 c 128,-1,7
 94 289 94 289 94 438 c 0,8,9
 94 548 94 548 126.5 635.5 c 128,-1,10
 159 723 159 723 218.5 783.5 c 128,-1,11
 278 844 278 844 360 876.5 c 128,-1,12
 442 909 442 909 541 909 c 0,13,14
 575 909 575 909 607 905 c 128,-1,15
 639 901 639 901 670 893 c 1,16,-1
 721 1020 l 1,17,-1
 850 1020 l 1,18,-1
 780 850 l 1,19,20
 881 794 881 794 938.5 689.5 c 128,-1,21
 996 585 996 585 996 438 c 0,22,23
 996 328 996 328 963 241 c 128,-1,24
 930 154 930 154 870.5 93.5 c 128,-1,25
 811 33 811 33 727 1 c 128,-1,26
 643 -31 643 -31 541 -31 c 0,0,1
543 778 m 0,27,28
 401 778 401 778 329.5 688.5 c 128,-1,29
 258 599 258 599 258 438 c 0,30,31
 258 338 258 338 284.5 266 c 128,-1,32
 311 194 311 194 367 152 c 1,33,-1
 619 770 l 1,34,35
 602 775 602 775 582.5 776.5 c 128,-1,36
 563 778 563 778 543 778 c 0,27,28
832 438 m 0,37,38
 832 534 832 534 806 605.5 c 128,-1,39
 780 677 780 677 727 719 c 1,40,-1
 477 106 l 1,41,42
 508 100 508 100 543 100 c 0,43,44
 688 100 688 100 760 188 c 128,-1,45
 832 276 832 276 832 438 c 0,37,38
EndSplineSet
EndChar

StartChar: thorn
Encoding: 254 254 192
Width: 1086
GlyphClass: 2
Flags: W
HStem: -426 127<-12 160 319 491> -31 131<332.397 696.652> 778 131<368.236 721.78> 1315 20G<1.74046 66.6792>
VStem: 160 159<-299 4 130.634 731.25 844 1141> 829 164<246.522 663.741>
LayerCount: 2
Fore
SplineSet
491 -426 m 1,0,-1
 -12 -426 l 1,1,-1
 -12 -299 l 1,2,-1
 160 -299 l 1,3,-1
 160 1141 l 1,4,-1
 -33 1204 l 1,5,-1
 8 1335 l 1,6,-1
 319 1229 l 1,7,-1
 319 844 l 1,8,9
 367 870 367 870 427 889.5 c 128,-1,10
 487 909 487 909 555 909 c 0,11,12
 652 909 652 909 732.5 880 c 128,-1,13
 813 851 813 851 871 794.5 c 128,-1,14
 929 738 929 738 961 655.5 c 128,-1,15
 993 573 993 573 993 465 c 0,16,17
 993 355 993 355 960.5 264 c 128,-1,18
 928 173 928 173 869 107.5 c 128,-1,19
 810 42 810 42 728 5.5 c 128,-1,20
 646 -31 646 -31 547 -31 c 0,21,22
 478 -31 478 -31 422 -21 c 128,-1,23
 366 -11 366 -11 319 4 c 1,24,-1
 319 -299 l 1,25,-1
 491 -299 l 1,26,-1
 491 -426 l 1,0,-1
545 100 m 0,27,28
 615 100 615 100 668.5 127 c 128,-1,29
 722 154 722 154 757.5 202 c 128,-1,30
 793 250 793 250 811 317 c 128,-1,31
 829 384 829 384 829 465 c 0,32,33
 829 778 829 778 553 778 c 0,34,35
 498 778 498 778 454.5 766 c 128,-1,36
 411 754 411 754 381 740 c 0,37,38
 346 723 346 723 319 702 c 1,39,-1
 319 152 l 1,40,41
 344 137 344 137 377 126 c 0,42,43
 406 116 406 116 448 108 c 128,-1,44
 490 100 490 100 545 100 c 0,27,28
EndSplineSet
EndChar

StartChar: dotlessi
Encoding: 305 305 194
Width: 648
GlyphClass: 2
Flags: W
HStem: 0 127<95 265 425 595> 752 127<95 265>
VStem: 265 160<127 752>
LayerCount: 2
Fore
SplineSet
95 879 m 1,0,-1
 425 879 l 1,1,-1
 425 127 l 1,2,-1
 595 127 l 1,3,-1
 595 0 l 1,4,-1
 95 0 l 1,5,-1
 95 127 l 1,6,-1
 265 127 l 1,7,-1
 265 752 l 1,8,-1
 95 752 l 1,9,-1
 95 879 l 1,0,-1
EndSplineSet
EndChar

StartChar: OE
Encoding: 338 338 195
Width: 1824
GlyphClass: 2
Flags: W
HStem: 0 141<504.741 880 1044 1521> 553 141<1046 1425> 1065 141<457.445 880 1046 1480>
VStem: 114 174<363.114 881.41> 880 164<141 553 694 1065>
LayerCount: 2
Fore
SplineSet
1738 315 m 1,0,-1
 1631 0 l 1,1,-1
 718 0 l 2,2,3
 590 0 590 0 480 41 c 128,-1,4
 370 82 370 82 288.5 159.5 c 128,-1,5
 207 237 207 237 160.5 349 c 128,-1,6
 114 461 114 461 114 604 c 0,7,8
 114 782 114 782 159 898.5 c 128,-1,9
 204 1015 204 1015 286 1083 c 128,-1,10
 368 1151 368 1151 482 1178.5 c 128,-1,11
 596 1206 596 1206 734 1206 c 2,12,-1
 1590 1206 l 1,13,-1
 1697 891 l 1,14,-1
 1562 846 l 1,15,-1
 1480 1065 l 1,16,-1
 1046 1065 l 1,17,-1
 1046 694 l 1,18,-1
 1425 694 l 1,19,-1
 1425 553 l 1,20,-1
 1044 553 l 1,21,-1
 1044 141 l 1,22,-1
 1521 141 l 1,23,-1
 1603 360 l 1,24,-1
 1738 315 l 1,0,-1
734 1067 m 2,25,26
 631 1067 631 1067 548.5 1051.5 c 128,-1,27
 466 1036 466 1036 408 987.5 c 128,-1,28
 350 939 350 939 319 847.5 c 128,-1,29
 288 756 288 756 288 604 c 0,30,31
 288 371 288 371 405.5 254 c 128,-1,32
 523 137 523 137 755 139 c 1,33,-1
 880 141 l 1,34,-1
 880 1067 l 1,35,-1
 734 1067 l 2,25,26
EndSplineSet
EndChar

StartChar: oe
Encoding: 339 339 196
Width: 1565
GlyphClass: 2
Flags: W
HStem: -31 131<384.43 711.522 914.221 1294.98> 397 127<799 1317> 778 131<386.821 722.016 916.085 1233.23>
VStem: 92 164<242.567 639.492>
LayerCount: 2
Fore
SplineSet
1077 -31 m 0,0,1
 994 -31 994 -31 924.5 -9 c 128,-1,2
 855 13 855 13 799 55 c 1,3,4
 749 21 749 21 683 -5 c 128,-1,5
 617 -31 617 -31 539 -31 c 0,6,7
 440 -31 440 -31 358 4 c 128,-1,8
 276 39 276 39 216.5 103 c 128,-1,9
 157 167 157 167 124.5 257 c 128,-1,10
 92 347 92 347 92 457 c 0,11,12
 92 556 92 556 126.5 639 c 128,-1,13
 161 722 161 722 221.5 782 c 128,-1,14
 282 842 282 842 363.5 875.5 c 128,-1,15
 445 909 445 909 539 909 c 0,16,17
 632 909 632 909 702.5 887.5 c 128,-1,18
 773 866 773 866 824 840 c 1,19,20
 876 874 876 874 939.5 891.5 c 128,-1,21
 1003 909 1003 909 1077 909 c 0,22,23
 1132 909 1132 909 1184.5 899 c 128,-1,24
 1237 889 1237 889 1282.5 866 c 128,-1,25
 1328 843 1328 843 1364.5 805 c 128,-1,26
 1401 767 1401 767 1425 710.5 c 128,-1,27
 1449 654 1449 654 1457.5 577.5 c 128,-1,28
 1466 501 1466 501 1456 401 c 1,29,-1
 797 397 l 1,30,31
 805 254 805 254 875.5 177 c 128,-1,32
 946 100 946 100 1080 100 c 0,33,34
 1152 100 1152 100 1209 115.5 c 128,-1,35
 1266 131 1266 131 1307 150 c 0,36,37
 1355 172 1355 172 1391 201 c 1,38,-1
 1465 104 l 2,39,40
 1465 103 1465 103 1439 82 c 128,-1,41
 1413 61 1413 61 1363.5 36 c 128,-1,42
 1314 11 1314 11 1242 -10 c 128,-1,43
 1170 -31 1170 -31 1077 -31 c 0,0,1
631 438 m 0,44,45
 631 532 631 532 654.5 610.5 c 128,-1,46
 678 689 678 689 723 748 c 1,47,48
 694 759 694 759 648.5 768.5 c 128,-1,49
 603 778 603 778 541 778 c 0,50,51
 476 778 476 778 423 753.5 c 128,-1,52
 370 729 370 729 333 686.5 c 128,-1,53
 296 644 296 644 276 585.5 c 128,-1,54
 256 527 256 527 256 459 c 0,55,56
 256 378 256 378 274 312 c 128,-1,57
 292 246 292 246 327.5 199 c 128,-1,58
 363 152 363 152 416.5 126 c 128,-1,59
 470 100 470 100 541 100 c 0,60,61
 594 100 594 100 636.5 113.5 c 128,-1,62
 679 127 679 127 713 145 c 1,63,64
 673 202 673 202 652 275 c 128,-1,65
 631 348 631 348 631 438 c 0,44,45
1080 778 m 0,66,67
 958 778 958 778 888 711.5 c 128,-1,68
 818 645 818 645 799 524 c 1,69,-1
 1317 526 l 1,70,71
 1315 650 1315 650 1255 714 c 128,-1,72
 1195 778 1195 778 1080 778 c 0,66,67
EndSplineSet
EndChar

StartChar: circumflex
Encoding: 710 710 197
Width: 702
GlyphClass: 2
Flags: W
HStem: 1001 285
VStem: 37 618
LayerCount: 2
Fore
SplineSet
346 1286 m 1,0,-1
 655 1067 l 1,1,-1
 618 1001 l 1,2,-1
 346 1137 l 1,3,-1
 74 1001 l 1,4,-1
 37 1067 l 1,5,-1
 346 1286 l 1,0,-1
EndSplineSet
EndChar

StartChar: caron
Encoding: 711 711 198
Width: 711
GlyphClass: 2
Flags: W
HStem: 975 285
VStem: 37 618
LayerCount: 2
Fore
SplineSet
37 1194 m 1,0,-1
 74 1260 l 1,1,-1
 346 1124 l 1,2,-1
 618 1260 l 1,3,-1
 655 1194 l 1,4,-1
 346 975 l 1,5,-1
 37 1194 l 1,0,-1
EndSplineSet
EndChar

StartChar: breve
Encoding: 728 728 199
Width: 698
GlyphClass: 2
Flags: W
HStem: 1008 118<207.695 472.305>
VStem: 39 602
LayerCount: 2
Fore
SplineSet
340 1008 m 256,0,1
 280 1008 280 1008 233 1026 c 128,-1,2
 186 1044 186 1044 149.5 1072.5 c 128,-1,3
 113 1101 113 1101 86 1137 c 128,-1,4
 59 1173 59 1173 39 1210 c 1,5,-1
 123 1264 l 1,6,7
 135 1244 135 1244 155 1220 c 128,-1,8
 175 1196 175 1196 202 1175 c 128,-1,9
 229 1154 229 1154 263.5 1140 c 128,-1,10
 298 1126 298 1126 340 1126 c 256,11,12
 382 1126 382 1126 416.5 1140 c 128,-1,13
 451 1154 451 1154 478 1175 c 128,-1,14
 505 1196 505 1196 525 1220 c 128,-1,15
 545 1244 545 1244 557 1264 c 1,16,-1
 641 1210 l 1,17,18
 621 1173 621 1173 594 1137 c 128,-1,19
 567 1101 567 1101 530.5 1072.5 c 128,-1,20
 494 1044 494 1044 447 1026 c 128,-1,21
 400 1008 400 1008 340 1008 c 256,0,1
EndSplineSet
EndChar

StartChar: dotaccent
Encoding: 729 729 200
Width: 311
GlyphClass: 2
Flags: W
HStem: 1061 254<58.363 248.309>
VStem: 27 254<1092.36 1282.31>
LayerCount: 2
Fore
SplineSet
281 1188 m 0,0,1
 281 1162 281 1162 270.5 1138.5 c 128,-1,2
 260 1115 260 1115 242.5 1098 c 128,-1,3
 225 1081 225 1081 202 1071 c 128,-1,4
 179 1061 179 1061 154 1061 c 0,5,6
 128 1061 128 1061 104.5 1071 c 128,-1,7
 81 1081 81 1081 64 1098 c 128,-1,8
 47 1115 47 1115 37 1138.5 c 128,-1,9
 27 1162 27 1162 27 1188 c 0,10,11
 27 1213 27 1213 37 1236 c 128,-1,12
 47 1259 47 1259 64 1276.5 c 128,-1,13
 81 1294 81 1294 104.5 1304.5 c 128,-1,14
 128 1315 128 1315 154 1315 c 0,15,16
 179 1315 179 1315 202 1304.5 c 128,-1,17
 225 1294 225 1294 242.5 1276.5 c 128,-1,18
 260 1259 260 1259 270.5 1236 c 128,-1,19
 281 1213 281 1213 281 1188 c 0,0,1
EndSplineSet
EndChar

StartChar: ring
Encoding: 730 730 201
Width: 494
GlyphClass: 2
Flags: W
HStem: 1280 96<172.829 315.171> 1536 96<172.829 315.171>
VStem: 68 96<1384.83 1527.17> 324 96<1384.83 1527.17>
LayerCount: 2
Fore
SplineSet
68 1456 m 256,0,1
 68 1492 68 1492 82 1524 c 128,-1,2
 96 1556 96 1556 120 1580 c 128,-1,3
 144 1604 144 1604 176 1618 c 128,-1,4
 208 1632 208 1632 244 1632 c 256,5,6
 280 1632 280 1632 312 1618 c 128,-1,7
 344 1604 344 1604 368 1580 c 128,-1,8
 392 1556 392 1556 406 1524 c 128,-1,9
 420 1492 420 1492 420 1456 c 256,10,11
 420 1420 420 1420 406 1388 c 128,-1,12
 392 1356 392 1356 368 1332 c 128,-1,13
 344 1308 344 1308 312 1294 c 128,-1,14
 280 1280 280 1280 244 1280 c 256,15,16
 208 1280 208 1280 176 1294 c 128,-1,17
 144 1308 144 1308 120 1332 c 128,-1,18
 96 1356 96 1356 82 1388 c 128,-1,19
 68 1420 68 1420 68 1456 c 256,0,1
164 1456 m 256,20,21
 164 1440 164 1440 170.5 1425.5 c 128,-1,22
 177 1411 177 1411 188 1400 c 128,-1,23
 199 1389 199 1389 213.5 1382.5 c 128,-1,24
 228 1376 228 1376 244 1376 c 256,25,26
 260 1376 260 1376 274.5 1382.5 c 128,-1,27
 289 1389 289 1389 300 1400 c 128,-1,28
 311 1411 311 1411 317.5 1425.5 c 128,-1,29
 324 1440 324 1440 324 1456 c 256,30,31
 324 1472 324 1472 317.5 1486.5 c 128,-1,32
 311 1501 311 1501 300 1512 c 128,-1,33
 289 1523 289 1523 274.5 1529.5 c 128,-1,34
 260 1536 260 1536 244 1536 c 256,35,36
 228 1536 228 1536 213.5 1529.5 c 128,-1,37
 199 1523 199 1523 188 1512 c 128,-1,38
 177 1501 177 1501 170.5 1486.5 c 128,-1,39
 164 1472 164 1472 164 1456 c 256,20,21
EndSplineSet
EndChar

StartChar: ogonek
Encoding: 731 731 202
Width: 498
GlyphClass: 2
Flags: W
HStem: -438 96<179.135 369.638>
VStem: 41 113<-317.594 -119.536>
LayerCount: 2
Fore
SplineSet
399 41 m 1,0,1
 363 20 363 20 320 -9 c 128,-1,2
 277 -38 277 -38 240.5 -73 c 128,-1,3
 204 -108 204 -108 179 -148 c 128,-1,4
 154 -188 154 -188 154 -231 c 0,5,6
 154 -284 154 -284 185.5 -313 c 128,-1,7
 217 -342 217 -342 260 -342 c 0,8,9
 289 -342 289 -342 322 -328 c 128,-1,10
 355 -314 355 -314 389 -279 c 1,11,-1
 446 -340 l 1,12,13
 408 -383 408 -383 360.5 -410.5 c 128,-1,14
 313 -438 313 -438 244 -438 c 0,15,16
 206 -438 206 -438 169.5 -427 c 128,-1,17
 133 -416 133 -416 104.5 -392.5 c 128,-1,18
 76 -369 76 -369 58.5 -331.5 c 128,-1,19
 41 -294 41 -294 41 -240 c 0,20,21
 41 -171 41 -171 68.5 -117.5 c 128,-1,22
 96 -64 96 -64 140 -22 c 128,-1,23
 184 20 184 20 239.5 53.5 c 128,-1,24
 295 87 295 87 352 117 c 1,25,-1
 399 41 l 1,0,1
EndSplineSet
EndChar

StartChar: tilde
Encoding: 732 732 203
Width: 1182
GlyphClass: 2
Flags: W
HStem: 996.5 238
LayerCount: 2
Fore
SplineSet
592 1196 m 0,0,1
 611 1183 611 1183 629 1169.5 c 128,-1,2
 647 1156 647 1156 665.5 1145 c 128,-1,3
 684 1134 684 1134 705.5 1128 c 128,-1,4
 727 1122 727 1122 752.5 1125.5 c 128,-1,5
 778 1129 778 1129 809 1143.5 c 128,-1,6
 840 1158 840 1158 879 1188 c 1,7,-1
 946 1108 l 1,8,9
 913 1081 913 1081 873 1053 c 128,-1,10
 833 1025 833 1025 788 1009 c 128,-1,11
 743 993 743 993 693.5 996.5 c 128,-1,12
 644 1000 644 1000 592 1036 c 0,13,14
 563 1055 563 1055 537 1075.5 c 128,-1,15
 511 1096 511 1096 478.5 1104 c 128,-1,16
 446 1112 446 1112 404.5 1100.5 c 128,-1,17
 363 1089 363 1089 305 1044 c 1,18,-1
 238 1124 l 1,19,20
 271 1151 271 1151 311 1179 c 128,-1,21
 351 1207 351 1207 396 1222.5 c 128,-1,22
 441 1238 441 1238 490.5 1234.5 c 128,-1,23
 540 1231 540 1231 592 1196 c 0,0,1
EndSplineSet
EndChar

StartChar: hungarumlaut
Encoding: 733 733 204
Width: 1128
GlyphClass: 2
Flags: W
HStem: 909 424 1207 20G<916.5 962.451>
LayerCount: 2
Fore
SplineSet
537 1333 m 1,0,-1
 633 1214 l 1,1,-1
 205 909 l 1,2,-1
 158 967 l 1,3,-1
 537 1333 l 1,0,-1
954 1227 m 1,4,-1
 1014 1085 l 1,5,-1
 520 909 l 1,6,-1
 489 979 l 1,7,-1
 954 1227 l 1,4,-1
EndSplineSet
EndChar

StartChar: endash
Encoding: 8211 8211 205
Width: 1216
GlyphClass: 2
Flags: W
HStem: 403 142<138 1078>
LayerCount: 2
Fore
SplineSet
138 545 m 1,0,-1
 1078 545 l 1,1,-1
 1078 403 l 1,2,-1
 138 403 l 1,3,-1
 138 545 l 1,0,-1
EndSplineSet
EndChar

StartChar: emdash
Encoding: 8212 8212 206
Width: 1662
GlyphClass: 2
Flags: W
HStem: 401 142<135 1528>
LayerCount: 2
Fore
SplineSet
135 543 m 1,0,-1
 1528 543 l 1,1,-1
 1528 401 l 1,2,-1
 135 401 l 1,3,-1
 135 543 l 1,0,-1
EndSplineSet
EndChar

StartChar: quoteleft
Encoding: 8216 8216 207
Width: 503
GlyphClass: 2
Flags: W
HStem: 768 471
VStem: 113 273<806.24 988.369>
LayerCount: 2
Fore
SplineSet
113 907 m 0,0,1
 113 937 113 937 120.5 967 c 128,-1,2
 128 997 128 997 140.5 1025.5 c 128,-1,3
 153 1054 153 1054 169 1081 c 128,-1,4
 185 1108 185 1108 202 1132 c 0,5,6
 242 1187 242 1187 293 1239 c 1,7,-1
 365 1178 l 1,8,9
 347 1151 347 1151 330 1123 c 0,10,11
 316 1099 316 1099 299.5 1070 c 128,-1,12
 283 1041 283 1041 271 1014 c 1,13,14
 289 1012 289 1012 308 1006 c 128,-1,15
 327 1000 327 1000 343 987 c 0,16,17
 363 970 363 970 374.5 946.5 c 128,-1,18
 386 923 386 923 386 895 c 0,19,20
 386 866 386 866 375.5 843 c 128,-1,21
 365 820 365 820 347 803 c 128,-1,22
 329 786 329 786 304.5 777 c 128,-1,23
 280 768 280 768 252 768 c 0,24,25
 225 768 225 768 199.5 779 c 128,-1,26
 174 790 174 790 155 809 c 128,-1,27
 136 828 136 828 124.5 853 c 128,-1,28
 113 878 113 878 113 907 c 0,0,1
EndSplineSet
EndChar

StartChar: quoteright
Encoding: 8217 8217 208
Width: 489
GlyphClass: 2
Flags: W
HStem: 768 471
VStem: 121 272<1018.63 1200.76>
LayerCount: 2
Fore
SplineSet
393 1100 m 0,0,1
 393 1070 393 1070 385.5 1040 c 128,-1,2
 378 1010 378 1010 365.5 981.5 c 128,-1,3
 353 953 353 953 337 926 c 128,-1,4
 321 899 321 899 304 875 c 0,5,6
 264 820 264 820 213 768 c 1,7,-1
 141 829 l 1,8,9
 158 856 158 856 176 884 c 1,10,11
 190 908 190 908 206.5 936.5 c 128,-1,12
 223 965 223 965 235 993 c 1,13,14
 217 995 217 995 198 1001.5 c 128,-1,15
 179 1008 179 1008 164 1020 c 0,16,17
 144 1037 144 1037 132.5 1060.5 c 128,-1,18
 121 1084 121 1084 121 1112 c 256,19,20
 121 1140 121 1140 131 1163.5 c 128,-1,21
 141 1187 141 1187 159 1204 c 128,-1,22
 177 1221 177 1221 201 1230 c 128,-1,23
 225 1239 225 1239 254 1239 c 0,24,25
 281 1239 281 1239 306.5 1228 c 128,-1,26
 332 1217 332 1217 351 1198 c 128,-1,27
 370 1179 370 1179 381.5 1153.5 c 128,-1,28
 393 1128 393 1128 393 1100 c 0,0,1
EndSplineSet
EndChar

StartChar: quotesinglbase
Encoding: 8218 8218 209
Width: 527
GlyphClass: 2
Flags: W
HStem: -248 471
VStem: 129 272<2.63123 184.755>
LayerCount: 2
Fore
SplineSet
401 84 m 0,0,1
 401 54 401 54 393.5 24 c 128,-1,2
 386 -6 386 -6 373.5 -34.5 c 128,-1,3
 361 -63 361 -63 345 -90 c 128,-1,4
 329 -117 329 -117 312 -141 c 0,5,6
 272 -196 272 -196 221 -248 c 1,7,-1
 149 -186 l 1,8,9
 166 -160 166 -160 184 -132 c 1,10,11
 198 -108 198 -108 214.5 -79.5 c 128,-1,12
 231 -51 231 -51 243 -23 c 1,13,14
 225 -21 225 -21 206 -14.5 c 128,-1,15
 187 -8 187 -8 172 4 c 0,16,17
 152 21 152 21 140.5 44.5 c 128,-1,18
 129 68 129 68 129 96 c 256,19,20
 129 124 129 124 139 147.5 c 128,-1,21
 149 171 149 171 167 188 c 128,-1,22
 185 205 185 205 209 214 c 128,-1,23
 233 223 233 223 262 223 c 0,24,25
 289 223 289 223 314.5 212 c 128,-1,26
 340 201 340 201 359 182 c 128,-1,27
 378 163 378 163 389.5 137.5 c 128,-1,28
 401 112 401 112 401 84 c 0,0,1
EndSplineSet
EndChar

StartChar: quotedblleft
Encoding: 8220 8220 210
Width: 882
GlyphClass: 2
Flags: W
HStem: 768 471
VStem: 113 273<806.24 988.369> 492 272<806.24 988.369>
LayerCount: 2
Fore
SplineSet
492 907 m 0,0,1
 492 937 492 937 499.5 967 c 128,-1,2
 507 997 507 997 519.5 1025.5 c 128,-1,3
 532 1054 532 1054 548 1081 c 128,-1,4
 564 1108 564 1108 581 1132 c 0,5,6
 621 1187 621 1187 672 1239 c 1,7,-1
 744 1178 l 1,8,9
 726 1151 726 1151 709 1123 c 0,10,11
 695 1099 695 1099 678.5 1070 c 128,-1,12
 662 1041 662 1041 650 1014 c 1,13,14
 668 1012 668 1012 687 1006 c 128,-1,15
 706 1000 706 1000 721 987 c 0,16,17
 741 970 741 970 752.5 946.5 c 128,-1,18
 764 923 764 923 764 895 c 0,19,20
 764 866 764 866 754 843 c 128,-1,21
 744 820 744 820 726 803 c 128,-1,22
 708 786 708 786 683.5 777 c 128,-1,23
 659 768 659 768 631 768 c 0,24,25
 604 768 604 768 578.5 779 c 128,-1,26
 553 790 553 790 534 809 c 128,-1,27
 515 828 515 828 503.5 853 c 128,-1,28
 492 878 492 878 492 907 c 0,0,1
113 907 m 0,29,30
 113 937 113 937 120.5 967 c 128,-1,31
 128 997 128 997 140.5 1025.5 c 128,-1,32
 153 1054 153 1054 169 1081 c 128,-1,33
 185 1108 185 1108 202 1132 c 0,34,35
 242 1187 242 1187 293 1239 c 1,36,-1
 365 1178 l 1,37,38
 347 1151 347 1151 330 1123 c 0,39,40
 316 1099 316 1099 299.5 1070 c 128,-1,41
 283 1041 283 1041 271 1014 c 1,42,43
 289 1012 289 1012 308 1006 c 128,-1,44
 327 1000 327 1000 343 987 c 0,45,46
 363 970 363 970 374.5 946.5 c 128,-1,47
 386 923 386 923 386 895 c 0,48,49
 386 866 386 866 375.5 843 c 128,-1,50
 365 820 365 820 347 803 c 128,-1,51
 329 786 329 786 304.5 777 c 128,-1,52
 280 768 280 768 252 768 c 0,53,54
 225 768 225 768 199.5 779 c 128,-1,55
 174 790 174 790 155 809 c 128,-1,56
 136 828 136 828 124.5 853 c 128,-1,57
 113 878 113 878 113 907 c 0,29,30
EndSplineSet
EndChar

StartChar: quotedblright
Encoding: 8221 8221 211
Width: 868
GlyphClass: 2
Flags: W
HStem: 768 471
VStem: 121 272<1018.63 1200.76> 499 273<1018.63 1200.76>
LayerCount: 2
Fore
SplineSet
393 1100 m 0,0,1
 393 1070 393 1070 385.5 1040 c 128,-1,2
 378 1010 378 1010 365.5 981.5 c 128,-1,3
 353 953 353 953 337 926 c 128,-1,4
 321 899 321 899 304 875 c 0,5,6
 264 820 264 820 213 768 c 1,7,-1
 141 829 l 1,8,9
 158 856 158 856 176 884 c 1,10,11
 190 908 190 908 206.5 936.5 c 128,-1,12
 223 965 223 965 235 993 c 1,13,14
 217 995 217 995 198 1001.5 c 128,-1,15
 179 1008 179 1008 164 1020 c 0,16,17
 144 1037 144 1037 132.5 1060.5 c 128,-1,18
 121 1084 121 1084 121 1112 c 256,19,20
 121 1140 121 1140 131 1163.5 c 128,-1,21
 141 1187 141 1187 159 1204 c 128,-1,22
 177 1221 177 1221 201 1230 c 128,-1,23
 225 1239 225 1239 254 1239 c 0,24,25
 281 1239 281 1239 306.5 1228 c 128,-1,26
 332 1217 332 1217 351 1198 c 128,-1,27
 370 1179 370 1179 381.5 1153.5 c 128,-1,28
 393 1128 393 1128 393 1100 c 0,0,1
772 1100 m 0,29,30
 772 1070 772 1070 764.5 1040 c 128,-1,31
 757 1010 757 1010 744.5 981.5 c 128,-1,32
 732 953 732 953 716 926 c 128,-1,33
 700 899 700 899 683 875 c 0,34,35
 643 820 643 820 592 768 c 1,36,-1
 520 829 l 1,37,38
 538 856 538 856 555 884 c 0,39,40
 569 908 569 908 585 936.5 c 128,-1,41
 601 965 601 965 614 993 c 1,42,43
 596 995 596 995 577 1001.5 c 128,-1,44
 558 1008 558 1008 542 1020 c 1,45,46
 522 1037 522 1037 510.5 1060.5 c 128,-1,47
 499 1084 499 1084 499 1112 c 256,48,49
 499 1140 499 1140 509 1163.5 c 128,-1,50
 519 1187 519 1187 537 1204 c 128,-1,51
 555 1221 555 1221 579.5 1230 c 128,-1,52
 604 1239 604 1239 633 1239 c 0,53,54
 660 1239 660 1239 685.5 1228 c 128,-1,55
 711 1217 711 1217 730 1198 c 128,-1,56
 749 1179 749 1179 760.5 1153.5 c 128,-1,57
 772 1128 772 1128 772 1100 c 0,29,30
EndSplineSet
EndChar

StartChar: quotedblbase
Encoding: 8222 8222 212
Width: 906
GlyphClass: 2
Flags: W
HStem: -248 471
VStem: 129 272<2.63123 184.755> 507 273<2.63123 184.755>
LayerCount: 2
Fore
SplineSet
401 84 m 0,0,1
 401 54 401 54 393.5 24 c 128,-1,2
 386 -6 386 -6 373.5 -34.5 c 128,-1,3
 361 -63 361 -63 345 -90 c 128,-1,4
 329 -117 329 -117 312 -141 c 0,5,6
 272 -196 272 -196 221 -248 c 1,7,-1
 149 -186 l 1,8,9
 166 -160 166 -160 184 -132 c 1,10,11
 198 -108 198 -108 214.5 -79.5 c 128,-1,12
 231 -51 231 -51 243 -23 c 1,13,14
 225 -21 225 -21 206 -14.5 c 128,-1,15
 187 -8 187 -8 172 4 c 0,16,17
 152 21 152 21 140.5 44.5 c 128,-1,18
 129 68 129 68 129 96 c 256,19,20
 129 124 129 124 139 147.5 c 128,-1,21
 149 171 149 171 167 188 c 128,-1,22
 185 205 185 205 209 214 c 128,-1,23
 233 223 233 223 262 223 c 0,24,25
 289 223 289 223 314.5 212 c 128,-1,26
 340 201 340 201 359 182 c 128,-1,27
 378 163 378 163 389.5 137.5 c 128,-1,28
 401 112 401 112 401 84 c 0,0,1
780 84 m 0,29,30
 780 54 780 54 772.5 24 c 128,-1,31
 765 -6 765 -6 752.5 -34.5 c 128,-1,32
 740 -63 740 -63 724 -90 c 128,-1,33
 708 -117 708 -117 691 -141 c 0,34,35
 651 -196 651 -196 600 -248 c 1,36,-1
 528 -186 l 1,37,38
 546 -160 546 -160 563 -132 c 0,39,40
 577 -108 577 -108 593 -79.5 c 128,-1,41
 609 -51 609 -51 622 -23 c 1,42,43
 604 -21 604 -21 585 -14.5 c 128,-1,44
 566 -8 566 -8 550 4 c 1,45,46
 530 21 530 21 518.5 44.5 c 128,-1,47
 507 68 507 68 507 96 c 256,48,49
 507 124 507 124 517 147.5 c 128,-1,50
 527 171 527 171 545 188 c 128,-1,51
 563 205 563 205 587.5 214 c 128,-1,52
 612 223 612 223 641 223 c 0,53,54
 668 223 668 223 693.5 212 c 128,-1,55
 719 201 719 201 738 182 c 128,-1,56
 757 163 757 163 768.5 137.5 c 128,-1,57
 780 112 780 112 780 84 c 0,29,30
EndSplineSet
EndChar

StartChar: bullet
Encoding: 8226 8226 213
Width: 698
GlyphClass: 2
Flags: W
HStem: 414 475<212.201 487.053>
VStem: 112 475<513.947 788.799>
LayerCount: 2
Fore
SplineSet
112 651 m 256,0,1
 112 700 112 700 131 743.5 c 128,-1,2
 150 787 150 787 182 819 c 128,-1,3
 214 851 214 851 257.5 870 c 128,-1,4
 301 889 301 889 350 889 c 256,5,6
 399 889 399 889 442 870 c 128,-1,7
 485 851 485 851 517.5 819 c 128,-1,8
 550 787 550 787 568.5 743.5 c 128,-1,9
 587 700 587 700 587 651 c 256,10,11
 587 602 587 602 568.5 559 c 128,-1,12
 550 516 550 516 517.5 483.5 c 128,-1,13
 485 451 485 451 442 432.5 c 128,-1,14
 399 414 399 414 350 414 c 256,15,16
 301 414 301 414 257.5 432.5 c 128,-1,17
 214 451 214 451 182 483.5 c 128,-1,18
 150 516 150 516 131 559 c 128,-1,19
 112 602 112 602 112 651 c 256,0,1
EndSplineSet
EndChar

StartChar: guilsinglleft
Encoding: 8249 8249 214
Width: 617
GlyphClass: 2
Flags: W
HStem: 865 20G<390.215 433.333>
VStem: 79 428
LayerCount: 2
Fore
SplineSet
507 76 m 1,0,-1
 405 4 l 1,1,-1
 79 444 l 1,2,-1
 405 885 l 1,3,-1
 507 813 l 1,4,-1
 245 444 l 1,5,-1
 507 76 l 1,0,-1
EndSplineSet
EndChar

StartChar: guilsinglright
Encoding: 8250 8250 215
Width: 617
GlyphClass: 2
Flags: W
HStem: 865 20G<183.667 226.785>
VStem: 110 428
LayerCount: 2
Fore
SplineSet
372 444 m 1,0,-1
 110 813 l 1,1,-1
 212 885 l 1,2,-1
 538 444 l 1,3,-1
 212 4 l 1,4,-1
 110 76 l 1,5,-1
 372 444 l 1,0,-1
EndSplineSet
EndChar

StartChar: fraction
Encoding: 8260 8260 216
Width: 695
GlyphClass: 2
Flags: W
LayerCount: 2
Fore
SplineSet
138 -100 m 1,0,-1
 -8 -100 l 1,1,-1
 562 1278 l 1,2,-1
 705 1278 l 1,3,-1
 138 -100 l 1,0,-1
EndSplineSet
EndChar

StartChar: uni2074
Encoding: 8308 8308 217
Width: 797
GlyphClass: 2
Flags: W
HStem: 481 99<312 441 558 671> 684 98<218 441 558 675>
VStem: 441 117<580 684 782 1120>
LayerCount: 2
Fore
SplineSet
558 684 m 1,0,-1
 558 580 l 1,1,-1
 671 580 l 1,2,-1
 671 481 l 1,3,-1
 312 481 l 1,4,-1
 312 580 l 1,5,-1
 441 580 l 1,6,-1
 441 684 l 1,7,-1
 85 684 l 1,8,-1
 85 745 l 1,9,-1
 322 1272 l 1,10,-1
 423 1212 l 1,11,-1
 277 911 l 1,12,-1
 218 782 l 1,13,-1
 441 782 l 1,14,-1
 441 1120 l 1,15,-1
 560 1120 l 1,16,-1
 558 782 l 1,17,-1
 675 784 l 1,18,-1
 675 684 l 1,19,-1
 558 684 l 1,0,-1
EndSplineSet
EndChar

StartChar: Euro
Encoding: 8364 8364 218
Width: 1427
GlyphClass: 2
Flags: W
HStem: -31 140<695.029 1131.47> 393 142<114 311 514 917> 657 142<112 307 507 979> 1098 139<695.766 1122.96>
VStem: 307 178<535 657> 1171 139<263.442 285.38 900.661 927.986>
LayerCount: 2
Fore
SplineSet
1310 283 m 1,0,-1
 1259 45 l 1,1,2
 1215 24 1215 24 1159 7 c 0,3,4
 1111 -7 1111 -7 1043.5 -19 c 128,-1,5
 976 -31 976 -31 892 -31 c 0,6,7
 785 -31 785 -31 695 -2 c 128,-1,8
 605 27 605 27 534 82 c 128,-1,9
 463 137 463 137 413 215.5 c 128,-1,10
 363 294 363 294 337 393 c 1,11,-1
 79 393 l 1,12,-1
 114 535 l 1,13,-1
 311 535 l 1,14,15
 309 555 309 555 308 575 c 128,-1,16
 307 595 307 595 307 616 c 2,17,-1
 307 657 l 1,18,-1
 79 657 l 1,19,-1
 112 799 l 1,20,-1
 331 799 l 1,21,22
 355 901 355 901 405 982.5 c 128,-1,23
 455 1064 455 1064 526.5 1121 c 128,-1,24
 598 1178 598 1178 690 1208 c 128,-1,25
 782 1238 782 1238 890 1237 c 0,26,27
 992 1236 992 1236 1063.5 1221.5 c 128,-1,28
 1135 1207 1135 1207 1180.5 1189 c 128,-1,29
 1226 1171 1226 1171 1247 1156.5 c 128,-1,30
 1268 1142 1268 1142 1269 1141 c 2,31,-1
 1314 903 l 1,32,-1
 1173 872 l 1,33,-1
 1132 1049 l 1,34,35
 1101 1066 1101 1066 1042 1082 c 128,-1,36
 983 1098 983 1098 892 1098 c 0,37,38
 741 1098 741 1098 643.5 1019.5 c 128,-1,39
 546 941 546 941 507 799 c 1,40,-1
 1011 799 l 1,41,-1
 979 657 l 1,42,-1
 485 657 l 1,43,-1
 485 604 l 2,44,45
 485 586 485 586 485 569 c 128,-1,46
 485 552 485 552 487 535 c 1,47,-1
 950 535 l 1,48,-1
 917 393 l 1,49,-1
 514 393 l 1,50,51
 554 256 554 256 650.5 182.5 c 128,-1,52
 747 109 747 109 892 109 c 0,53,54
 969 109 969 109 1031.5 123.5 c 128,-1,55
 1094 138 1094 138 1132 152 c 1,56,-1
 1171 315 l 1,57,-1
 1310 283 l 1,0,-1
EndSplineSet
EndChar

StartChar: minus
Encoding: 8722 8722 219
Width: 1026
GlyphClass: 2
Flags: W
HStem: 537 141<147 879>
LayerCount: 2
Fore
SplineSet
147 678 m 1,0,-1
 879 678 l 1,1,-1
 879 537 l 1,2,-1
 147 537 l 1,3,-1
 147 678 l 1,0,-1
EndSplineSet
EndChar

StartChar: uniEFFD
Encoding: 61437 61437 222
Width: 932
GlyphClass: 2
Flags: W
HStem: 0 127<229 705> 768 127<229 705>
VStem: 72 157<127 768> 705 157<127 768>
LayerCount: 2
Fore
SplineSet
72 895 m 1,0,-1
 862 895 l 1,1,-1
 862 0 l 1,2,-1
 72 0 l 1,3,-1
 72 895 l 1,0,-1
229 127 m 1,4,-1
 705 127 l 1,5,-1
 705 768 l 1,6,-1
 229 768 l 1,7,-1
 229 127 l 1,4,-1
EndSplineSet
EndChar

StartChar: Grave
Encoding: 65539 -1 224
Width: 686
GlyphClass: 2
Flags: W
HStem: 1315 246
VStem: 76 534
LayerCount: 2
Fore
SplineSet
610 1389 m 1,0,-1
 592 1315 l 1,1,-1
 76 1411 l 1,2,-1
 113 1561 l 1,3,-1
 610 1389 l 1,0,-1
EndSplineSet
EndChar

StartChar: Acute
Encoding: 65543 -1 228
Width: 668
GlyphClass: 2
Flags: W
HStem: 1307 245
VStem: 66 534
LayerCount: 2
Fore
SplineSet
563 1552 m 1,0,-1
 600 1403 l 1,1,-1
 84 1307 l 1,2,-1
 66 1380 l 1,3,-1
 563 1552 l 1,0,-1
EndSplineSet
EndChar

